<svg width="1114" height="435" viewBox="0 0 1114 435" fill="none" xmlns="http://www.w3.org/2000/svg">
<path fill-rule="evenodd" clip-rule="evenodd" d="M129.009 165.889C128.05 163.971 113.667 154.383 111.749 154.383C107.914 153.903 108.873 155.342 107.435 157.739C106.476 159.177 105.996 163.012 107.435 164.93C110.791 169.245 116.064 174.519 120.379 178.354L130.447 170.204L129.009 165.889Z" fill="#17171A"/>
<path fill-rule="evenodd" clip-rule="evenodd" d="M171.677 401.287L176.472 404.163L175.992 419.984L155.377 434.846L1.00211 342.797C1.00211 306.361 -2.35386 312.114 7.23463 288.622C7.71406 287.183 8.19348 285.745 8.67291 284.786L175.992 388.822L171.677 401.287Z" fill="#36608C"/>
<path fill-rule="evenodd" clip-rule="evenodd" d="M1.00384 334.168C1.00384 324.1 0.524414 318.347 0.524414 314.032L160.652 408.479L161.132 429.574L1.00384 334.168Z" fill="#1D334F"/>
<path fill-rule="evenodd" clip-rule="evenodd" d="M18.2622 324.1L140.036 396.014L127.571 404.164L22.577 341.839L18.2622 324.1Z" fill="#17171A"/>
<path fill-rule="evenodd" clip-rule="evenodd" d="M8.19287 285.746C12.5077 274.719 10.1106 270.884 24.4933 254.583C49.4234 225.338 89.2157 198.011 105.037 185.067C68.121 226.297 47.0263 254.583 27.8493 297.732L8.19287 285.746Z" fill="#64A0D7"/>
<path fill-rule="evenodd" clip-rule="evenodd" d="M18.2622 300.608L25.933 287.663L152.981 362.933L138.118 372.042L18.2622 300.608Z" fill="#4376AD"/>
<path fill-rule="evenodd" clip-rule="evenodd" d="M174.076 393.137L170.72 366.768L132.845 344.235L115.586 357.659L174.076 393.137ZM5.79785 292.457C6.27728 291.019 6.7567 289.581 7.23613 288.143C10.1127 280.951 10.5921 276.636 12.5098 271.842L34.0839 285.266L36.481 312.593L5.79785 292.457Z" fill="white"/>
<path fill-rule="evenodd" clip-rule="evenodd" d="M226.81 333.688C234.002 333.688 242.632 340.4 248.385 343.756C245.987 342.317 243.59 341.838 240.714 341.838C225.372 341.838 208.592 360.536 202.36 383.548C197.566 402.245 201.401 417.587 210.989 423.34L197.566 415.19C187.498 409.916 183.662 394.095 188.457 375.398C194.689 352.385 211.469 333.688 226.81 333.688Z" fill="#17171A"/>
<path fill-rule="evenodd" clip-rule="evenodd" d="M240.716 342.318C256.057 342.318 263.248 361.015 257.495 384.028C251.742 407.04 234.483 425.738 219.141 425.738C203.8 425.738 196.608 407.04 202.362 384.028C208.594 361.015 225.853 342.318 240.716 342.318Z" fill="#505253"/>
<path fill-rule="evenodd" clip-rule="evenodd" d="M238.319 356.7C248.866 356.7 253.661 369.165 249.825 384.986C245.99 400.807 234.004 413.272 223.936 413.272C213.389 413.272 208.595 400.807 212.43 384.986C216.745 369.645 228.251 356.7 238.319 356.7Z" fill="#CCD1D0"/>
<path fill-rule="evenodd" clip-rule="evenodd" d="M238.32 356.7H238.799C246.47 359.577 249.347 370.604 245.991 383.548C242.155 398.89 230.649 411.355 220.581 411.355C218.664 411.355 217.225 410.875 215.787 410.396C210.993 405.602 209.554 396.013 212.431 385.466C216.746 369.645 228.252 356.7 238.32 356.7Z" fill="#7D7E80"/>
<path fill-rule="evenodd" clip-rule="evenodd" d="M156.336 384.507C157.295 382.589 157.775 380.672 158.734 378.275C160.651 373.96 162.09 366.768 162.569 363.413C169.76 350.468 180.308 345.194 195.649 337.524C201.402 354.303 167.363 377.316 156.336 384.507Z" fill="#E4E6E6"/>
<path fill-rule="evenodd" clip-rule="evenodd" d="M152.979 424.779C152.979 415.191 152.5 409.438 152.5 404.643L176.471 391.699L183.183 396.493L178.388 406.082L152.979 424.779Z" fill="#17171A"/>
<path fill-rule="evenodd" clip-rule="evenodd" d="M186.058 100.688L209.55 114.591L206.673 130.892L128.048 180.752L124.212 177.396C145.307 151.507 161.608 126.097 186.058 100.688Z" fill="#7D7E80"/>
<path fill-rule="evenodd" clip-rule="evenodd" d="M8.19264 322.661C10.1103 322.661 12.5075 325.537 13.4663 329.373C14.4252 332.729 13.4663 336.085 11.0692 336.085C8.67206 336.085 6.75436 333.208 5.79551 329.373C5.31609 325.537 6.27494 322.661 8.19264 322.661Z" fill="white"/>
<path fill-rule="evenodd" clip-rule="evenodd" d="M142.909 402.246C144.827 402.246 147.224 405.122 148.183 408.958C149.142 412.314 148.183 415.67 145.786 415.67C143.868 415.67 141.471 412.793 140.512 408.958C140.033 405.122 140.992 402.246 142.909 402.246Z" fill="white"/>
<path fill-rule="evenodd" clip-rule="evenodd" d="M237.838 357.181C247.426 357.181 251.741 369.646 247.426 384.508C243.111 399.849 231.605 411.835 222.017 411.835C212.428 411.835 208.113 399.37 212.428 384.508C217.222 369.166 228.249 357.181 237.838 357.181ZM236.879 383.07C236.879 383.549 236.879 384.028 236.399 384.508C236.399 384.987 235.92 385.467 235.92 386.426L236.879 386.905L243.591 389.302C244.07 387.864 244.55 386.426 245.029 384.508C245.508 383.07 245.988 381.631 245.988 380.193L237.838 382.59L236.879 383.07ZM246.467 368.687C245.508 364.851 243.591 361.975 240.714 360.537L235.441 372.522L234.482 374.44C235.441 374.919 236.399 376.358 236.879 377.796L238.317 376.837L246.467 368.687ZM222.976 385.946C222.976 385.467 222.975 384.987 223.455 384.028C223.455 383.549 223.934 383.07 223.934 382.59L222.976 382.111L215.784 379.714C215.305 381.152 214.825 382.59 214.346 384.028C213.866 385.467 213.387 387.384 213.387 388.823L221.537 386.426L222.976 385.946ZM213.387 400.329C214.346 404.164 216.264 407.041 219.14 408.479L224.414 396.493L225.373 394.576C224.414 394.096 223.455 393.138 222.976 391.22L221.537 392.658L213.387 400.329ZM222.496 368.687L226.331 376.358L226.811 377.316C228.249 375.878 229.687 374.44 231.126 373.961V372.043L232.564 360.057C229.208 361.975 225.373 364.851 222.496 368.687ZM237.838 400.329L234.002 392.658L233.523 391.22C232.085 392.658 230.646 393.617 229.687 394.576L229.208 396.493L227.29 408.479C230.646 407.041 234.482 404.164 237.838 400.329Z" fill="white"/>
<path fill-rule="evenodd" clip-rule="evenodd" d="M833.324 120.583L836.201 123.46V167.087L820.859 213.112L819.901 213.592V188.661C819.901 173.32 813.668 162.773 804.08 158.937L833.324 120.583Z" fill="#AD2325"/>
<path fill-rule="evenodd" clip-rule="evenodd" d="M836.679 123.459V151.266L832.364 151.746L828.049 134.486L836.679 123.459Z" fill="#F9ED41"/>
<path fill-rule="evenodd" clip-rule="evenodd" d="M813.669 115.788L807.916 132.089C810.793 131.13 814.149 129.212 820.381 125.856L821.34 110.994L813.669 115.788Z" fill="#AD2325"/>
<path fill-rule="evenodd" clip-rule="evenodd" d="M831.887 86.0645L808.875 97.5706V119.624L831.887 104.762V86.0645Z" fill="#CB2629"/>
<path fill-rule="evenodd" clip-rule="evenodd" d="M854.554 25.4045C868.08 22.0231 881.605 20.0908 895.614 20.0908C905.275 20.0908 910.589 20.5739 914.454 20.5739L1074.83 115.738L1065.65 122.984L1064.69 123.467L1005.75 116.221L854.554 25.4045Z" fill="#F0C934"/>
<path fill-rule="evenodd" clip-rule="evenodd" d="M1021.7 188.679L1052.13 218.629L1058.41 221.528V220.561C1058.41 214.282 1058.41 200.756 1054.06 190.611C1047.3 177.569 1034.26 179.018 1021.7 188.679Z" fill="#17171A"/>
<path fill-rule="evenodd" clip-rule="evenodd" d="M1023.15 184.815C1030.39 184.815 1038.61 191.095 1044.4 194.96C1041.99 193.993 1039.57 193.027 1037.16 193.027C1022.67 193.027 1005.76 211.384 999.961 233.605C995.131 251.478 998.995 266.936 1008.66 272.25L995.614 264.521C985.952 259.69 982.088 244.232 986.436 225.876C991.749 203.172 1008.17 184.815 1023.15 184.815Z" fill="#17171A"/>
<path fill-rule="evenodd" clip-rule="evenodd" d="M1036.67 193.028C1051.16 193.028 1058.89 211.384 1053.09 233.605C1047.3 255.826 1030.87 274.183 1015.9 274.183C1001.41 274.183 993.677 255.826 999.474 233.605C1005.27 211.384 1022.18 193.028 1036.67 193.028Z" fill="#505253"/>
<path fill-rule="evenodd" clip-rule="evenodd" d="M1034.26 207.037C1044.4 207.037 1049.23 219.114 1045.37 234.572C1041.5 249.547 1030.39 262.107 1020.25 262.107C1010.1 262.107 1005.27 250.03 1009.14 234.572C1013 219.597 1024.59 207.037 1034.26 207.037Z" fill="#CCD1D0"/>
<path fill-rule="evenodd" clip-rule="evenodd" d="M1034.26 207.037H1034.74C1041.99 209.453 1045.37 220.563 1041.99 233.123C1038.12 248.098 1027.01 259.691 1017.35 259.691C1015.42 259.691 1013.97 259.208 1012.52 258.725C1008.17 253.895 1006.24 245.199 1009.14 234.572C1013 219.597 1024.6 207.037 1034.26 207.037Z" fill="#7D7E80"/>
<path fill-rule="evenodd" clip-rule="evenodd" d="M1110.1 141.339L1113 145.686C1114.45 150.517 1109.62 181.916 1098.51 193.51L1070.97 212.349L1063.24 214.765L1061.31 192.544L1052.13 179.501L1110.1 141.339Z" fill="#DE8D42"/>
<path fill-rule="evenodd" clip-rule="evenodd" d="M1106.71 103.177C1108.65 115.254 1104.3 126.365 1105.75 134.094L1084.98 148.102L1079.66 145.204C1088.36 124.432 1091.26 115.737 1106.71 103.177Z" fill="white"/>
<path fill-rule="evenodd" clip-rule="evenodd" d="M1105.75 128.78C1105.75 130.713 1105.75 132.645 1106.23 134.094L1085.46 148.103L1080.63 145.205L1105.75 128.78Z" fill="#DA802E"/>
<path fill-rule="evenodd" clip-rule="evenodd" d="M892.718 176.12C850.208 213.799 838.131 233.605 806.249 276.598L809.63 279.013C831.368 265.487 1014.45 151.001 1019.76 146.17C1025.56 140.857 1028.94 134.577 1031.36 128.297C1009.14 122.983 995.127 119.119 972.906 129.263C948.27 140.857 916.388 160.662 892.718 176.12Z" fill="#DA802E"/>
<path fill-rule="evenodd" clip-rule="evenodd" d="M921.221 163.561C872.431 194.96 868.083 203.172 829.921 249.063L840.066 257.759L912.042 211.867L921.221 163.561Z" fill="#17171A"/>
<path fill-rule="evenodd" clip-rule="evenodd" d="M932.331 156.797L927.983 201.722L997.062 158.246C999.477 131.678 1001.41 137.957 992.714 127.33C970.493 133.127 951.171 144.72 932.331 156.797Z" fill="#17171A"/>
<path fill-rule="evenodd" clip-rule="evenodd" d="M998.509 126.365L1012.52 145.687C1019.76 139.89 1021.21 139.407 1024.59 132.161C1014.45 128.78 1009.62 127.814 998.509 126.365Z" fill="#17171A"/>
<path fill-rule="evenodd" clip-rule="evenodd" d="M903.829 229.74C908.177 228.291 911.075 229.74 911.075 232.639C911.075 236.02 907.693 239.885 903.829 241.334C899.481 242.783 896.583 241.334 896.583 238.435C896.583 235.054 899.964 231.189 903.829 229.74Z" fill="#F9F5AD"/>
<path fill-rule="evenodd" clip-rule="evenodd" d="M903.828 229.74C907.209 228.291 910.591 229.257 911.074 231.672L896.582 240.367C896.582 239.884 896.099 239.401 896.099 238.918C896.582 235.054 899.963 231.189 903.828 229.74Z" fill="#DA802E"/>
<path fill-rule="evenodd" clip-rule="evenodd" d="M912.044 228.775C915.908 228.775 913.493 232.64 913.493 232.64L895.62 242.784L895.137 239.886L912.044 228.775Z" fill="white"/>
<path fill-rule="evenodd" clip-rule="evenodd" d="M994.163 173.705C998.511 172.256 1001.41 173.705 1001.41 176.603C1001.41 179.985 998.027 183.849 994.163 185.299C989.815 186.748 986.917 185.299 986.917 182.4C986.917 179.019 990.298 175.154 994.163 173.705Z" fill="#F9F5AD"/>
<path fill-rule="evenodd" clip-rule="evenodd" d="M994.163 173.705C997.545 172.256 1000.93 173.222 1001.41 175.637L986.917 184.332C986.917 183.849 986.434 183.366 986.434 182.883C986.917 179.019 990.299 175.154 994.163 173.705Z" fill="#DA802E"/>
<path fill-rule="evenodd" clip-rule="evenodd" d="M1002.37 172.739C1006.24 172.739 1003.82 176.604 1003.82 176.604L985.465 187.231L984.982 184.333L1002.37 172.739Z" fill="white"/>
<path fill-rule="evenodd" clip-rule="evenodd" d="M828.473 252.444C830.888 251.96 849.728 257.757 851.66 259.206C855.041 262.105 853.592 262.105 853.109 265.486C853.109 267.419 850.694 270.317 847.795 270.317C841.999 270.317 833.303 269.351 827.024 268.385L823.642 253.893L828.473 252.444Z" fill="#DA814A"/>
<path fill-rule="evenodd" clip-rule="evenodd" d="M863.732 27.8188L996.575 106.558L1024.11 102.694L894.649 25.4035C887.886 23.4712 871.461 25.8866 863.732 27.8188Z" fill="#17171A"/>
<path fill-rule="evenodd" clip-rule="evenodd" d="M171.677 401.286L188.457 410.875L155.377 434.846L1.00211 342.797C1.00211 306.36 -2.35386 312.113 7.23463 288.622C12.5083 275.198 8.67291 272.321 24.0145 254.583C52.3006 221.982 98.3253 191.778 108.873 180.751C138.118 151.506 147.227 115.07 202.36 76.2365C247.906 44.115 298.245 13.4318 354.818 13.9113C392.213 13.9113 369.68 18.7055 417.622 0.966797C430.087 10.0759 572.956 72.4011 570.559 97.8106C570.079 101.167 562.408 103.084 550.423 104.043L530.287 120.344L196.128 336.085L171.677 401.286Z" fill="#4E89C8"/>
<path fill-rule="evenodd" clip-rule="evenodd" d="M100.722 187.941C104.557 185.065 107.434 182.668 109.351 180.75C138.596 151.505 147.705 115.069 202.839 76.2355C240.234 49.8671 280.506 24.4576 325.572 16.3074L484.741 113.631L362.967 228.213L268.52 289.579L100.722 187.941Z" fill="#64A0D7"/>
<path fill-rule="evenodd" clip-rule="evenodd" d="M312.149 19.1838C326.053 15.8279 339.956 13.9102 354.818 13.9102C364.886 13.9102 370.639 14.3896 374.475 14.3896L539.876 112.672L530.288 120.342L529.329 120.822L468.442 113.151L312.149 19.1838Z" fill="#4376AD"/>
<path fill-rule="evenodd" clip-rule="evenodd" d="M240.712 306.841L196.126 335.606L183.181 370.604L175.51 378.754L131.403 344.236C182.702 296.293 209.55 287.184 274.272 269.925L240.712 306.841Z" fill="#64A0D7"/>
<path fill-rule="evenodd" clip-rule="evenodd" d="M484.741 187.943L515.904 218.626L522.616 221.502V220.543C522.616 213.831 522.616 199.928 518.301 189.86C511.11 176.436 497.686 177.875 484.741 187.943Z" fill="#17171A"/>
<path fill-rule="evenodd" clip-rule="evenodd" d="M223.458 337.524L257.976 371.563L264.688 374.439V373.481C264.209 361.016 265.167 323.141 235.443 331.771C230.649 333.209 226.813 335.127 223.458 337.524Z" fill="#17171A"/>
<path fill-rule="evenodd" clip-rule="evenodd" d="M486.179 184.107C493.371 184.107 502 190.819 507.753 194.175C505.356 192.737 502.959 192.258 500.082 192.258C484.741 192.258 467.961 210.955 461.728 233.968C456.934 252.665 460.77 268.007 470.358 273.76L456.934 265.61C446.866 260.336 443.031 244.515 447.825 225.817C453.578 202.805 470.838 184.107 486.179 184.107Z" fill="#17171A"/>
<path fill-rule="evenodd" clip-rule="evenodd" d="M500.084 192.737C515.425 192.737 522.617 211.435 516.864 234.447C511.11 257.46 493.851 276.157 478.51 276.157C463.168 276.157 455.977 257.46 461.73 234.447C467.962 211.435 484.742 192.737 500.084 192.737Z" fill="#505253"/>
<path fill-rule="evenodd" clip-rule="evenodd" d="M497.687 207.12C508.234 207.12 513.028 219.585 509.193 235.406C505.357 251.227 493.372 263.692 483.304 263.692C472.757 263.692 467.962 251.227 471.798 235.406C475.633 219.585 487.139 207.12 497.687 207.12Z" fill="#CCD1D0"/>
<path fill-rule="evenodd" clip-rule="evenodd" d="M497.688 207.12H498.168C505.838 209.996 508.715 221.023 505.359 233.968C501.524 249.309 490.017 261.774 479.949 261.774C478.032 261.774 476.593 261.295 475.155 260.815C470.361 256.021 468.923 246.433 471.799 235.885C475.635 219.585 487.141 207.12 497.688 207.12Z" fill="#7D7E80"/>
<path fill-rule="evenodd" clip-rule="evenodd" d="M193.249 399.368L192.77 414.71L158.251 433.407L152.978 432.448C152.978 396.012 149.622 401.765 159.21 378.273C164.484 364.849 160.648 361.973 175.99 344.234C204.276 311.633 250.301 281.43 260.848 270.403C290.093 241.158 299.202 204.722 354.336 165.888C399.402 133.767 449.742 103.084 506.314 103.563C543.709 104.042 521.655 108.357 569.118 90.6185C577.269 106.919 568.639 123.219 571.516 133.287L578.707 143.355C580.145 148.15 574.871 180.75 563.845 192.736L523.094 221.501C525.491 141.917 457.892 192.257 453.098 246.911L453.577 263.691L264.204 373.959C263.725 362.452 265.163 323.14 234.959 331.769C208.112 339.44 196.126 375.397 193.249 399.368Z" fill="#4376AD"/>
<path fill-rule="evenodd" clip-rule="evenodd" d="M193.251 399.368L192.771 414.709L158.253 433.407L152.979 432.448C152.979 430.53 152.979 428.613 152.979 426.695C164.485 419.024 183.662 406.08 180.306 397.45C177.43 389.779 164.485 397.45 152.5 405.121C152.5 396.012 153.458 392.656 159.211 378.273C161.129 373.958 161.609 370.602 162.567 367.726C171.676 359.576 181.265 351.425 191.333 343.754C304.957 255.061 421.936 192.736 557.134 110.275L569.599 91.0977C577.27 107.398 569.12 123.219 571.996 133.287L579.188 143.355C580.626 148.149 575.352 180.75 564.325 192.736L523.095 221.501C525.492 141.917 457.893 192.256 453.099 246.911L453.578 263.691L264.205 373.958C263.726 362.452 265.164 323.139 234.961 331.769C208.113 339.44 196.127 375.397 193.251 399.368Z" fill="#325981"/>
<path fill-rule="evenodd" clip-rule="evenodd" d="M575.83 139.041L579.185 143.356C580.624 148.15 575.35 180.751 564.323 192.736L536.037 211.913L527.887 214.311L525.969 191.298L516.381 177.874L575.83 139.041Z" fill="#4376AD"/>
<path fill-rule="evenodd" clip-rule="evenodd" d="M572.479 99.7274C574.876 112.192 570.081 123.699 571.52 131.849L549.946 146.232L544.672 143.355C553.781 121.302 556.658 112.672 572.479 99.7274Z" fill="white"/>
<path fill-rule="evenodd" clip-rule="evenodd" d="M571.04 126.097C571.04 128.015 571.04 129.933 571.52 131.851L549.946 146.233L544.672 143.357L571.04 126.097Z" fill="#904981"/>
<path fill-rule="evenodd" clip-rule="evenodd" d="M193.251 399.369L192.771 414.711L158.253 433.408L152.979 432.449C152.979 423.34 152.5 417.108 152.5 412.313C204.757 373.959 181.744 404.643 193.73 370.603C201.401 349.029 238.317 289.581 270.917 345.194L448.305 235.406C448.305 235.406 485.7 141.438 520.698 174.039C527.41 180.272 529.807 194.655 531.245 202.805L574.393 173.08C571.996 180.751 568.64 188.422 564.325 193.216L523.095 221.502C525.492 141.918 457.893 192.257 453.099 246.912L453.578 263.692L264.205 373.959C263.726 362.453 265.164 323.14 234.961 331.77C208.113 339.441 196.127 375.398 193.251 399.369Z" fill="#1D334F"/>
<path fill-rule="evenodd" clip-rule="evenodd" d="M351.46 174.997C307.353 213.83 295.367 234.446 262.287 278.553L265.643 281.429C288.176 267.526 477.069 149.108 482.822 144.314C489.055 139.04 491.931 132.328 494.808 125.616C471.795 120.343 457.412 116.028 434.88 126.575C408.991 138.561 375.91 158.697 351.46 174.997Z" fill="#1D334F"/>
<path fill-rule="evenodd" clip-rule="evenodd" d="M381.188 161.574C330.849 193.696 326.055 202.325 287.221 249.788L297.769 258.898L371.6 211.914L381.188 161.574Z" fill="#17171A"/>
<path fill-rule="evenodd" clip-rule="evenodd" d="M392.211 154.862L387.896 200.887L458.851 156.3C461.248 128.973 463.166 135.685 454.536 124.658C432.004 130.411 411.868 142.397 392.211 154.862Z" fill="#17171A"/>
<path fill-rule="evenodd" clip-rule="evenodd" d="M460.771 123.7L475.154 143.836C482.345 138.083 483.783 137.604 487.619 129.933C477.071 126.097 472.277 124.659 460.771 123.7Z" fill="#17171A"/>
<path fill-rule="evenodd" clip-rule="evenodd" d="M362.97 230.132C367.285 228.693 370.641 230.132 370.641 233.488C370.641 236.844 367.285 240.679 362.97 242.597C358.655 244.035 355.299 242.597 355.299 239.241C355.299 235.885 358.655 232.049 362.97 230.132Z" fill="#4376AD"/>
<path fill-rule="evenodd" clip-rule="evenodd" d="M362.97 230.133C366.806 228.694 369.682 229.653 370.641 232.05L355.779 240.68C355.779 240.201 355.299 239.721 355.299 238.762C355.299 235.886 358.655 232.05 362.97 230.133Z" fill="#1D334F"/>
<path fill-rule="evenodd" clip-rule="evenodd" d="M371.596 229.172C375.911 229.172 373.034 233.007 373.034 233.007L354.337 244.034L353.857 240.678L371.596 229.172Z" fill="white"/>
<path fill-rule="evenodd" clip-rule="evenodd" d="M456.457 172.122C460.772 170.684 464.128 172.122 464.128 175.478C464.128 178.834 460.772 182.669 456.457 184.587C452.143 186.025 448.787 184.587 448.787 181.231C448.787 177.875 452.143 174.04 456.457 172.122Z" fill="#4376AD"/>
<path fill-rule="evenodd" clip-rule="evenodd" d="M456.458 172.123C460.293 170.684 463.17 171.643 464.129 174.04L448.787 183.149C448.787 182.67 448.308 182.191 448.308 181.232C448.787 177.876 452.143 174.04 456.458 172.123Z" fill="#1D334F"/>
<path fill-rule="evenodd" clip-rule="evenodd" d="M464.604 171.162C468.919 171.162 466.042 174.997 466.042 174.997L447.345 186.024L446.865 182.668L464.604 171.162Z" fill="white"/>
<path fill-rule="evenodd" clip-rule="evenodd" d="M186.062 100.688L320.781 181.711C293.453 212.873 266.126 254.104 248.387 269.445L114.148 189.381C140.037 159.657 157.776 129.933 186.062 100.688Z" fill="#17171A"/>
<path fill-rule="evenodd" clip-rule="evenodd" d="M285.299 253.623C287.696 253.144 307.353 258.897 309.27 260.815C313.106 263.691 311.188 263.691 310.709 267.047C310.709 268.965 308.312 271.841 305.435 272.321C299.202 272.321 290.573 271.362 283.861 270.403L280.505 255.541L285.299 253.623Z" fill="#17171A"/>
<path fill-rule="evenodd" clip-rule="evenodd" d="M321.738 22.0609L458.854 103.563L487.619 99.2483L353.38 19.1843C346.668 17.7461 329.409 20.1432 321.738 22.0609Z" fill="#17171A"/>
<path fill-rule="evenodd" clip-rule="evenodd" d="M496.727 207.599C506.315 207.599 510.63 220.064 506.315 234.926C502.001 250.268 490.494 262.253 480.906 262.253C471.317 262.253 467.002 249.788 471.317 234.926C476.112 219.585 487.138 207.599 496.727 207.599ZM496.247 233.488C496.247 233.967 496.247 234.447 495.768 234.926C495.768 235.406 495.289 235.885 495.289 236.844L496.247 237.323L502.959 239.72C503.439 238.282 503.918 236.844 504.398 234.926C504.877 233.488 505.357 232.05 505.357 230.611L497.206 233.009L496.247 233.488ZM505.836 219.105C504.877 215.27 502.959 212.393 500.083 210.955L494.809 222.941L493.85 224.858C494.809 225.338 495.768 226.776 496.247 228.214L497.686 227.255L505.836 219.105ZM482.344 236.844C482.344 236.364 482.344 235.885 482.824 234.926C482.824 234.447 483.303 233.967 483.303 233.488L482.344 233.009L475.153 230.611C474.673 232.05 474.194 233.488 473.714 234.926C473.235 236.364 472.756 238.282 472.756 239.72L480.906 237.323L482.344 236.844ZM472.756 250.747C473.714 254.583 475.632 257.459 478.509 258.897L483.782 246.912L484.741 244.994C483.782 244.515 482.824 243.556 482.344 241.638L480.906 243.076L472.756 250.747ZM481.385 219.105L485.221 226.776L485.7 227.735C487.138 226.297 488.577 224.858 490.015 224.379V222.461L491.453 210.476C488.097 212.393 484.741 215.27 481.385 219.105ZM496.727 250.747L492.891 243.076L492.412 241.638C490.974 243.076 489.535 244.035 488.577 244.994L488.097 246.912L486.659 258.897C490.015 257.459 493.371 254.583 496.727 250.747Z" fill="white"/>
<path fill-rule="evenodd" clip-rule="evenodd" d="M404.238 197.29C401.361 204.481 438.757 219.823 418.141 194.893C410.471 185.304 404.717 196.811 404.238 197.29Z" fill="#791616"/>
<path fill-rule="evenodd" clip-rule="evenodd" d="M310.269 347.832C309.79 347.832 309.79 347.832 309.31 348.311C306.434 342.078 300.681 332.969 305.954 321.943C305.954 321.463 366.841 243.796 382.662 231.811L399.922 220.784C416.222 207.36 461.288 144.555 500.121 118.667C507.792 113.872 505.395 118.667 508.272 109.557C529.366 98.5307 547.105 89.4216 570.117 81.2714L644.428 58.7384L650.661 50.5882C671.276 51.5471 664.085 51.547 692.85 37.1643L694.288 38.1232L834.76 122.022L600.801 308.519L482.862 376.597L461.288 419.266L447.864 430.293L310.269 347.832Z" fill="#D77876"/>
<path fill-rule="evenodd" clip-rule="evenodd" d="M568.681 106.201C579.228 100.927 589.776 96.6124 602.241 92.2975L650.183 77.9148L736.48 129.693L686.62 144.555C674.634 148.39 664.087 153.184 654.019 157.979L568.681 106.201Z" fill="#17171A"/>
<path fill-rule="evenodd" clip-rule="evenodd" d="M644.429 58.7365H644.909L650.662 51.0657L800.722 140.718V149.348L798.325 151.265L644.429 58.7365Z" fill="#E19D9C"/>
<path fill-rule="evenodd" clip-rule="evenodd" d="M505.397 116.269C507.315 115.31 506.836 115.79 508.753 109.557L509.233 109.078L650.184 192.977L649.704 205.442L506.836 118.666L505.397 116.269Z" fill="#E19D9C"/>
<path fill-rule="evenodd" clip-rule="evenodd" d="M734.562 62.0929L782.504 90.8584C764.286 100.447 767.163 100.447 748.945 99.488L742.233 107.638L665.525 130.651C642.033 138.801 623.815 148.389 602.241 159.896C599.364 169.484 601.761 164.21 594.09 169.484C554.298 195.852 507.315 260.575 491.014 274.478L473.275 285.984C456.496 297.97 394.17 378.034 394.17 378.513C391.294 384.746 391.773 390.499 393.211 395.293L353.899 371.801C353.419 371.801 353.419 371.801 352.94 372.281C350.063 366.048 344.31 356.939 349.584 345.912C349.584 345.433 410.471 267.766 426.292 255.78L443.551 244.754C459.852 231.33 504.917 168.525 543.751 142.636C551.422 137.842 549.025 142.636 551.901 133.527C572.996 122.5 590.734 113.391 613.747 105.241L688.058 82.7082L694.29 74.5579C714.905 75.0374 708.673 75.5168 734.562 62.0929Z" fill="#911B1F"/>
<path fill-rule="evenodd" clip-rule="evenodd" d="M743.669 106.679L742.231 107.638L731.684 110.994L685.18 83.667L688.056 82.7081L693.33 76.4756L743.669 106.679Z" fill="#BE4B47"/>
<path fill-rule="evenodd" clip-rule="evenodd" d="M601.283 163.73C599.844 167.566 600.324 165.169 594.091 169.483C593.612 169.963 593.132 170.442 592.653 170.442L545.19 141.677C550.943 137.841 549.505 141.677 551.902 134.485L601.283 163.73Z" fill="#BE4B47"/>
<path fill-rule="evenodd" clip-rule="evenodd" d="M404.238 217.427C422.935 198.73 464.645 142.637 500.602 119.145C505.396 115.789 506.355 116.748 506.835 115.31L669.36 212.633L544.23 301.327L477.59 315.23L397.046 259.137L397.526 253.864L404.238 217.427Z" fill="#DC8C8C"/>
<path fill-rule="evenodd" clip-rule="evenodd" d="M310.269 347.831C309.79 347.831 309.79 347.831 309.31 348.31C306.434 342.078 300.681 333.448 305.954 321.942L461.288 414.471L458.891 421.183L447.864 430.292L310.269 347.831Z" fill="#505253"/>
<path fill-rule="evenodd" clip-rule="evenodd" d="M675.115 34.2872L669.362 50.5876C672.239 49.6288 675.595 47.7111 681.827 44.3551L682.786 29.4929L675.115 34.2872Z" fill="#AD2325"/>
<path fill-rule="evenodd" clip-rule="evenodd" d="M811.272 155.101L826.134 174.757L819.422 215.029L797.848 201.605L791.136 151.745L811.272 155.101Z" fill="#17171A"/>
<path fill-rule="evenodd" clip-rule="evenodd" d="M546.628 305.162H547.587L539.437 319.065L557.655 350.707L571.558 359.337L583.544 327.216L555.258 306.121L546.628 305.162Z" fill="#17171A"/>
<path fill-rule="evenodd" clip-rule="evenodd" d="M792.093 156.061C795.928 158.458 799.764 160.855 802.64 162.773C800.243 161.334 797.367 160.855 794.49 160.855C778.19 160.855 759.492 180.991 752.78 206.4C747.507 226.536 751.821 243.796 762.369 249.549L747.507 240.919C739.356 236.604 735.042 226.536 735.042 213.112L762.369 176.197L778.669 162.773L792.093 156.061Z" fill="#17171A"/>
<path fill-rule="evenodd" clip-rule="evenodd" d="M794.49 160.854C810.791 160.854 819.42 180.99 812.708 206.4C806.476 231.33 787.778 251.945 770.998 251.945C754.698 251.945 746.068 231.809 752.78 206.4C759.013 180.99 777.71 160.854 794.49 160.854Z" fill="#505253"/>
<path fill-rule="evenodd" clip-rule="evenodd" d="M792.573 173.32C805.038 173.32 811.271 188.662 806.476 207.839C801.682 227.016 787.299 242.357 774.834 242.357C762.369 242.357 756.137 227.016 760.931 207.839C766.205 188.662 780.108 173.32 792.573 173.32Z" fill="#CCD1D0"/>
<path fill-rule="evenodd" clip-rule="evenodd" d="M792.574 173.32H793.054C802.163 176.676 805.998 190.1 802.163 205.921C797.368 224.619 783.944 239.481 771.479 239.481C769.082 239.481 767.165 239.001 765.247 238.042C759.494 232.289 757.576 220.783 760.932 207.839C766.206 188.662 780.109 173.32 792.574 173.32Z" fill="#17171A"/>
<path fill-rule="evenodd" clip-rule="evenodd" d="M780.106 176.676C792.091 168.046 802.639 174.279 803.598 190.579C804.556 206.88 794.968 227.495 782.982 236.125C770.997 244.754 760.449 238.522 759.49 222.221C758.532 205.442 768.12 185.306 780.106 176.676ZM797.844 185.785C790.174 191.538 783.941 200.168 783.941 204.483C783.941 209.277 790.653 208.798 798.803 203.044C799.283 199.689 799.762 196.333 799.762 193.456C799.283 190.579 798.324 188.182 797.844 185.785ZM789.215 224.139C788.735 213.592 785.379 206.88 782.023 209.277C778.667 211.674 776.27 222.701 776.27 233.248C778.188 232.769 780.585 231.81 782.982 230.372C784.9 228.454 787.297 226.536 789.215 224.139ZM765.244 227.016C772.914 221.263 779.147 212.633 779.147 208.318C779.147 203.524 772.435 204.003 764.764 209.756C764.285 213.112 763.805 216.468 763.805 219.345C763.805 222.221 764.764 224.619 765.244 227.016ZM773.873 188.662C774.353 199.209 777.709 205.442 781.065 203.044C784.421 200.647 786.818 190.1 786.818 179.553C784.9 180.032 782.503 180.991 780.106 182.429C778.188 183.867 775.791 186.265 773.873 188.662Z" fill="white"/>
<path fill-rule="evenodd" clip-rule="evenodd" d="M541.832 306.12C545.668 308.038 549.024 310.435 551.9 312.353C549.503 310.914 547.106 310.435 544.23 310.435C528.888 310.435 511.149 329.612 505.396 353.104C500.602 371.801 504.437 388.102 514.505 393.375L500.602 385.225C493.411 381.39 489.096 371.801 489.096 359.336L514.985 324.818L529.847 312.353L541.832 306.12Z" fill="#17171A"/>
<path fill-rule="evenodd" clip-rule="evenodd" d="M543.75 310.436C559.092 310.436 566.763 329.613 561.01 353.105C554.777 376.597 537.518 395.774 522.176 395.774C506.835 395.774 499.164 376.597 504.917 353.105C511.149 329.613 528.409 310.436 543.75 310.436Z" fill="#505253"/>
<path fill-rule="evenodd" clip-rule="evenodd" d="M542.312 321.942C553.818 321.942 559.571 336.325 555.256 354.064C550.941 371.803 537.518 386.185 526.011 386.185C514.505 386.185 508.752 371.803 513.067 354.064C517.382 336.325 530.806 321.942 542.312 321.942Z" fill="#CCD1D0"/>
<path fill-rule="evenodd" clip-rule="evenodd" d="M542.314 321.942H542.794C551.423 324.819 554.779 337.284 550.944 352.626C546.629 369.885 533.685 383.788 522.178 383.788C520.261 383.788 518.343 383.309 516.425 382.35C511.152 377.076 509.234 366.529 512.59 354.064C517.384 336.325 530.808 321.942 542.314 321.942Z" fill="#17171A"/>
<path fill-rule="evenodd" clip-rule="evenodd" d="M530.808 325.298C542.314 317.148 551.903 322.901 552.861 338.722C553.341 354.063 544.711 373.24 533.684 381.391C522.178 389.541 512.59 383.788 511.631 367.967C510.672 352.146 519.302 332.969 530.808 325.298ZM547.108 333.928C539.917 339.201 534.164 347.351 534.164 351.666C534.164 355.981 540.396 355.502 548.067 350.228C548.547 347.351 549.026 343.995 549.026 341.119C548.547 338.242 548.067 335.845 547.108 333.928ZM538.958 369.405C538.479 359.337 535.602 353.105 532.246 355.502C528.89 357.899 526.493 367.967 526.972 378.035C528.89 377.555 530.808 376.596 533.205 375.158C535.123 373.72 537.04 371.802 538.958 369.405ZM516.905 372.282C524.096 367.008 529.849 358.858 529.849 354.543C529.849 350.228 523.616 350.707 516.425 355.981C515.946 358.858 515.466 362.214 515.466 365.09C515.466 367.487 515.946 370.364 516.905 372.282ZM525.055 336.325C525.534 346.393 528.89 352.146 531.767 349.749C535.123 347.351 537.52 337.763 537.04 327.695C535.123 328.174 533.205 329.133 530.808 330.572C528.89 332.01 526.972 333.928 525.055 336.325Z" fill="white"/>
<path fill-rule="evenodd" clip-rule="evenodd" d="M745.111 257.219C687.101 290.778 629.091 324.338 571.56 358.377V342.556C571.56 317.147 554.78 304.682 534.165 314.75C513.549 324.818 496.769 353.583 496.769 378.993V402.484C480.469 412.073 464.648 421.661 448.348 431.25C445.471 425.017 439.718 416.388 444.992 404.881C444.992 404.402 505.879 326.735 521.7 314.75L538.959 303.723C555.259 289.82 600.805 227.015 639.638 201.126C647.309 196.332 644.912 201.126 647.788 192.017C668.883 180.99 686.622 171.881 709.634 163.731L783.945 141.198L790.177 133.048C810.793 134.007 803.601 134.007 832.367 119.624L836.202 122.98V166.607L820.861 212.632L819.902 213.112V188.182C819.902 162.772 803.122 150.307 782.507 160.375C761.891 170.922 745.111 200.167 745.111 225.097V257.219Z" fill="#CE3D3D"/>
<path fill-rule="evenodd" clip-rule="evenodd" d="M745.112 257.22C687.101 290.779 629.091 324.339 571.56 358.378V342.557C571.56 329.613 567.245 320.024 560.054 315.23L729.291 188.182C746.55 180.032 727.852 195.853 761.892 169.964C774.836 159.896 783.945 155.582 799.766 155.582L832.846 121.063L835.723 123.46V134.487L818.943 214.071V189.141C818.943 163.732 802.163 151.267 781.548 161.335C761.892 170.923 745.112 200.168 745.112 225.098V257.22Z" fill="#D77673"/>
<path fill-rule="evenodd" clip-rule="evenodd" d="M745.108 257.219C687.097 290.779 629.087 324.339 571.556 358.378V342.557C571.556 332.489 568.68 324.339 564.365 319.065L732.163 192.017L754.696 190.579C748.943 201.606 745.108 214.071 745.108 225.577V257.219Z" fill="#AD2325"/>
<path fill-rule="evenodd" clip-rule="evenodd" d="M745.108 257.22C687.098 290.78 629.087 324.34 571.556 358.379V351.187L745.108 250.508V257.22ZM497.246 376.117C497.246 377.076 497.246 377.556 497.246 378.515V402.006C486.698 408.239 476.151 414.471 466.083 420.704L469.918 402.006L497.246 376.117ZM829.487 188.183L820.857 213.113L819.898 213.592V188.662C819.898 188.183 819.898 187.224 819.898 186.745L829.487 188.183Z" fill="#17171A"/>
<path fill-rule="evenodd" clip-rule="evenodd" d="M538.958 303.723C555.258 289.82 600.803 227.015 639.637 201.126C647.308 196.332 644.91 201.126 647.787 192.017C668.882 180.99 686.62 171.881 709.633 163.731L783.944 141.198L780.108 145.992L576.353 286.464C563.408 294.614 555.737 294.135 538.958 303.723Z" fill="#D25D5D"/>
<path fill-rule="evenodd" clip-rule="evenodd" d="M731.684 179.074L576.35 286.465C570.118 290.78 564.844 292.698 559.091 294.615C616.622 219.346 633.881 192.018 729.766 172.362L731.684 179.074Z" fill="#791616"/>
<path fill-rule="evenodd" clip-rule="evenodd" d="M728.808 181.47L578.748 285.026L575.392 283.588C616.623 223.66 646.347 187.703 727.37 176.197L728.808 181.47Z" fill="#17171A"/>
<path fill-rule="evenodd" clip-rule="evenodd" d="M729.77 180.991L675.115 218.866V189.141C690.457 182.909 707.716 178.594 728.811 175.717L729.77 180.991Z" fill="#AD2325"/>
<path fill-rule="evenodd" clip-rule="evenodd" d="M485.263 409.197C473.277 416.389 460.812 423.58 448.827 430.771C445.95 424.539 440.197 415.909 445.471 404.403C471.839 390.5 470.401 390.02 485.263 409.197Z" fill="#17171A"/>
<path fill-rule="evenodd" clip-rule="evenodd" d="M731.686 238.041L699.565 263.93V271.122L732.166 252.424L731.686 238.041Z" fill="#791616"/>
<path fill-rule="evenodd" clip-rule="evenodd" d="M719.701 247.631L699.565 263.931V271.123L720.18 259.137L719.701 247.631Z" fill="#17171A"/>
<path fill-rule="evenodd" clip-rule="evenodd" d="M593.613 287.903C591.695 295.574 552.382 285.506 584.024 277.835C595.051 274.959 593.613 287.424 593.613 287.903Z" fill="#791616"/>
<path fill-rule="evenodd" clip-rule="evenodd" d="M693.333 4.56152L670.32 16.0677V37.6418L693.333 23.2591V4.56152Z" fill="#CB2629"/>
<path fill-rule="evenodd" clip-rule="evenodd" d="M813.665 111.473L674.152 28.5327L688.056 19.4236L821.336 99.0081L813.665 111.473Z" fill="#911B1F"/>
<path fill-rule="evenodd" clip-rule="evenodd" d="M457.453 181.95C461.768 178.114 466.083 174.279 470.397 170.443L580.186 236.125C569.638 248.59 557.653 261.534 544.229 273.52C479.986 332.489 408.552 359.816 384.58 334.407C360.609 308.997 393.21 240.439 457.453 181.95Z" fill="#CE3D3D"/>
<path fill-rule="evenodd" clip-rule="evenodd" d="M500.122 131.13C504.437 126.815 509.231 122.98 513.546 119.145L629.566 188.661C618.54 202.085 606.075 215.509 591.692 228.453C524.093 290.299 448.823 319.065 423.414 292.217C398.004 265.369 432.523 192.976 500.122 131.13Z" fill="#17171A"/>
<path fill-rule="evenodd" clip-rule="evenodd" d="M341.434 331.531C330.887 326.736 319.381 313.312 323.216 307.559C308.833 321.942 317.942 324.339 338.078 335.845L341.434 331.531Z" fill="#F9ED41"/>
<path fill-rule="evenodd" clip-rule="evenodd" d="M423.894 378.515C432.524 385.227 451.222 388.104 456.495 382.351C444.989 400.569 439.236 394.816 420.059 382.83L423.894 378.515Z" fill="#F9ED41"/>
<path fill-rule="evenodd" clip-rule="evenodd" d="M325.615 306.12C356.777 367.486 377.393 271.601 354.38 271.601C353.901 271.601 353.421 271.601 352.942 271.601L325.615 306.12Z" fill="white"/>
<path fill-rule="evenodd" clip-rule="evenodd" d="M457.935 379.473C379.789 385.705 482.386 320.503 486.221 342.078C486.221 342.557 486.221 343.036 486.701 343.036L457.935 379.473Z" fill="white"/>
<path fill-rule="evenodd" clip-rule="evenodd" d="M681.823 191.538C682.782 191.058 683.741 191.538 683.741 192.976V204.482C683.741 205.92 682.782 207.359 681.823 207.838C680.864 208.317 679.905 207.838 679.905 206.4V194.894C679.905 193.455 680.864 192.017 681.823 191.538Z" fill="#80161A"/>
<path fill-rule="evenodd" clip-rule="evenodd" d="M688.535 190.101C689.494 189.621 690.453 190.101 690.453 191.539V201.607C690.453 203.045 689.494 204.004 688.535 204.483C687.576 204.963 686.617 204.483 686.617 203.045V192.977C686.617 191.539 687.576 190.58 688.535 190.101Z" fill="#80161A"/>
<path fill-rule="evenodd" clip-rule="evenodd" d="M693.813 188.662C694.772 188.182 695.252 188.662 695.252 189.621V197.771C695.252 198.73 694.772 199.688 693.813 200.168C692.854 200.647 692.375 200.168 692.375 199.209V191.059C692.375 190.1 693.334 189.141 693.813 188.662Z" fill="#80161A"/>
<path fill-rule="evenodd" clip-rule="evenodd" d="M677.272 167.424C676.306 165.492 662.78 156.314 660.848 156.314C657.466 155.831 658.432 157.28 656.5 159.695C655.534 161.144 655.051 165.009 656.5 166.941C659.882 171.289 664.712 176.602 669.06 179.984L678.721 172.255L677.272 167.424Z" fill="#DA814A"/>
<path fill-rule="evenodd" clip-rule="evenodd" d="M718.33 395.433L734.755 405.094L702.872 428.281L553.122 338.914C553.122 303.65 549.741 309.447 558.919 286.26C564.233 273.217 560.368 270.319 575.343 253.412C602.395 222.012 647.32 192.545 657.947 181.918C686.448 153.417 695.143 118.154 748.28 80.4745C792.239 49.5584 841.029 19.6084 895.615 20.0914C931.845 20.5745 910.107 24.9221 956.481 7.53174C968.558 16.71 1107.2 76.61 1104.78 101.246C1104.3 104.628 1097.05 106.56 1085.46 107.526L1065.65 123.467L742.001 332.151L718.33 395.433Z" fill="#F8F297"/>
<path fill-rule="evenodd" clip-rule="evenodd" d="M649.737 189.163C653.601 186.265 656.5 183.85 657.949 181.917C686.45 153.417 695.145 118.153 748.282 80.4738C784.512 54.8714 824.123 30.2351 867.599 22.5061L1022.18 116.704L904.312 227.809L812.53 286.742L649.737 189.163Z" fill="#FDF9BD"/>
<path fill-rule="evenodd" clip-rule="evenodd" d="M718.33 395.433L723.161 398.332L722.678 413.79L702.872 428.282L553.122 338.915C553.122 303.651 549.741 309.448 558.919 286.261C559.402 284.812 559.885 283.846 560.368 282.396L722.678 383.357L718.33 395.433Z" fill="#DE8D42"/>
<path fill-rule="evenodd" clip-rule="evenodd" d="M553.121 330.218C553.121 320.556 552.638 314.76 552.638 310.412L707.702 402.194L708.185 422.483L553.121 330.218Z" fill="#A26025"/>
<path fill-rule="evenodd" clip-rule="evenodd" d="M569.548 320.558L687.899 390.602L675.823 398.331L573.896 337.948L569.548 320.558Z" fill="#17171A"/>
<path fill-rule="evenodd" clip-rule="evenodd" d="M785.477 304.131L742.001 332.149L729.441 365.963L722.195 373.692L679.686 340.361C729.441 293.987 755.044 284.809 818.325 267.901L785.477 304.131Z" fill="#F1ED82"/>
<path fill-rule="evenodd" clip-rule="evenodd" d="M560.37 283.844C564.235 273.217 561.819 269.352 575.828 253.411C599.981 225.393 638.627 198.825 653.602 185.782C617.855 225.876 598.049 252.928 578.727 295.438L560.37 283.844Z" fill="#F1ED82"/>
<path fill-rule="evenodd" clip-rule="evenodd" d="M569.548 297.852L577.277 285.292L700.459 358.235L685.967 366.93L569.548 297.852Z" fill="#F0C934"/>
<path fill-rule="evenodd" clip-rule="evenodd" d="M720.748 387.703L717.367 362.1L681.62 340.362L663.746 353.888L720.748 387.703ZM557.472 290.124C557.955 288.674 558.438 287.708 558.921 286.259C561.82 279.496 561.82 275.149 563.752 270.318L585.007 283.361L587.422 309.446L557.472 290.124Z" fill="white"/>
<path fill-rule="evenodd" clip-rule="evenodd" d="M768.573 333.6L801.904 366.448L808.184 369.347V368.38C807.701 356.304 808.667 319.591 779.683 327.803C775.819 329.252 771.954 331.184 768.573 333.6Z" fill="#17171A"/>
<path fill-rule="evenodd" clip-rule="evenodd" d="M771.953 330.217C779.199 330.217 787.411 336.497 793.207 340.362C790.792 339.395 788.377 338.429 785.961 338.429C771.47 338.429 754.562 356.786 748.766 379.007C743.935 396.88 747.799 412.338 757.461 417.652L744.418 409.923C734.757 405.092 730.892 389.634 735.24 371.278C740.553 348.091 757.461 330.217 771.953 330.217Z" fill="#17171A"/>
<path fill-rule="evenodd" clip-rule="evenodd" d="M785.478 338.43C799.97 338.43 807.699 356.787 801.903 379.008C796.106 401.229 779.682 419.585 764.707 419.585C750.215 419.585 742.486 401.229 748.282 379.008C754.079 356.304 770.987 338.43 785.478 338.43Z" fill="#505253"/>
<path fill-rule="evenodd" clip-rule="evenodd" d="M783.059 352.439C793.203 352.439 798.034 364.516 794.17 379.974C790.305 394.949 779.195 407.509 769.05 407.509C758.906 407.509 754.075 395.432 757.94 379.974C761.804 364.516 773.398 352.439 783.059 352.439Z" fill="#CCD1D0"/>
<path fill-rule="evenodd" clip-rule="evenodd" d="M783.062 352.439H783.545C790.791 354.855 794.172 365.965 790.791 378.525C786.926 393.5 775.816 405.093 766.155 405.093C764.222 405.093 762.773 404.61 761.324 404.127C756.976 399.296 755.044 390.601 757.943 379.974C761.807 364.516 773.401 352.439 783.062 352.439Z" fill="#7D7E80"/>
<path fill-rule="evenodd" clip-rule="evenodd" d="M739.106 393.499L738.623 408.474L705.292 426.83L700.461 425.864C700.461 390.6 697.08 396.397 706.258 373.21C711.572 360.167 707.707 357.269 722.682 340.362C749.734 308.963 794.659 279.496 805.286 268.868C833.787 240.367 842.482 205.104 895.619 167.425C939.578 136.508 987.885 106.558 1042.95 107.041C1079.18 107.525 1057.45 111.872 1103.82 94.4818C1112.03 110.423 1103.34 125.881 1106.24 136.025L1113 146.17C1114.45 151 1109.62 182.4 1098.51 193.993L1058.41 221.528C1060.83 144.237 995.614 193.51 990.3 246.164L990.783 262.588L808.185 368.863C807.701 357.752 809.151 319.59 779.684 327.802C753.598 335.531 742.005 370.312 739.106 393.499Z" fill="#F4EC58"/>
<path fill-rule="evenodd" clip-rule="evenodd" d="M739.1 393.5L738.617 408.475L705.286 426.831L700.455 425.865C700.455 423.933 700.455 422.001 700.455 420.069C711.566 412.823 729.922 400.263 727.024 391.568C724.125 384.322 711.566 391.568 699.972 398.814C699.972 390.119 700.938 386.737 706.735 372.728C708.667 368.381 709.15 365.482 710.117 362.584C718.812 354.372 727.99 346.643 738.134 338.914C847.307 253.894 961.31 193.511 1091.74 113.806L1103.81 94.9661C1111.54 110.907 1103.33 125.882 1106.23 136.027L1112.99 146.171C1114.44 151.002 1109.61 182.401 1098.5 193.994L1058.41 221.529C1060.82 144.239 995.608 193.511 990.294 246.165L990.777 262.589L808.179 368.864C807.696 357.753 809.145 319.591 779.678 327.803C753.592 335.532 741.999 370.313 739.1 393.5Z" fill="#F0C934"/>
<path fill-rule="evenodd" clip-rule="evenodd" d="M1015.41 193.995C1003.34 206.071 992.709 225.877 990.777 245.683L991.26 258.242L814.942 353.889L803.348 337.948C801.899 335.533 800.45 333.117 798.518 331.185L795.619 327.32L1015.41 193.995Z" fill="white"/>
<path fill-rule="evenodd" clip-rule="evenodd" d="M739.1 393.499L738.617 408.474L705.286 426.83L700.455 425.864C700.455 417.169 699.972 410.889 699.972 406.542C750.211 369.346 727.99 398.813 740.067 366.447C747.796 345.675 783.059 287.708 814.942 341.811L986.912 235.537C986.912 235.537 1023.14 144.238 1056.96 176.12C1063.24 181.917 1065.65 196.408 1067.1 203.654L1108.64 175.154C1106.23 182.883 1102.85 190.129 1098.98 194.476L1058.89 222.011C1061.3 144.721 996.091 193.993 990.777 246.647L991.26 263.071L808.179 368.863C807.696 357.752 809.145 319.59 779.678 327.802C753.592 335.531 741.999 370.312 739.1 393.499Z" fill="#D7742D"/>
<path fill-rule="evenodd" clip-rule="evenodd" d="M703.838 379.49C704.321 377.558 705.287 375.626 706.253 373.211C708.185 368.863 708.669 365.482 709.635 362.583C716.881 350.023 727.508 341.328 742 333.599C747.314 349.54 713.982 372.244 703.838 379.49Z" fill="#E4E6E6"/>
<path fill-rule="evenodd" clip-rule="evenodd" d="M700.455 418.136C700.455 408.958 699.972 403.161 699.972 398.813L723.159 386.254L729.439 391.084L724.608 400.263L700.455 418.136Z" fill="#804D1C"/>
<path fill-rule="evenodd" clip-rule="evenodd" d="M732.337 104.144L863.247 182.4C836.679 212.833 810.11 252.928 793.203 267.419L662.775 190.129C687.895 161.145 704.802 132.644 732.337 104.144Z" fill="#17171A"/>
<path fill-rule="evenodd" clip-rule="evenodd" d="M732.342 104.144L755.046 117.669L752.148 133.611L676.307 181.917L672.442 178.536C692.731 153.416 708.672 128.78 732.342 104.144Z" fill="#7D7E80"/>
<path fill-rule="evenodd" clip-rule="evenodd" d="M560.372 319.106C562.305 319.106 564.72 322.005 565.686 325.386C566.652 328.768 565.686 331.666 563.754 331.666C561.822 331.666 559.406 328.768 558.44 325.386C557.474 322.005 558.44 319.106 560.372 319.106Z" fill="white"/>
<path fill-rule="evenodd" clip-rule="evenodd" d="M690.796 396.397C692.729 396.397 695.144 399.295 696.11 402.677C697.076 406.058 696.11 408.957 694.178 408.957C692.245 408.957 689.83 406.058 688.864 402.677C687.415 399.295 688.381 396.397 690.796 396.397Z" fill="white"/>
<path fill-rule="evenodd" clip-rule="evenodd" d="M782.581 352.439C791.759 352.439 796.107 364.516 791.759 379.008C787.411 393.5 776.784 405.576 767.123 405.576C757.944 405.576 753.597 393.5 757.944 379.008C762.292 364.516 773.403 352.439 782.581 352.439ZM781.615 377.559C781.615 378.042 781.615 378.525 781.132 379.008C781.132 379.491 780.648 379.974 780.648 380.457L781.615 380.94L788.378 383.355C788.861 381.906 789.344 380.457 789.827 379.008C790.31 377.559 790.793 376.109 790.793 374.66L782.581 377.075L781.615 377.559ZM791.276 364.033C790.31 360.168 788.378 357.27 785.479 355.821L780.165 367.414L779.682 369.346C780.648 369.83 781.615 370.796 782.098 372.728L783.547 371.762L791.276 364.033ZM768.089 380.94C768.089 380.457 768.089 379.974 768.572 379.491C768.572 379.008 769.055 378.525 769.055 378.042L768.089 377.559L761.326 374.66C760.843 376.109 760.36 377.559 759.877 379.008C759.394 380.457 758.911 381.906 758.911 383.355L767.123 380.94H768.089ZM758.911 394.466C759.877 398.33 761.809 401.229 764.707 402.195L769.538 390.601L770.504 388.669C769.538 388.186 768.572 387.22 768.089 385.771L766.64 387.22L758.911 394.466ZM767.606 364.033L771.47 371.279L771.953 372.245C773.403 370.796 774.369 369.83 775.818 368.863V366.931L777.267 355.338C774.369 357.27 770.987 360.168 767.606 364.033ZM782.581 394.466L778.716 387.22L778.233 385.771C777.267 387.22 775.818 388.186 774.369 388.669L773.886 390.601L772.436 402.195C775.818 401.229 779.199 398.33 782.581 394.466Z" fill="white"/>
<path fill-rule="evenodd" clip-rule="evenodd" d="M1033.77 207.52C1042.95 207.52 1047.3 219.596 1042.95 234.088C1038.6 248.58 1027.98 260.657 1018.31 260.657C1009.14 260.657 1004.79 248.58 1009.14 234.088C1013.48 219.596 1024.11 207.52 1033.77 207.52ZM1032.81 232.639C1032.81 233.122 1032.81 233.605 1032.32 234.088C1032.32 234.571 1031.84 235.054 1031.84 235.537L1032.81 236.02L1039.57 238.436C1040.05 236.987 1040.54 235.537 1041.02 234.088C1041.5 232.639 1041.98 231.19 1041.98 229.741L1033.77 232.156L1032.81 232.639ZM1041.98 219.113C1041.02 215.249 1039.09 212.35 1036.19 210.901L1030.87 222.495V224.427C1031.84 224.91 1032.81 225.876 1033.29 227.808L1034.74 226.842L1041.98 219.113ZM1019.28 236.02C1019.28 235.537 1019.28 235.054 1019.76 234.571C1019.76 234.088 1020.25 233.605 1020.25 233.122L1019.28 232.639L1012.52 229.741C1012.03 231.19 1011.55 232.639 1011.07 234.088C1010.59 235.537 1010.1 236.987 1010.1 238.436L1018.31 236.02H1019.28ZM1010.1 249.546C1011.07 253.411 1013 256.309 1015.9 257.275L1020.73 245.682L1021.7 243.749C1020.73 243.266 1019.76 242.3 1019.28 240.851L1017.83 242.3L1010.1 249.546ZM1018.8 219.113L1022.66 226.359L1023.14 227.325C1024.59 225.876 1025.56 224.91 1027.01 223.944V222.012L1028.46 210.418C1025.56 212.35 1021.7 215.249 1018.8 219.113ZM1033.29 249.546L1029.42 242.3L1028.94 240.851C1027.98 242.3 1026.53 243.266 1025.08 243.749L1024.59 245.682L1023.14 257.275C1027.01 256.309 1030.39 253.411 1033.29 249.546Z" fill="white"/>
<path fill-rule="evenodd" clip-rule="evenodd" d="M884.992 294.473V279.981L879.679 282.879V279.981L893.688 271.285V274.184L888.374 277.565V292.057L884.992 294.473ZM910.112 279.015L902.866 265.972L899.001 268.387L892.238 290.125L896.103 287.71L897.552 282.879L904.798 278.531L906.247 281.43L910.112 279.015ZM903.349 276.116L898.518 279.015L900.934 271.285L903.349 276.116ZM910.112 279.015L916.392 265.972L911.078 261.141L915.425 258.726L918.807 261.624L922.188 254.378L926.536 251.963L920.256 263.556L926.536 268.87L922.188 271.285L918.324 267.904L914.459 276.116L910.112 279.015ZM928.468 267.904V250.514L931.85 248.098V265.489L928.468 267.904Z" fill="#17171A"/>
<path fill-rule="evenodd" clip-rule="evenodd" d="M814.463 319.108L821.226 314.76V321.523L814.463 325.871V319.108Z" fill="#17171A"/>
<path fill-rule="evenodd" clip-rule="evenodd" d="M821.223 321.522L827.986 317.657V324.42L821.223 328.285V321.522Z" fill="#17171A"/>
<path fill-rule="evenodd" clip-rule="evenodd" d="M814.463 332.633L821.226 328.286V335.049L814.463 339.396V332.633Z" fill="#17171A"/>
<path fill-rule="evenodd" clip-rule="evenodd" d="M827.508 310.895L834.271 306.548V313.311L827.508 317.658V310.895Z" fill="#17171A"/>
<path fill-rule="evenodd" clip-rule="evenodd" d="M834.267 313.793L841.03 309.445V316.208L834.267 320.073V313.793Z" fill="#17171A"/>
<path fill-rule="evenodd" clip-rule="evenodd" d="M827.508 324.422L834.271 320.074V326.837L827.508 331.185V324.422Z" fill="#17171A"/>
<path fill-rule="evenodd" clip-rule="evenodd" d="M840.546 302.683L847.309 298.336V305.098L840.546 309.446V302.683Z" fill="#17171A"/>
<path fill-rule="evenodd" clip-rule="evenodd" d="M847.311 305.581L854.074 301.234V307.997L847.311 311.861V305.581Z" fill="#17171A"/>
<path fill-rule="evenodd" clip-rule="evenodd" d="M840.546 316.21L847.309 311.862V318.625L840.546 322.973V316.21Z" fill="#17171A"/>
<path fill-rule="evenodd" clip-rule="evenodd" d="M854.075 294.472L860.355 290.124V296.887L854.075 301.235V294.472Z" fill="#17171A"/>
<path fill-rule="evenodd" clip-rule="evenodd" d="M860.354 297.37L867.117 293.022V299.785L860.354 303.649V297.37Z" fill="#17171A"/>
<path fill-rule="evenodd" clip-rule="evenodd" d="M854.075 307.998L860.355 303.651V310.413L854.075 314.761V307.998Z" fill="#17171A"/>
<path fill-rule="evenodd" clip-rule="evenodd" d="M866.146 286.743L872.909 282.395V289.158L866.146 293.506V286.743Z" fill="#17171A"/>
<path fill-rule="evenodd" clip-rule="evenodd" d="M866.146 300.267L872.909 295.919V302.682L866.146 307.029V300.267Z" fill="#17171A"/>
<path fill-rule="evenodd" clip-rule="evenodd" d="M938.612 243.266L944.892 239.401V245.681L938.612 249.546V243.266Z" fill="#17171A"/>
<path fill-rule="evenodd" clip-rule="evenodd" d="M944.893 245.682L951.172 241.817V248.097L944.893 251.961V245.682Z" fill="#17171A"/>
<path fill-rule="evenodd" clip-rule="evenodd" d="M938.612 255.825L944.892 251.96V258.24L938.612 262.105V255.825Z" fill="#17171A"/>
<path fill-rule="evenodd" clip-rule="evenodd" d="M950.684 236.021L956.963 231.673V237.953L950.684 241.818V236.021Z" fill="#17171A"/>
<path fill-rule="evenodd" clip-rule="evenodd" d="M956.964 238.436L963.244 234.571V240.851L956.964 244.716V238.436Z" fill="#17171A"/>
<path fill-rule="evenodd" clip-rule="evenodd" d="M950.684 248.581L956.963 244.716V250.996L950.684 254.861V248.581Z" fill="#17171A"/>
<path fill-rule="evenodd" clip-rule="evenodd" d="M963.245 228.291L969.524 223.943V230.223L963.245 234.088V228.291Z" fill="#17171A"/>
<path fill-rule="evenodd" clip-rule="evenodd" d="M969.524 230.707L975.804 226.842V233.122L969.524 236.987V230.707Z" fill="#17171A"/>
<path fill-rule="evenodd" clip-rule="evenodd" d="M963.245 240.852L969.524 236.987V243.267L963.245 247.132V240.852Z" fill="#17171A"/>
<path fill-rule="evenodd" clip-rule="evenodd" d="M975.81 220.563L981.606 216.698V222.495L975.81 226.842V220.563Z" fill="#17171A"/>
<path fill-rule="evenodd" clip-rule="evenodd" d="M981.601 222.978L987.88 219.113V225.393L981.601 229.258V222.978Z" fill="#17171A"/>
<path fill-rule="evenodd" clip-rule="evenodd" d="M975.81 233.123L981.606 229.258V235.538L975.81 239.403V233.123Z" fill="#17171A"/>
<path fill-rule="evenodd" clip-rule="evenodd" d="M805.768 78.5399L799.005 105.108L838.617 128.779L845.863 102.693L805.768 78.5399Z" fill="#DA802E"/>
<path fill-rule="evenodd" clip-rule="evenodd" d="M838.617 128.781L855.524 119.119L850.693 98.8306L845.863 102.212V102.695L838.617 128.781Z" fill="#BF702A"/>
<path fill-rule="evenodd" clip-rule="evenodd" d="M805.77 78.5413L810.601 74.6768L850.695 98.83V99.313V98.83L845.864 102.211V102.695L805.77 78.5413Z" fill="#E19A5C"/>
<path fill-rule="evenodd" clip-rule="evenodd" d="M807.7 104.144L811.564 91.584L808.666 90.1348L809.632 87.7195L816.878 92.0671L815.912 94.4824L813.496 92.5501L809.632 105.11L807.7 104.144ZM820.742 111.873L821.709 94.9655L819.776 93.9993L811.564 106.559L813.496 107.525L815.429 104.627L819.293 107.042L818.81 110.907L820.742 111.873ZM819.293 103.661L819.776 97.3808L816.878 102.211L819.293 103.661ZM820.742 111.873L826.539 106.076L826.056 97.3808L828.471 98.83L828.955 104.144L832.336 100.762L834.751 102.211L829.438 107.525L829.921 117.186L827.505 115.737L827.022 109.457L823.158 113.322L820.742 111.873ZM830.404 117.669L832.336 118.636L837.167 103.661L835.234 102.694L830.404 117.669Z" fill="#17171A"/>
</svg>
