<svg width="376" height="227" viewBox="0 0 376 227" fill="none" xmlns="http://www.w3.org/2000/svg">
<g opacity="0.1">
<path fill-rule="evenodd" clip-rule="evenodd" d="M361.298 35.5111C363.181 35.5111 363.184 32.5955 361.298 32.5955C359.415 32.5955 359.412 35.5111 361.298 35.5111Z" fill="#1B1625"/>
<path fill-rule="evenodd" clip-rule="evenodd" d="M374.712 146.762C376.595 146.762 376.598 143.846 374.712 143.846C372.83 143.846 372.827 146.762 374.712 146.762Z" fill="#1B1625"/>
<path fill-rule="evenodd" clip-rule="evenodd" d="M249.588 33.015C251.471 33.015 251.474 30.0994 249.588 30.0994C247.706 30.0994 247.703 33.015 249.588 33.015Z" fill="#1B1625"/>
<path fill-rule="evenodd" clip-rule="evenodd" d="M314.984 48.965C316.867 48.965 316.87 46.0493 314.984 46.0493C313.101 46.0493 313.098 48.965 314.984 48.965Z" fill="#1B1625"/>
<path fill-rule="evenodd" clip-rule="evenodd" d="M345.771 226.655C347.654 226.655 347.657 223.739 345.771 223.739C343.888 223.739 343.885 226.655 345.771 226.655Z" fill="#1B1625"/>
<path fill-rule="evenodd" clip-rule="evenodd" d="M82.4205 24.8202C84.3024 24.8202 84.3063 21.9045 82.4205 21.9045C80.5385 21.9045 80.5346 24.8202 82.4205 24.8202Z" fill="#1B1625"/>
<path fill-rule="evenodd" clip-rule="evenodd" d="M131.558 10.4745C133.44 10.4745 133.443 7.55884 131.558 7.55884C129.676 7.55884 129.672 10.4745 131.558 10.4745Z" fill="#1B1625"/>
<path fill-rule="evenodd" clip-rule="evenodd" d="M150.678 31.1381C152.56 31.1381 152.563 28.2224 150.678 28.2224C148.796 28.2224 148.792 31.1381 150.678 31.1381Z" fill="#1B1625"/>
<path fill-rule="evenodd" clip-rule="evenodd" d="M70.7198 58.8356C72.6017 58.8356 72.6056 55.9199 70.7198 55.9199C68.8379 55.9199 68.834 58.8356 70.7198 58.8356Z" fill="#1B1625"/>
<path fill-rule="evenodd" clip-rule="evenodd" d="M41.4667 114.234C43.3487 114.234 43.3526 111.318 41.4667 111.318C39.5848 111.318 39.5809 114.234 41.4667 114.234Z" fill="#1B1625"/>
<path fill-rule="evenodd" clip-rule="evenodd" d="M75.5949 181.294C77.4769 181.294 77.4808 178.378 75.5949 178.378C73.713 178.378 73.7091 181.294 75.5949 181.294Z" fill="#1B1625"/>
<path fill-rule="evenodd" clip-rule="evenodd" d="M258.914 122.008C260.796 122.008 260.799 119.093 258.914 119.093C257.031 119.093 257.028 122.008 258.914 122.008Z" fill="#1B1625"/>
<path fill-rule="evenodd" clip-rule="evenodd" d="M294.017 180.321C295.9 180.321 295.903 177.406 294.017 177.406C292.134 177.406 292.131 180.321 294.017 180.321Z" fill="#1B1625"/>
<path fill-rule="evenodd" clip-rule="evenodd" d="M87.9107 119.863L83.8339 122.008L83.9616 116.576L89.4572 113.822L87.9107 119.863Z" fill="#3FD9A3"/>
<path fill-rule="evenodd" clip-rule="evenodd" d="M157.726 109.399L153.394 111.076L154.238 105.696L160.05 103.581L157.726 109.399Z" fill="#3FD9A3"/>
<path fill-rule="evenodd" clip-rule="evenodd" d="M66.4261 170.604L66.8318 177.465L58.9471 177.256L58.5425 168.994L66.4261 170.604Z" fill="#553FA5"/>
<path fill-rule="evenodd" clip-rule="evenodd" d="M26.5047 76.9614L19.5123 79.2472L17.5172 72.1729L25.9606 69.4963L26.5047 76.9614Z" fill="#553FA5"/>
<path fill-rule="evenodd" clip-rule="evenodd" d="M134.638 76.6284L127.65 78.9113L125.651 71.838L134.095 69.1653L134.638 76.6284Z" fill="#553FA5"/>
<path fill-rule="evenodd" clip-rule="evenodd" d="M40.0536 22.7182L33.0651 25.0012L31.0662 17.9278L39.5105 15.2551L40.0536 22.7182Z" fill="#553FA5"/>
<path fill-rule="evenodd" clip-rule="evenodd" d="M29.381 161.729L24.0833 156.346L33.1127 151.753L41.2966 159.887L29.381 161.729Z" fill="#3FD9A3"/>
<path fill-rule="evenodd" clip-rule="evenodd" d="M373.693 74.3461L374.52 68.6489L382.088 71.3877L380.926 80.0938L373.693 74.3461Z" fill="#3FD9A3"/>
<path fill-rule="evenodd" clip-rule="evenodd" d="M237.671 72.9479L242.335 69.1653L246.094 75.8431L239.036 81.6909L237.671 72.9479Z" fill="#3FD9A3"/>
<path fill-rule="evenodd" clip-rule="evenodd" d="M283.747 72.9479L288.408 69.1653L292.169 75.8431L285.112 81.6909L283.747 72.9479Z" fill="#1B75BB"/>
<path fill-rule="evenodd" clip-rule="evenodd" d="M316.776 155.995L308.033 159.658L308.302 148.715L319.879 143.846L316.776 155.995Z" fill="#3FD9A3"/>
<path fill-rule="evenodd" clip-rule="evenodd" d="M188.676 70.3948L183.749 72.9878L183.908 66.4286L190.543 63.1077L188.676 70.3948Z" fill="#3FD9A3"/>
<path fill-rule="evenodd" clip-rule="evenodd" d="M352.607 116.337L344.175 119.092L341.76 110.555L351.954 107.328L352.607 116.337Z" fill="#553FA5"/>
<path fill-rule="evenodd" clip-rule="evenodd" d="M187.274 4.56469L192.902 -0.000244141L197.44 8.05861L188.922 15.1174L187.274 4.56469Z" fill="#3FD9A3"/>
<path fill-rule="evenodd" clip-rule="evenodd" d="M382.088 186.248L381.688 196.048L370.164 190.426L370.671 177.426L382.088 186.248Z" fill="#3FD9A3"/>
<path fill-rule="evenodd" clip-rule="evenodd" d="M305.477 118.226L298.102 116.689L301.364 123.459L297.621 129.976L305.089 128.974L310.926 113.04L305.477 118.226Z" fill="#FF9500"/>
<path fill-rule="evenodd" clip-rule="evenodd" d="M312.009 127.149L318.881 124.07L312.248 120.506L311.433 113.04L305.596 128.974L310.657 134.536L312.009 127.149Z" fill="#FFCC00"/>
<path fill-rule="evenodd" clip-rule="evenodd" d="M287.354 28.7007L282.019 27.6046L284.379 32.4341L281.671 37.0826L287.073 36.3678L291.296 25.0012L287.354 28.7007Z" fill="#FF9500"/>
<path fill-rule="evenodd" clip-rule="evenodd" d="M292.08 35.0661L297.052 32.8697L292.253 30.3274L291.663 25.0015L287.44 36.3681L291.102 40.3358L292.08 35.0661Z" fill="#FFCC00"/>
</g>
</svg>
