<svg width="23" height="23" viewBox="0 0 23 23" fill="none" xmlns="http://www.w3.org/2000/svg">
<path d="M11.9783 20.5775C8.08918 20.5775 6.14464 20.5775 4.93646 19.235C3.72827 17.8926 3.72827 15.732 3.72827 11.4108C3.72827 7.0896 3.72827 4.92899 4.93646 3.58657C6.14464 2.24414 8.08918 2.24414 11.9783 2.24414C15.8673 2.24414 17.8119 2.24414 19.0201 3.58657C20.2283 4.92899 20.2283 7.0896 20.2283 11.4108C20.2283 15.732 20.2283 17.8926 19.0201 19.235C17.8119 20.5775 15.8673 20.5775 11.9783 20.5775Z" fill="#553FA5"/>
<path d="M8.31165 2.24414V8.95983C8.31165 10.103 8.31165 10.6746 8.66586 10.8792C9.35181 11.2754 10.6385 9.95358 11.2496 9.55557C11.6039 9.32475 11.7811 9.20934 11.9783 9.20934C12.1755 9.20934 12.3527 9.32475 12.7071 9.55557C13.3181 9.95358 14.6048 11.2754 15.2908 10.8792C15.645 10.6746 15.645 10.103 15.645 8.95983V2.24414" fill="#DED6FE"/>
</svg>
