<svg width="23" height="23" viewBox="0 0 23 23" fill="none" xmlns="http://www.w3.org/2000/svg">
<path d="M11.9783 20.5775C8.08918 20.5775 6.14464 20.5775 4.93646 19.235C3.72827 17.8926 3.72827 15.732 3.72827 11.4108C3.72827 7.0896 3.72827 4.92899 4.93646 3.58657C6.14464 2.24414 8.08918 2.24414 11.9783 2.24414C15.8673 2.24414 17.8119 2.24414 19.0201 3.58657C20.2283 4.92899 20.2283 7.0896 20.2283 11.4108C20.2283 15.732 20.2283 17.8926 19.0201 19.235C17.8119 20.5775 15.8673 20.5775 11.9783 20.5775Z" stroke="#7C8BA0" stroke-width="1.375" stroke-linecap="round" stroke-linejoin="round"/>
<path d="M8.31152 2.70264V9.41833C8.31152 10.5615 8.31152 11.1331 8.66574 11.3377C9.35169 11.7339 10.6384 10.4121 11.2494 10.0141C11.6038 9.78324 11.781 9.66784 11.9782 9.66784C12.1754 9.66784 12.3526 9.78324 12.7069 10.0141C13.318 10.4121 14.6047 11.7339 15.2907 11.3377C15.6449 11.1331 15.6449 10.5615 15.6449 9.41833V2.70264" stroke="#7C8BA0" stroke-width="1.375" stroke-linecap="round" stroke-linejoin="round"/>
</svg>
