<svg width="220" height="93" viewBox="0 0 220 93" fill="none" xmlns="http://www.w3.org/2000/svg">
<g clip-path="url(#clip0_829_763)">
<path d="M92.9086 10.8461C94.7856 10.8461 145.924 10.8461 145.924 10.8461C145.924 10.8461 144.673 8.67711 141.461 5.88242C138.249 3.08773 135.83 2.17007 129.198 1.04385C122.023 -0.165794 97.8723 0.167901 94.4102 0.543307C91.4904 0.877002 90.6978 1.75295 90.3642 2.25349C89.7385 3.21286 89.7385 4.17224 89.9053 5.50701C90.0305 6.46639 90.2807 7.55089 90.4893 8.46855C91.0315 10.7627 92.2829 10.8461 92.9086 10.8461Z" fill="white"/>
<path d="M150.179 12.3895C151.222 12.3895 155.393 11.4301 156.352 10.3039C157.312 9.13598 155.602 7.88463 154.35 7.25895C153.099 6.63327 150.972 5.46534 149.095 6.42471C149.095 6.42471 148.803 6.42471 148.469 7.88463C148.219 9.34454 149.136 12.3895 150.179 12.3895Z" fill="white"/>
<path d="M65.6289 16.0185C67.4643 16.811 82.9811 10.9714 82.9811 10.9714C82.9811 10.9714 84.8581 10.4291 86.026 7.84298C86.902 5.88252 88.1116 3.25468 87.1522 2.12846C86.9437 1.9199 86.3597 1.33593 84.6495 1.96161C81.8548 2.9627 76.1403 5.17342 70.3424 9.88686C66.4632 13.057 63.7936 15.226 65.6289 16.0185Z" fill="white"/>
<path d="M62.5421 14.4332C62.5838 15.0589 65.3368 9.80322 73.0952 5.21492C74.1797 4.54753 70.3422 5.13149 66.7133 6.09087C64.8363 6.59141 60.9571 7.42564 60.5817 8.71871C60.248 9.92835 61.1656 11.0546 61.4993 11.5551C61.8747 12.1808 62.4587 13.307 62.5421 14.4332Z" fill="white"/>
<path d="M161.024 47.2187C162.818 46.9684 163.318 44.3823 163.443 44.0903C165.195 44.0903 165.487 44.0903 166.196 44.0903C167.448 44.0903 167.322 41.671 167.531 36.749C167.614 34.4966 167.948 31.7853 167.698 26.8633C167.406 20.982 163.235 15.2675 159.898 15.184C154.892 15.1006 152.181 16.3937 150.054 21.6077C150.888 21.5659 161.524 21.6077 162.526 22.6087C163.527 23.6098 163.527 26.3211 163.527 26.3211C163.527 26.3211 152.306 26.0291 148.886 26.2377C148.218 30.7008 147.843 35.0389 141.044 35.8314C130.366 37.0827 119.854 36.6656 116.392 30.7425C115.767 29.6997 114.891 28.1981 113.514 26.4879C107.633 26.4462 97.3717 26.6548 96.8295 26.6548C96.1204 26.6548 95.745 25.1114 95.5781 24.0269C95.2861 22.275 96.2038 22.5253 108.759 21.7745C105.672 19.3135 101.418 16.8525 95.6198 14.9338C81.4795 10.3037 78.0591 13.307 75.9318 17.937C74.2634 21.6077 74.0548 25.4451 74.3051 29.9917C74.3468 30.7843 74.3051 33.4538 74.3051 33.7041C71.135 33.5789 65.7959 34.0378 65.5039 28.1564C65.2119 22.1916 66.1713 20.3146 66.1713 19.9392C66.1713 19.5638 61.6664 19.4803 62.7509 16.8525C63.7937 14.2247 58.1209 17.1862 56.8278 18.1039C56.077 18.3541 55.0759 19.2718 54.7422 20.7317C54.6588 21.1488 54.5754 22.0665 54.5337 23.3595C52.9903 24.5275 51.8641 29.3243 51.8641 35.1223C51.8641 39.2517 52.4481 42.8807 53.324 45.0497C53.5743 45.6754 54.3251 47.0102 54.9508 47.3856C46.1913 47.761 41.019 48.2615 41.019 48.762C41.019 50.0551 71.9275 51.0979 110.052 51.0979C148.177 51.0979 179.085 50.0551 179.085 48.762C179.043 48.1781 172.244 47.6358 161.024 47.2187ZM79.4773 21.6911C80.979 21.6911 82.1886 26.5296 82.1886 32.4944C82.1886 38.4592 80.979 43.2978 79.4773 43.2978C77.9757 43.2978 76.7661 38.4592 76.7661 32.4944C76.7661 26.5296 77.9757 21.6911 79.4773 21.6911ZM53.8663 35.1223C53.8663 29.9917 54.9091 25.8205 56.2021 25.8205C57.4952 25.8205 58.538 29.9917 58.538 35.1223C58.538 40.2528 57.4952 44.424 56.2021 44.424C54.9091 44.424 53.8663 40.2528 53.8663 35.1223ZM68.4654 43.2978C71.0098 43.4229 73.596 43.5064 75.8484 43.5481C76.349 45.008 76.9746 46.0925 77.6837 46.7182C73.7628 46.8016 70.0088 46.885 66.5884 46.9684C67.2975 46.5096 67.9649 45.1748 68.4654 43.2978ZM90.0304 46.5513C90.3641 46.1759 90.6561 45.5919 90.9481 44.8828C97.3717 44.8411 128.614 44.5074 148.761 44.2572C149.261 45.5085 149.887 46.4262 150.554 46.885C139.167 46.593 125.152 46.4262 110.01 46.4262C103.086 46.4679 96.3706 46.4679 90.0304 46.5513Z" fill="white"/>
</g>
<path d="M14.6596 92.475C10.5545 92.475 7.30464 91.4373 4.91 89.3619C2.53818 87.2638 1.35227 84.3104 1.35227 80.5018C1.35227 78.1756 1.72857 76.1344 2.48116 74.3784C3.25657 72.6223 4.33985 71.2197 5.73102 70.1707C8.49055 68.0953 12.1281 67.0577 16.6437 67.0577C19.5629 67.0577 22.482 67.4568 25.4012 68.255C26.5187 68.6199 27.0774 69.5207 27.0774 70.9575C27.0774 72.9188 26.4617 73.8995 25.2302 73.8995C25.0249 73.8995 24.3521 73.8082 23.2118 73.6258C22.0715 73.4433 21.2733 73.3521 20.8172 73.3521C19.198 73.3521 17.9436 73.9223 17.0542 75.0626C16.1876 76.1801 15.7543 77.5256 15.7543 79.0992C15.7543 80.65 16.1648 82.0184 16.9858 83.2043C17.8068 84.3902 18.9243 85.006 20.3383 85.0516C21.2961 85.0972 22.9952 85.12 25.4354 85.12C26.6213 85.12 27.2713 85.6788 27.3853 86.7963C27.4537 87.2068 27.488 87.6287 27.488 88.062C27.488 88.4725 27.4537 88.8944 27.3853 89.3277C27.2485 90.1487 26.6099 90.7531 25.4696 91.1408C24.3293 91.5057 22.6873 91.8136 20.5435 92.0644C18.3998 92.3381 16.4384 92.475 14.6596 92.475ZM41.3859 73.831C48.8207 73.831 52.5722 76.2485 52.6407 81.0833C52.6863 83.1359 52.7091 85.0174 52.7091 86.7278C52.7091 88.4383 52.6977 89.59 52.6749 90.1829C52.6521 90.7759 52.4924 91.2092 52.196 91.4829C51.9223 91.7338 51.3749 91.8592 50.5539 91.8592H43.3016C42.5718 91.8592 42.0701 91.7338 41.7964 91.4829C41.5227 91.2092 41.3745 90.8101 41.3517 90.2856C41.3517 90.2628 41.3403 90.2286 41.3175 90.1829C41.3175 90.1145 41.3175 90.0575 41.3175 90.0119C39.8123 91.5627 37.7597 92.3381 35.1599 92.3381C33.3582 92.3381 31.8188 91.8934 30.5416 91.004C29.2873 90.0917 28.6601 88.8488 28.6601 87.2752C28.6601 85.6788 29.1049 84.413 29.9943 83.478C30.9065 82.5201 31.9784 81.8702 33.2099 81.5281C34.4643 81.186 35.7984 81.0149 37.2124 81.0149C38.6492 81.0149 40.0517 81.1518 41.4201 81.4254V81.2886C41.4201 80.1483 41.192 79.3273 40.7359 78.8256C40.3026 78.3238 39.5842 78.073 38.5808 78.073C37.6001 78.073 36.7791 78.1642 36.1177 78.3466C35.4563 78.5063 34.9546 78.6773 34.6125 78.8598C33.6775 79.4071 33.0275 79.6808 32.6626 79.6808C32.2977 79.6808 31.967 79.5097 31.6705 79.1676C31.3969 78.8256 31.26 78.301 31.26 77.594C31.26 76.8642 31.3855 76.3625 31.6363 76.0888C31.91 75.8152 32.3319 75.5415 32.9021 75.2678C34.8862 74.31 37.7141 73.831 41.3859 73.831ZM39.7781 87.8225C40.7815 87.8225 41.2947 87.6287 41.3175 87.241C41.3631 86.4884 41.3859 85.4963 41.3859 84.2648C41.3859 83.7859 41.021 83.5464 40.2912 83.5464C39.5614 83.5464 38.9685 83.7288 38.5123 84.0937C38.0562 84.4358 37.8282 84.949 37.8282 85.6331C37.8282 86.3173 38.0106 86.8533 38.3755 87.241C38.7632 87.6287 39.2307 87.8225 39.7781 87.8225ZM57.6261 74.3784H64.2969C65.0723 74.3784 65.6082 74.5494 65.9047 74.8915C66.2012 75.2108 66.3494 75.7011 66.3494 76.3625V77.594C67.6265 75.1766 69.7019 73.9679 72.5754 73.9679C73.5333 73.9679 74.3201 74.2758 74.9359 74.8915C75.5516 75.5073 75.8595 76.3283 75.8595 77.3546C75.8595 78.3808 75.5858 79.4071 75.0385 80.4334C74.4911 81.4368 73.7271 81.9386 72.7465 81.9386C72.2904 81.9386 71.6518 81.7105 70.8308 81.2544C70.0098 80.7755 69.3484 80.536 68.8467 80.536C68.3449 80.536 67.8204 80.7185 67.273 81.0833C66.7485 81.4482 66.4862 82.0526 66.4862 82.8964C66.4862 86.5682 66.4178 88.997 66.281 90.1829C66.2126 90.5706 66.0187 90.9127 65.6994 91.2092C65.3801 91.5057 64.81 91.6881 63.989 91.7566C63.1908 91.8022 62.3926 91.825 61.5943 91.825C60.7961 91.825 59.4392 91.7794 57.5235 91.6881C56.9761 91.6653 56.5428 91.5057 56.2235 91.2092C55.9042 90.9127 55.7218 90.5706 55.6762 90.1829C55.5165 88.7006 55.4367 86.4314 55.4367 83.3754C55.4367 80.3193 55.4823 78.2326 55.5736 77.1151C55.6648 75.9748 55.8358 75.2336 56.0867 74.8915C56.3376 74.5494 56.8507 74.3784 57.6261 74.3784ZM90.6455 74.9941L90.714 81.3228C90.714 81.7561 90.9534 81.9728 91.4324 81.9728C92.8463 81.9728 93.9524 81.5851 94.7506 80.8097C95.5716 80.0115 95.9822 79.0764 95.9822 78.0045C95.9822 76.9327 95.5945 76.009 94.8191 75.2336C94.0665 74.4582 92.949 74.0705 91.4666 74.0705C90.9192 74.0705 90.6455 74.3784 90.6455 74.9941ZM99.6083 85.2226C100.042 85.6788 101.581 87.4006 104.227 90.3882C104.386 90.5935 104.466 90.7759 104.466 90.9355C104.466 91.5285 104.204 91.825 103.679 91.825C102.47 91.8478 101.25 91.8592 100.019 91.8592C98.8101 91.8592 97.6014 91.8478 96.3927 91.825C95.7313 91.825 95.1269 91.5627 94.5796 91.0382L91.6376 86.591C91.5236 86.4542 91.3867 86.3629 91.2271 86.3173C90.8622 86.1805 90.6798 86.3287 90.6798 86.762V90.2514C90.6798 91.232 90.0298 91.7566 88.7298 91.825C87.4527 91.8934 86.0501 91.9276 84.5221 91.9276C82.9941 91.9276 81.1468 91.8706 78.9803 91.7566C78.3189 91.711 77.783 91.4829 77.3725 91.0724C76.9847 90.6619 76.7567 90.1944 76.6883 89.6698C76.5058 87.6629 76.4146 84.5157 76.4146 80.2281C76.4146 75.9178 76.483 72.782 76.6199 70.8206C76.7567 68.8593 77.7488 67.8673 79.596 67.8445C81.3293 67.8217 83.6897 67.8103 86.6773 67.8103C89.6649 67.8103 92.1393 67.8331 94.1007 67.8787C96.9286 67.9243 99.2434 68.9734 101.045 71.0259C102.847 73.0784 103.748 75.3932 103.748 77.9703C103.748 79.4755 103.394 80.8667 102.687 82.1438C102.003 83.421 100.977 84.4472 99.6083 85.2226ZM111.206 75.4389C112.256 74.9143 113.327 74.538 114.422 74.31C115.54 74.0819 116.908 73.9679 118.527 73.9679C120.169 73.9679 121.731 74.1731 123.214 74.5836C124.696 74.9713 125.802 75.5073 126.532 76.1915C127.809 77.4458 128.448 78.9168 128.448 80.6044C128.448 83.2499 126.213 84.5727 121.743 84.5727C120.169 84.5727 118.539 84.4244 116.851 84.128C116.919 85.6331 117.193 86.6936 117.672 87.3094C118.174 87.9252 119.052 88.233 120.306 88.233C121.56 88.233 122.598 88.0962 123.419 87.8225C124.24 87.5489 124.902 87.2752 125.403 87.0015C125.905 86.705 126.327 86.5568 126.669 86.5568C127.034 86.5568 127.342 86.7164 127.593 87.0357C127.98 87.4462 128.174 88.0164 128.174 88.7462C128.174 89.4532 128.026 89.9435 127.729 90.2172C127.456 90.468 127.011 90.7189 126.395 90.9698C124.229 91.882 121.15 92.3381 117.159 92.3381C113.852 92.3381 111.127 91.5513 108.983 89.9777C106.862 88.3813 105.801 86.2375 105.801 83.5464C105.801 82.2465 106.041 81.0605 106.52 79.9887C106.999 78.894 107.637 77.9931 108.436 77.2861C109.234 76.5564 110.157 75.9406 111.206 75.4389ZM119.143 77.8677C117.752 77.8677 116.999 78.9966 116.885 81.2544C117.98 81.3456 118.55 81.3912 118.596 81.3912C120.101 81.3912 120.853 80.8895 120.853 79.886C120.853 78.5405 120.283 77.8677 119.143 77.8677ZM145.354 90.3198L145.388 81.9728C145.388 81.2886 145.217 80.7755 144.875 80.4334C144.532 80.0913 144.099 79.9202 143.575 79.9202C143.073 79.9202 142.605 80.1027 142.172 80.4676C141.762 80.8097 141.556 81.3 141.556 81.9386V84.0253C141.556 87.0357 141.488 89.0883 141.351 90.1829C141.283 90.5706 141.089 90.9127 140.77 91.2092C140.45 91.5057 139.88 91.6881 139.059 91.7566C138.261 91.8022 137.463 91.825 136.664 91.825C135.866 91.825 134.509 91.7794 132.594 91.6881C132.046 91.6653 131.613 91.5057 131.294 91.2092C130.974 90.9127 130.792 90.5706 130.746 90.1829C130.587 88.7006 130.507 86.4314 130.507 83.3754C130.507 80.3193 130.552 78.2326 130.644 77.1151C130.735 75.9748 130.906 75.2336 131.157 74.8915C131.408 74.5494 131.921 74.3784 132.696 74.3784H139.367C140.142 74.3784 140.655 74.5494 140.906 74.8915C141.18 75.2336 141.351 75.8152 141.419 76.6362V76.6704C143.176 74.8459 145.308 73.9337 147.817 73.9337C150.348 73.9337 152.332 74.5494 153.769 75.781C155.206 77.0125 155.936 78.7115 155.958 80.8781C156.004 83.0447 156.027 84.9832 156.027 86.6936C156.027 88.4041 156.015 89.5558 155.993 90.1487C155.97 90.7417 155.81 91.175 155.514 91.4487C155.24 91.6995 154.693 91.825 153.872 91.825L147.303 91.8934C146.574 91.8934 146.061 91.768 145.764 91.5171C145.49 91.2434 145.354 90.8443 145.354 90.3198ZM159.873 79.3387C159.873 78.9738 159.623 78.7913 159.121 78.7913C158.231 78.7913 157.707 78.4949 157.547 77.9019C157.456 77.6054 157.41 77.1493 157.41 76.5336C157.41 75.9178 157.49 75.4845 157.65 75.2336C157.832 74.9599 158.163 74.7661 158.642 74.6521C159.144 74.5152 159.588 74.2986 159.976 74.0021C160.387 73.6828 161.208 72.9986 162.439 71.9495C163.693 70.9005 164.56 70.2163 165.039 69.897C165.541 69.5777 166.156 69.4181 166.886 69.4181H168.597C169.395 69.4181 169.931 69.5207 170.204 69.726C170.478 69.9084 170.615 70.2049 170.615 70.6154V73.8652C170.615 74.3442 170.82 74.5836 171.231 74.5836H174.891C175.484 74.5836 175.906 74.7091 176.157 74.9599C176.431 75.2108 176.567 75.7924 176.567 76.7046C176.567 77.594 176.431 78.1642 176.157 78.415C175.883 78.6659 175.473 78.7913 174.925 78.7913H171.368C171.048 78.7913 170.843 78.8712 170.752 79.0308C170.661 79.1905 170.615 79.4185 170.615 79.715V83.8201C170.661 84.5955 170.946 85.2454 171.47 85.77C172.018 86.2945 172.782 86.5568 173.762 86.5568C174.241 86.5568 174.834 86.4314 175.541 86.1805C176.248 85.9068 176.727 85.77 176.978 85.77C177.594 85.77 177.902 86.6822 177.902 88.5067C177.902 89.8295 177.548 90.6277 176.841 90.9013C176.111 91.1522 175.085 91.3575 173.762 91.5171C172.439 91.6767 171.117 91.7566 169.794 91.7566C168.471 91.7566 167.206 91.6539 165.997 91.4487C164.811 91.2206 163.728 90.8329 162.747 90.2856C160.831 89.1681 159.873 87.0357 159.873 83.8885V79.3387ZM191.727 73.831C199.161 73.831 202.913 76.2485 202.981 81.0833C203.027 83.1359 203.05 85.0174 203.05 86.7278C203.05 88.4383 203.038 89.59 203.015 90.1829C202.993 90.7759 202.833 91.2092 202.537 91.4829C202.263 91.7338 201.716 91.8592 200.895 91.8592H193.642C192.912 91.8592 192.411 91.7338 192.137 91.4829C191.863 91.2092 191.715 90.8101 191.692 90.2856C191.692 90.2628 191.681 90.2286 191.658 90.1829C191.658 90.1145 191.658 90.0575 191.658 90.0119C190.153 91.5627 188.1 92.3381 185.5 92.3381C183.699 92.3381 182.159 91.8934 180.882 91.004C179.628 90.0917 179.001 88.8488 179.001 87.2752C179.001 85.6788 179.445 84.413 180.335 83.478C181.247 82.5201 182.319 81.8702 183.551 81.5281C184.805 81.186 186.139 81.0149 187.553 81.0149C188.99 81.0149 190.392 81.1518 191.761 81.4254V81.2886C191.761 80.1483 191.533 79.3273 191.077 78.8256C190.643 78.3238 189.925 78.073 188.921 78.073C187.941 78.073 187.12 78.1642 186.458 78.3466C185.797 78.5063 185.295 78.6773 184.953 78.8598C184.018 79.4071 183.368 79.6808 183.003 79.6808C182.638 79.6808 182.308 79.5097 182.011 79.1676C181.737 78.8256 181.601 78.301 181.601 77.594C181.601 76.8642 181.726 76.3625 181.977 76.0888C182.251 75.8152 182.673 75.5415 183.243 75.2678C185.227 74.31 188.055 73.831 191.727 73.831ZM190.119 87.8225C191.122 87.8225 191.635 87.6287 191.658 87.241C191.704 86.4884 191.727 85.4963 191.727 84.2648C191.727 83.7859 191.362 83.5464 190.632 83.5464C189.902 83.5464 189.309 83.7288 188.853 84.0937C188.397 84.4358 188.169 84.949 188.169 85.6331C188.169 86.3173 188.351 86.8533 188.716 87.241C189.104 87.6287 189.571 87.8225 190.119 87.8225ZM208.001 66.784H214.569C215.322 66.784 215.823 66.9664 216.074 67.3313C216.325 67.6734 216.485 68.2322 216.553 69.0076C216.69 71.7443 216.758 75.5301 216.758 80.365C216.758 85.177 216.667 88.4953 216.485 90.3198C216.439 90.6847 216.257 91.0154 215.937 91.3118C215.618 91.6083 215.048 91.7794 214.227 91.825C213.429 91.8934 212.482 91.9276 211.388 91.9276C210.293 91.9276 209.312 91.9048 208.446 91.8592C206.963 91.7452 206.188 91.232 206.119 90.3198C205.891 88.3357 205.777 84.8235 205.777 79.7834C205.777 74.7205 205.869 71.1285 206.051 69.0076C206.119 68.2322 206.268 67.6734 206.496 67.3313C206.747 66.9664 207.248 66.784 208.001 66.784Z" fill="white"/>
<defs>
<clipPath id="clip0_829_763">
<rect width="138.024" height="50.8884" fill="white" transform="translate(41.019 0.209473)"/>
</clipPath>
</defs>
</svg>
