<svg width="23" height="22" viewBox="0 0 23 22" fill="none" xmlns="http://www.w3.org/2000/svg">
<path d="M3.93506 7.70591L5.85254 2.01157L14.0454 1.48877L17.2992 2.01157L18.1127 2.88327L18.9262 6.31142L19.4491 9.56525L17.7641 9.91388H10.0943L3.93506 9.56525V7.70591Z" fill="#553FA5"/>
<path d="M2.44177 10.9319L4.08923 9.97825H6.69056H8.94493H13.8872L18.0925 9.41455L20.2168 10.455L20.607 11.7556L20.8237 13.4898C20.896 14.0678 21.0492 15.354 21.0839 15.8742C21.1272 16.5245 21.4307 17.3049 21.4307 17.565V19.1691C21.4307 19.776 20.8237 20.0361 20.607 20.3396C20.3902 20.6431 19.8266 20.5564 19.3931 20.8598C18.9596 21.1633 18.0058 20.8598 17.789 20.8598C17.6156 20.8598 17.1098 20.6575 16.8786 20.5564L16.1416 20.0361L15.8381 19.1691L15.5346 18.5621L15.2312 17.8251H14.4508L12.5866 17.565H9.24841C9.00563 17.565 8.30908 17.7384 7.99116 17.8251C7.8322 17.9985 7.48826 18.3887 7.38421 18.5621C7.28016 18.7355 7.05184 19.1835 6.95068 19.3858C6.90733 19.6026 6.75125 20.1402 6.47379 20.5564C6.19633 20.9726 6.01136 20.9321 5.95355 20.8598H3.82924H2.44177L1.7915 20.0361V19.3858V17.8251V15.2239L2.44177 12.7528V10.9319Z" fill="#553FA5"/>
<path fill-rule="evenodd" clip-rule="evenodd" d="M5.07028 1.88632C5.74679 1.19424 6.73175 0.850586 8.10036 0.850586H15.1204C16.489 0.850586 17.4739 1.19424 18.1504 1.88632C18.7996 2.55045 19.0504 3.42746 19.2143 4.20608L19.2145 4.20724L20.3445 9.61724C20.3907 9.83828 20.3348 10.0684 20.1924 10.2436C20.05 10.4188 19.8362 10.5206 19.6104 10.5206H3.61036C3.38454 10.5206 3.17075 10.4188 3.02833 10.2436C2.88591 10.0684 2.83003 9.83828 2.8762 9.61724L4.00645 4.20608C4.17037 3.42746 4.42109 2.55045 5.07028 1.88632ZM5.47427 4.51509C5.47423 4.51528 5.47431 4.51491 5.47427 4.51509L4.5332 9.02059H18.6875L17.7464 4.51509C17.7464 4.51485 17.7465 4.51534 17.7464 4.51509C17.5904 3.77411 17.406 3.27061 17.0778 2.93485C16.7768 2.62693 16.2417 2.35059 15.1204 2.35059H8.10036C6.97897 2.35059 6.44392 2.62693 6.14294 2.93485C5.8147 3.27064 5.63033 3.77401 5.47427 4.51509Z" fill="#553FA5"/>
<path fill-rule="evenodd" clip-rule="evenodd" d="M2.92699 12.5702C2.92698 12.5704 2.92701 12.57 2.92699 12.5702L2.36709 18.6592L2.36695 18.6607C2.29986 19.3743 2.8755 20.0205 3.65024 20.0205H5.53024C5.97013 20.0205 6.05604 19.9271 6.05768 19.9253C6.09328 19.8915 6.12978 19.8302 6.23873 19.5033L6.43873 18.9033C6.44398 18.8876 6.44935 18.8714 6.45485 18.8548C6.56718 18.5157 6.73453 18.0105 7.1394 17.6286C7.59762 17.1965 8.23158 17.0205 9.05024 17.0205H14.1702C14.9678 17.0205 15.6011 17.1697 16.0639 17.5969C16.4652 17.9673 16.6362 18.4732 16.7573 18.8313C16.7651 18.8542 16.7726 18.8765 16.78 18.8982L16.7818 18.9033L16.9818 19.5033C17.0907 19.8302 17.1272 19.8915 17.1628 19.9252C17.163 19.9255 17.2467 20.0205 17.6902 20.0205H19.5702C20.345 20.0205 20.9206 19.3743 20.8535 18.6607L20.2935 12.5702C20.2935 12.5699 20.2934 12.5695 20.2934 12.5692C20.2218 11.8031 20.1197 11.3503 19.8719 11.0566C19.66 10.8053 19.2004 10.5205 17.9902 10.5205H5.23024C4.02003 10.5205 3.5605 10.8053 3.34855 11.0566C3.10072 11.3504 2.99855 11.8038 2.92699 12.5702ZM2.20193 10.0895C2.82498 9.35076 3.82045 9.02051 5.23024 9.02051H17.9902C19.4 9.02051 20.3955 9.35076 21.0185 10.0895C21.6057 10.7856 21.7186 11.6975 21.787 12.4308L21.7871 12.4318L22.3469 18.5203C22.3469 18.5202 22.347 18.5204 22.3469 18.5203C22.4996 20.1466 21.1954 21.5205 19.5702 21.5205H17.6902C17.0538 21.5205 16.5225 21.3855 16.1302 21.0133C15.7949 20.6951 15.6568 20.2754 15.5741 20.0241C15.5687 20.0079 15.5636 19.9924 15.5587 19.9777L15.3596 19.3804C15.2031 18.922 15.1395 18.7849 15.0465 18.6991C14.9894 18.6463 14.8127 18.5205 14.1702 18.5205H9.05024C8.4289 18.5205 8.23786 18.6545 8.16858 18.7199C8.06577 18.8168 7.99911 18.9656 7.86175 19.3777L7.66175 19.9777C7.65684 19.9924 7.65174 20.0079 7.64641 20.0241C7.56371 20.2754 7.42557 20.6951 7.09028 21.0133C6.69802 21.3855 6.16666 21.5205 5.53024 21.5205H3.65024C2.02526 21.5205 0.721078 20.1472 0.873451 18.5212C0.873424 18.5215 0.873478 18.5209 0.873451 18.5212L1.43348 12.4308C1.50192 11.6975 1.61481 10.7856 2.20193 10.0895Z" fill="#553FA5"/>
<path fill-rule="evenodd" clip-rule="evenodd" d="M1.86035 6.77051C1.86035 6.35629 2.19614 6.02051 2.61035 6.02051H3.61035C4.02457 6.02051 4.36035 6.35629 4.36035 6.77051C4.36035 7.18472 4.02457 7.52051 3.61035 7.52051H2.61035C2.19614 7.52051 1.86035 7.18472 1.86035 6.77051Z" fill="#553FA5"/>
<path fill-rule="evenodd" clip-rule="evenodd" d="M18.8604 6.77051C18.8604 6.35629 19.1961 6.02051 19.6104 6.02051H20.6104C21.0246 6.02051 21.3604 6.35629 21.3604 6.77051C21.3604 7.18472 21.0246 7.52051 20.6104 7.52051H19.6104C19.1961 7.52051 18.8604 7.18472 18.8604 6.77051Z" fill="#553FA5"/>
<path fill-rule="evenodd" clip-rule="evenodd" d="M11.6104 0.850586C12.0246 0.850586 12.3604 1.18637 12.3604 1.60059V3.60059C12.3604 4.0148 12.0246 4.35059 11.6104 4.35059C11.1961 4.35059 10.8604 4.0148 10.8604 3.60059V1.60059C10.8604 1.18637 11.1961 0.850586 11.6104 0.850586Z" fill="white"/>
<path fill-rule="evenodd" clip-rule="evenodd" d="M9.36035 3.60059C9.36035 3.18637 9.69614 2.85059 10.1104 2.85059H13.1104C13.5246 2.85059 13.8604 3.18637 13.8604 3.60059C13.8604 4.0148 13.5246 4.35059 13.1104 4.35059H10.1104C9.69614 4.35059 9.36035 4.0148 9.36035 3.60059Z" fill="white"/>
<path fill-rule="evenodd" clip-rule="evenodd" d="M4.86035 13.7705C4.86035 13.3563 5.19614 13.0205 5.61035 13.0205H8.61035C9.02457 13.0205 9.36035 13.3563 9.36035 13.7705C9.36035 14.1847 9.02457 14.5205 8.61035 14.5205H5.61035C5.19614 14.5205 4.86035 14.1847 4.86035 13.7705Z" fill="white"/>
<path fill-rule="evenodd" clip-rule="evenodd" d="M13.8604 13.7705C13.8604 13.3563 14.1961 13.0205 14.6104 13.0205H17.6104C18.0246 13.0205 18.3604 13.3563 18.3604 13.7705C18.3604 14.1847 18.0246 14.5205 17.6104 14.5205H14.6104C14.1961 14.5205 13.8604 14.1847 13.8604 13.7705Z" fill="white"/>
</svg>
