<svg width="23" height="22" viewBox="0 0 23 22" fill="none" xmlns="http://www.w3.org/2000/svg">
<path fill-rule="evenodd" clip-rule="evenodd" d="M5.07052 1.81211C5.74704 1.12002 6.73199 0.776367 8.1006 0.776367H15.1206C16.4892 0.776367 17.4742 1.12002 18.1507 1.81211C18.7999 2.47623 19.0506 3.35324 19.2145 4.13186L19.2148 4.13302L20.3448 9.54302C20.3909 9.76407 20.335 9.99415 20.1926 10.1694C20.0502 10.3446 19.8364 10.4464 19.6106 10.4464H3.6106C3.38479 10.4464 3.17099 10.3446 3.02858 10.1694C2.88616 9.99415 2.83028 9.76407 2.87645 9.54302L4.00669 4.13186C4.17061 3.35324 4.42134 2.47623 5.07052 1.81211ZM5.47451 4.44088C5.47448 4.44106 5.47455 4.44069 5.47451 4.44088L4.53344 8.94637H18.6878L17.7467 4.44088C17.7466 4.44063 17.7467 4.44112 17.7467 4.44088C17.5906 3.69989 17.4062 3.19639 17.078 2.86063C16.777 2.55271 16.242 2.27637 15.1206 2.27637H8.1006C6.97921 2.27637 6.44417 2.55271 6.14318 2.86063C5.81495 3.19642 5.63057 3.69979 5.47451 4.44088Z" fill="#7C8BA0"/>
<path fill-rule="evenodd" clip-rule="evenodd" d="M2.92724 12.496C2.92722 12.4962 2.92725 12.4958 2.92724 12.496L2.36733 18.585L2.36719 18.5865C2.3001 19.3001 2.87575 19.9463 3.65048 19.9463H5.53048C5.97037 19.9463 6.05629 19.8528 6.05792 19.8511C6.09352 19.8173 6.13003 19.7559 6.23897 19.4291L6.43897 18.8291C6.44423 18.8133 6.44959 18.7971 6.45509 18.7805C6.56742 18.4415 6.73477 17.9363 7.13964 17.5544C7.59786 17.1223 8.23182 16.9463 9.05048 16.9463H14.1705C14.968 16.9463 15.6014 17.0955 16.0642 17.5227C16.4654 17.8931 16.6365 18.399 16.7576 18.7571C16.7653 18.78 16.7729 18.8023 16.7802 18.8239L16.782 18.8291L16.982 19.4291C17.0909 19.7559 17.1274 19.8172 17.163 19.851C17.1633 19.8513 17.2469 19.9463 17.6905 19.9463H19.5705C20.3452 19.9463 20.9209 19.3001 20.8538 18.5865L20.2937 12.496C20.2937 12.4956 20.2937 12.4953 20.2936 12.495C20.2221 11.7288 20.1199 11.2761 19.8722 10.9823C19.6602 10.731 19.2007 10.4463 17.9905 10.4463H5.23048C4.02027 10.4463 3.56074 10.731 3.34879 10.9823C3.10097 11.2762 2.9988 11.7296 2.92724 12.496ZM2.20218 10.0152C2.82522 9.27654 3.82069 8.94629 5.23048 8.94629H17.9905C19.4003 8.94629 20.3957 9.27654 21.0188 10.0152C21.6059 10.7113 21.7188 11.6233 21.7872 12.3566L21.7873 12.3576L22.3472 18.4461C22.3472 18.446 22.3472 18.4462 22.3472 18.4461C22.4999 20.0724 21.1956 21.4463 19.5705 21.4463H17.6905C17.0541 21.4463 16.5227 21.3113 16.1304 20.939C15.7952 20.6208 15.657 20.2011 15.5743 19.9499C15.569 19.9337 15.5639 19.9182 15.559 19.9035L15.3599 19.3062C15.2033 18.8478 15.1397 18.7107 15.0468 18.6249C14.9896 18.5721 14.8129 18.4463 14.1705 18.4463H9.05048C8.42914 18.4463 8.2381 18.5803 8.16882 18.6457C8.06601 18.7426 7.99936 18.8914 7.862 19.3035L7.662 19.9035C7.65709 19.9182 7.65199 19.9337 7.64666 19.9499C7.56395 20.2011 7.42581 20.6208 7.09052 20.939C6.69826 21.3113 6.1669 21.4463 5.53048 21.4463H3.65048C2.0255 21.4463 0.721322 20.073 0.873695 18.4469C0.873668 18.4472 0.873722 18.4467 0.873695 18.4469L1.43373 12.3566C1.50217 11.6233 1.61505 10.7113 2.20218 10.0152Z" fill="#7C8BA0"/>
<path fill-rule="evenodd" clip-rule="evenodd" d="M1.8606 6.69629C1.8606 6.28208 2.19638 5.94629 2.6106 5.94629H3.6106C4.02481 5.94629 4.3606 6.28208 4.3606 6.69629C4.3606 7.1105 4.02481 7.44629 3.6106 7.44629H2.6106C2.19638 7.44629 1.8606 7.1105 1.8606 6.69629Z" fill="#7C8BA0"/>
<path fill-rule="evenodd" clip-rule="evenodd" d="M18.8606 6.69629C18.8606 6.28208 19.1964 5.94629 19.6106 5.94629H20.6106C21.0248 5.94629 21.3606 6.28208 21.3606 6.69629C21.3606 7.1105 21.0248 7.44629 20.6106 7.44629H19.6106C19.1964 7.44629 18.8606 7.1105 18.8606 6.69629Z" fill="#7C8BA0"/>
<path fill-rule="evenodd" clip-rule="evenodd" d="M11.6106 0.946289C12.0248 0.946289 12.3606 1.28208 12.3606 1.69629V3.69629C12.3606 4.1105 12.0248 4.44629 11.6106 4.44629C11.1964 4.44629 10.8606 4.1105 10.8606 3.69629V1.69629C10.8606 1.28208 11.1964 0.946289 11.6106 0.946289Z" fill="#7C8BA0"/>
<path fill-rule="evenodd" clip-rule="evenodd" d="M9.3606 3.69629C9.3606 3.28208 9.69638 2.94629 10.1106 2.94629H13.1106C13.5248 2.94629 13.8606 3.28208 13.8606 3.69629C13.8606 4.1105 13.5248 4.44629 13.1106 4.44629H10.1106C9.69638 4.44629 9.3606 4.1105 9.3606 3.69629Z" fill="#7C8BA0"/>
<path fill-rule="evenodd" clip-rule="evenodd" d="M4.8606 13.6963C4.8606 13.2821 5.19638 12.9463 5.6106 12.9463H8.6106C9.02481 12.9463 9.3606 13.2821 9.3606 13.6963C9.3606 14.1105 9.02481 14.4463 8.6106 14.4463H5.6106C5.19638 14.4463 4.8606 14.1105 4.8606 13.6963Z" fill="#7C8BA0"/>
<path fill-rule="evenodd" clip-rule="evenodd" d="M13.8606 13.6963C13.8606 13.2821 14.1964 12.9463 14.6106 12.9463H17.6106C18.0248 12.9463 18.3606 13.2821 18.3606 13.6963C18.3606 14.1105 18.0248 14.4463 17.6106 14.4463H14.6106C14.1964 14.4463 13.8606 14.1105 13.8606 13.6963Z" fill="#7C8BA0"/>
</svg>
