<svg width="131" height="131" viewBox="0 0 131 131" fill="none" xmlns="http://www.w3.org/2000/svg">
<circle cx="65.1558" cy="65.769" r="64.97" fill="#E9E5F8"/>
<circle cx="65.156" cy="65.769" r="45" fill="#553FA5"/>
<g clip-path="url(#clip0_813_8004)">
<path opacity="0.1" d="M51.4577 61.6337V53.1658C50.8182 53.3225 50.2204 53.6159 49.7053 54.0258C49.1901 54.4358 48.77 54.9525 48.4737 55.5404L45.7631 60.9674V73.4955C46.1598 74.2037 46.7385 74.7929 47.4393 75.2024C48.1401 75.6119 48.9376 75.8267 49.7493 75.8246H86.1948C87.403 75.8246 88.5618 75.3446 89.4161 74.4903C90.2705 73.6359 90.7505 72.4772 90.7505 71.2689V70.1756H59.9996C57.7341 70.1756 55.5615 69.2756 53.9595 67.6737C52.3576 66.0718 51.4577 63.8991 51.4577 61.6337Z" fill="white"/>
<path d="M46.0649 67.0264H54.0374M56.8847 67.0264H57.4542" stroke="#A28EEB" stroke-width="1.70838" stroke-linecap="round" stroke-linejoin="round"/>
<path d="M78.8545 61.0641H70.5517C70.4007 61.0641 70.2559 61.0041 70.1491 60.8973C70.0423 60.7905 69.9823 60.6457 69.9823 60.4947V56.5084C69.9823 56.3574 70.0423 56.2126 70.1491 56.1058C70.2559 55.999 70.4007 55.939 70.5517 55.939H74.8682C74.9432 55.9385 75.0175 55.9529 75.0869 55.9812C75.1562 56.0096 75.2194 56.0513 75.2726 56.1041L79.2588 60.0903C79.3391 60.17 79.3939 60.2718 79.4161 60.3827C79.4384 60.4936 79.4271 60.6086 79.3837 60.713C79.3403 60.8175 79.2668 60.9067 79.1726 60.9692C79.0783 61.0317 78.9676 61.0648 78.8545 61.0641ZM54.4303 61.0641H65.4209C65.5719 61.0641 65.7168 61.0041 65.8236 60.8973C65.9304 60.7905 65.9904 60.6457 65.9904 60.4947V56.5084C65.9904 56.3574 65.9304 56.2126 65.8236 56.1058C65.7168 55.999 65.5719 55.939 65.4209 55.939H56.6455C56.5446 55.9391 56.4455 55.9661 56.3585 56.0172C56.2714 56.0682 56.1995 56.1414 56.1501 56.2294L53.9349 60.2156C53.8862 60.3022 53.861 60.4 53.8618 60.4993C53.8627 60.5987 53.8894 60.696 53.9395 60.7818C53.9896 60.8676 54.0612 60.9388 54.1473 60.9883C54.2334 61.0378 54.331 61.064 54.4303 61.0641Z" fill="#A28EEB"/>
<path d="M80.8475 60.8023L74.4297 54.356C74.0063 53.9331 73.5038 53.5977 72.9507 53.369C72.3977 53.1404 71.805 53.023 71.2066 53.0234H53.1319C52.2855 53.0228 51.4557 53.258 50.7356 53.7026C50.0154 54.1472 49.4333 54.7836 49.0545 55.5405L46.2414 61.1724C45.9258 61.8056 45.7621 62.5036 45.7631 63.2111V71.2462C45.7631 72.4544 46.243 73.6132 47.0974 74.4675C47.9518 75.3219 49.1105 75.8019 50.3188 75.8019H86.7642C87.9725 75.8019 89.1312 75.3219 89.9856 74.4675C90.84 73.6132 91.3199 72.4544 91.3199 71.2462V66.6905C91.3199 65.4823 90.84 64.3235 89.9856 63.4691C89.1312 62.6148 87.9725 62.1348 86.7642 62.1348H84.0935C83.4912 62.1383 82.8942 62.0223 82.3371 61.7936C81.7799 61.5649 81.2736 61.2279 80.8475 60.8023Z" stroke="white" stroke-width="1.70838" stroke-linecap="round" stroke-linejoin="round"/>
<path d="M56.6 80.9954C59.4305 80.9954 61.7251 78.7008 61.7251 75.8703C61.7251 73.0397 59.4305 70.7451 56.6 70.7451C53.7695 70.7451 51.4749 73.0397 51.4749 75.8703C51.4749 78.7008 53.7695 80.9954 56.6 80.9954Z" fill="#382383" stroke="white" stroke-width="1.70838" stroke-linecap="round" stroke-linejoin="round"/>
<path d="M79.3784 80.9954C82.209 80.9954 84.5036 78.7008 84.5036 75.8703C84.5036 73.0397 82.209 70.7451 79.3784 70.7451C76.5479 70.7451 74.2533 73.0397 74.2533 75.8703C74.2533 78.7008 76.5479 80.9954 79.3784 80.9954Z" fill="#382383" stroke="white" stroke-width="1.70838" stroke-linecap="round" stroke-linejoin="round"/>
<path d="M67.135 67.0264H69.4128M91.2061 68.8543H89.9191C89.6768 68.8558 89.4366 68.8096 89.2122 68.7183C88.9878 68.6269 88.7835 68.4923 88.6111 68.322C88.4387 68.1517 88.3016 67.9492 88.2075 67.7259C88.1134 67.5026 88.0642 67.263 88.0627 67.0207C88.0642 66.7784 88.1134 66.5387 88.2075 66.3155C88.3016 66.0922 88.4387 65.8896 88.6111 65.7194C88.7835 65.5491 88.9878 65.4144 89.2122 65.3231C89.4366 65.2318 89.6768 65.1855 89.9191 65.187H90.8474M66.7079 80.9952H86.8782M46.0023 80.9952H62.7331M43.2177 80.9952H43.6789M42.6482 69.3213H45.4955M44.3566 70.745H45.4955M76.0072 62.203H67.7045C67.5534 62.203 67.4086 62.143 67.3018 62.0362C67.195 61.9295 67.135 61.7846 67.135 61.6336V57.6474C67.135 57.4963 67.195 57.3515 67.3018 57.2447C67.4086 57.1379 67.5534 57.0779 67.7045 57.0779H72.021C72.0959 57.0775 72.1702 57.0918 72.2396 57.1202C72.309 57.1485 72.3721 57.1903 72.4253 57.243L76.4115 61.2293C76.4918 61.3089 76.5466 61.4107 76.5689 61.5216C76.5911 61.6325 76.5798 61.7475 76.5364 61.852C76.4931 61.9564 76.4196 62.0456 76.3253 62.1081C76.2311 62.1707 76.1203 62.2037 76.0072 62.203ZM51.583 62.203H62.5736C62.7247 62.203 62.8695 62.143 62.9763 62.0362C63.0831 61.9295 63.1431 61.7846 63.1431 61.6336V57.6474C63.1431 57.4963 63.0831 57.3515 62.9763 57.2447C62.8695 57.1379 62.7247 57.0779 62.5736 57.0779H53.7982C53.6973 57.0781 53.5983 57.105 53.5112 57.1561C53.4242 57.2071 53.3522 57.2804 53.3028 57.3683L51.0876 61.3545C51.0389 61.4411 51.0138 61.5389 51.0146 61.6382C51.0154 61.7376 51.0422 61.8349 51.0922 61.9207C51.1423 62.0065 51.214 62.0777 51.3001 62.1272C51.3862 62.1767 51.4837 62.2029 51.583 62.203Z" stroke="white" stroke-width="1.70838" stroke-linecap="round" stroke-linejoin="round"/>
<g opacity="0.5">
<path d="M40.4158 60.7339V63.5812M41.8395 62.1575H38.9922" stroke="white" stroke-width="1.70838" stroke-linecap="round" stroke-linejoin="round"/>
</g>
<g opacity="0.5">
<path d="M85.836 55.324V58.1713M87.2597 56.7476H84.4124" stroke="white" stroke-width="1.70838" stroke-linecap="round" stroke-linejoin="round"/>
</g>
<path opacity="0.5" d="M70.8364 49.3903C71.6226 49.3903 72.26 48.7529 72.26 47.9666C72.26 47.1804 71.6226 46.543 70.8364 46.543C70.0501 46.543 69.4127 47.1804 69.4127 47.9666C69.4127 48.7529 70.0501 49.3903 70.8364 49.3903Z" stroke="white" stroke-width="1.70838" stroke-linecap="round" stroke-linejoin="round"/>
</g>
<defs>
<clipPath id="clip0_813_8004">
<rect width="54.0361" height="36.1608" fill="white" transform="translate(38.1379 45.6887)"/>
</clipPath>
</defs>
</svg>
