<svg width="19" height="20" viewBox="0 0 19 20" fill="none" xmlns="http://www.w3.org/2000/svg">
<path d="M17.6182 3C18.1705 3 18.6182 3.44772 18.6182 4C18.6182 4.55228 18.1705 5 17.6182 5H16.6183L16.6157 5.07129L15.682 18.1425C15.6073 19.1891 14.7364 20 13.6871 20H5.54932C4.50005 20 3.62916 19.1891 3.5544 18.1425L2.62074 5.07129C2.61904 5.04738 2.61818 5.02361 2.61816 5H1.61816C1.06588 5 0.618164 4.55228 0.618164 4C0.618164 3.44772 1.06588 3 1.61816 3H17.6182ZM14.6157 5H4.62075L5.54932 18H13.6871L14.6157 5ZM11.6182 0C12.1705 0 12.6182 0.44772 12.6182 1C12.6182 1.55228 12.1705 2 11.6182 2H7.61816C7.06588 2 6.61816 1.55228 6.61816 1C6.61816 0.44772 7.06588 0 7.61816 0H11.6182Z" fill="#553FA5"/>
</svg>
