<svg width="15" height="15" viewBox="0 0 15 15" fill="none" xmlns="http://www.w3.org/2000/svg">
<path fill-rule="evenodd" clip-rule="evenodd" d="M8.60805 0.757812C9.42813 0.757812 10.1 1.39238 10.1593 2.19728L10.1636 2.31337V7.75781H10.9414C11.7615 7.75781 12.4333 8.39236 12.4927 9.19727L12.4969 9.31337V11.2578C12.4969 11.4726 12.6711 11.6467 12.8858 11.6467C13.0767 11.6467 13.2355 11.5091 13.2684 11.3277L13.2747 11.2578V7.75781C13.233 7.75781 13.1913 7.7561 13.1495 7.75276C12.8815 7.73113 12.6238 7.64037 12.4013 7.48948C12.1788 7.33851 11.9993 7.13248 11.8802 6.89152C11.7611 6.65057 11.7065 6.38278 11.7216 6.11438C11.7368 5.84599 11.8213 5.58611 11.9669 5.3601L12.0255 5.27525L11.1692 4.4189C10.8655 4.11515 10.8655 3.62269 11.1692 3.31895C11.4495 3.03858 11.8908 3.01701 12.1959 3.25425L12.2691 3.31895L14.3746 5.42448C14.634 5.68379 14.7923 6.02522 14.8242 6.38764L14.8303 6.52441V11.2578C14.8303 12.3317 13.9597 13.2023 12.8858 13.2023C11.8549 13.2023 11.0113 12.3999 10.9455 11.3857L10.9414 11.2578V9.31337H10.1636V13.2023C10.5932 13.2023 10.9414 13.5505 10.9414 13.98C10.9414 14.3789 10.6411 14.7077 10.2543 14.7526L10.1636 14.7578H0.830268C0.400717 14.7578 0.0524902 14.4096 0.0524902 13.98C0.0524902 13.5812 0.352747 13.2524 0.739563 13.2075L0.830268 13.2023V2.31337C0.830268 1.49331 1.46484 0.821462 2.26973 0.762079L2.38582 0.757812H8.60805ZM8.60805 8.53559H2.38582V13.2023H8.60805V8.53559ZM8.60805 2.31337H2.38582V6.98003H8.60805V2.31337Z" fill="#553FA5"/>
</svg>
