<svg width="20" height="23" viewBox="0 0 20 23" fill="none" xmlns="http://www.w3.org/2000/svg">
<path fill-rule="evenodd" clip-rule="evenodd" d="M5.28529 0.850586C2.73982 0.850586 0.675293 2.92764 0.675293 5.46059V19.5506C0.675293 20.6163 1.06362 21.5581 1.88719 22.0431C2.71017 22.5278 3.72277 22.412 4.65705 21.8976L4.65941 21.8963L9.54059 19.1856C9.66233 19.1177 9.86882 19.0631 10.114 19.0631C10.36 19.0631 10.561 19.118 10.6745 19.1826L15.5612 21.8963C16.4945 22.4158 17.5084 22.5365 18.3334 22.0506C19.1583 21.5648 19.5453 20.6193 19.5453 19.5506L19.5453 5.46059L19.5453 5.45705C19.5334 2.92755 17.4714 0.850586 14.9253 0.850586H5.28529Z" fill="#553FA5"/>
<path fill-rule="evenodd" clip-rule="evenodd" d="M13.7256 7.57026C14.0185 7.86315 14.0185 8.33802 13.7256 8.63092L9.72564 12.6309C9.43275 12.9238 8.95788 12.9238 8.66498 12.6309L7.16498 11.1309C6.87209 10.838 6.87209 10.3631 7.16498 10.0703C7.45788 9.77736 7.93275 9.77736 8.22564 10.0703L9.19531 11.0399L12.665 7.57026C12.9579 7.27736 13.4327 7.27736 13.7256 7.57026Z" fill="white"/>
</svg>
