<svg width="13" height="14" viewBox="0 0 13 14" fill="none" xmlns="http://www.w3.org/2000/svg">
<path d="M7.75744 14C7.63122 14 7.50841 13.9591 7.40744 13.8833L5.0741 12.1333C5.00165 12.079 4.94285 12.0085 4.90235 11.9275C4.86185 11.8465 4.84077 11.7572 4.84077 11.6667V8.38833L0.748102 3.78408C0.457438 3.45618 0.267656 3.05131 0.201565 2.61814C0.135474 2.18496 0.195886 1.74192 0.37554 1.34226C0.555195 0.942594 0.846447 0.603318 1.21429 0.365205C1.58213 0.127092 2.01092 0.000276744 2.4491 0L10.7324 0C11.1706 0.000513946 11.5993 0.12754 11.967 0.365812C12.3346 0.604085 12.6257 0.943467 12.8052 1.34317C12.9846 1.74288 13.0449 2.18591 12.9786 2.61902C12.9123 3.05213 12.7224 3.45689 12.4317 3.78467L8.34077 8.38833V13.4167C8.34077 13.5714 8.27931 13.7197 8.16991 13.8291C8.06052 13.9385 7.91215 14 7.75744 14Z" fill="#553FA5"/>
</svg>
