<svg width="688" height="648" viewBox="0 0 688 648" fill="none" xmlns="http://www.w3.org/2000/svg">
<path fill-rule="evenodd" clip-rule="evenodd" d="M554.69 436.1L578.133 423.262L626.695 383.073L637.3 386.98V386.422H636.742C636.184 371.351 633.393 354.048 625.578 349.582C616.648 344.559 592.646 359.071 585.948 363.537C561.946 380.282 557.48 408.749 554.69 436.1Z" fill="#17171A"/>
<path fill-rule="evenodd" clip-rule="evenodd" d="M305.179 585.134L304.621 585.693L273.921 573.971L218.661 634.254C219.777 580.669 222.01 565.598 268.339 539.922C300.155 522.618 302.946 546.62 304.063 585.693L305.179 585.134Z" fill="#17171A"/>
<path fill-rule="evenodd" clip-rule="evenodd" d="M261.085 542.155C269.458 542.155 278.947 549.411 285.645 553.877C282.854 552.76 280.063 551.644 276.714 551.644C259.411 551.644 239.874 572.855 233.176 599.089C227.595 620.3 232.06 638.162 243.224 644.302L227.595 634.813C216.431 628.673 211.407 610.811 216.989 589.6C224.245 563.366 243.782 542.155 261.085 542.155Z" fill="#17171A"/>
<path fill-rule="evenodd" clip-rule="evenodd" d="M277.272 551.643C294.576 551.643 302.948 572.854 296.25 599.088C289.552 625.323 270.016 646.533 252.712 646.533C235.409 646.533 227.036 625.323 233.734 599.088C240.432 572.854 259.969 551.643 277.272 551.643Z" fill="#505253"/>
<path fill-rule="evenodd" clip-rule="evenodd" d="M274.48 567.831C286.201 567.831 291.783 582.343 287.318 600.205C282.852 618.067 269.456 632.58 257.734 632.58C246.013 632.58 240.431 618.067 244.896 600.205C249.362 582.343 262.758 567.831 274.48 567.831Z" fill="#CCD1D0"/>
<path fill-rule="evenodd" clip-rule="evenodd" d="M274.484 567.831H275.042C283.415 571.18 287.322 583.46 283.415 598.531C278.949 615.834 266.111 629.789 254.948 629.789C252.715 629.789 251.04 629.231 249.366 628.672C243.784 623.091 242.109 612.485 245.459 600.205C249.366 582.343 262.762 567.831 274.484 567.831Z" fill="#9EA8A6"/>
<path fill-rule="evenodd" clip-rule="evenodd" d="M267.226 589.042C271.133 589.042 272.808 593.507 271.133 599.089C269.459 604.671 265.551 609.136 261.644 609.136C257.737 609.136 256.062 604.671 257.737 599.089C258.853 594.066 263.319 589.042 267.226 589.042Z" fill="#17171A"/>
<path fill-rule="evenodd" clip-rule="evenodd" d="M252.713 611.927C253.829 611.927 254.387 613.602 254.387 615.276C253.829 616.951 252.713 618.625 251.038 618.625C249.922 618.625 249.364 616.951 249.364 615.276C249.922 613.602 251.597 611.927 252.713 611.927Z" fill="#17171A"/>
<path fill-rule="evenodd" clip-rule="evenodd" d="M260.526 615.276C261.642 615.276 262.2 616.95 262.2 618.625C261.642 620.299 260.526 621.974 258.851 621.974C257.735 621.974 257.177 620.299 257.177 618.625C257.735 616.392 259.409 615.276 260.526 615.276Z" fill="#17171A"/>
<path fill-rule="evenodd" clip-rule="evenodd" d="M270.015 609.694C271.132 609.694 271.69 611.368 271.69 613.043C271.132 614.717 270.015 616.392 268.341 616.392C267.224 616.392 266.666 614.717 266.666 613.043C267.224 611.368 268.899 609.694 270.015 609.694Z" fill="#17171A"/>
<path fill-rule="evenodd" clip-rule="evenodd" d="M277.273 597.414C278.389 597.414 278.947 599.088 278.947 600.763C278.389 602.438 277.273 604.112 275.598 604.112C274.482 604.112 273.924 602.438 273.924 600.763C274.482 599.088 275.598 597.414 277.273 597.414Z" fill="#17171A"/>
<path fill-rule="evenodd" clip-rule="evenodd" d="M278.944 584.576C280.06 584.576 280.619 586.251 280.619 587.925C280.06 589.6 278.944 591.274 277.27 591.274C276.153 591.274 275.595 589.6 275.595 587.925C276.153 585.693 277.828 584.576 278.944 584.576Z" fill="#17171A"/>
<path fill-rule="evenodd" clip-rule="evenodd" d="M273.924 576.203C275.04 576.203 275.599 577.877 275.599 579.552C275.04 581.226 273.924 582.901 272.25 582.901C270.575 582.901 270.575 581.226 270.575 579.552C271.691 577.877 272.808 576.203 273.924 576.203Z" fill="#17171A"/>
<path fill-rule="evenodd" clip-rule="evenodd" d="M264.99 577.32C266.107 577.32 266.665 578.995 266.665 580.669C266.107 582.344 264.99 584.018 263.316 584.018C262.199 584.018 261.641 582.344 261.641 580.669C262.199 578.995 263.874 577.32 264.99 577.32Z" fill="#17171A"/>
<path fill-rule="evenodd" clip-rule="evenodd" d="M256.061 587.366C257.177 587.366 257.736 589.041 257.736 590.715C257.177 592.39 256.061 594.064 254.387 594.064C253.27 594.064 252.712 592.39 252.712 590.715C253.27 588.483 254.945 587.366 256.061 587.366Z" fill="#17171A"/>
<path fill-rule="evenodd" clip-rule="evenodd" d="M251.597 600.205C252.713 600.205 253.271 601.88 253.271 603.555C252.713 605.229 251.597 606.904 249.922 606.904C248.806 606.904 248.248 605.229 248.248 603.555C249.364 601.88 250.48 600.205 251.597 600.205Z" fill="#17171A"/>
<path fill-rule="evenodd" clip-rule="evenodd" d="M594.875 350.699C603.248 350.699 612.737 357.956 619.435 362.421C616.644 361.305 613.853 360.189 610.504 360.189C593.2 360.189 573.664 381.399 566.966 407.634C561.384 428.845 565.85 446.706 577.013 452.846L561.384 443.357C550.22 437.217 545.197 419.356 550.779 398.145C558.035 371.91 577.571 350.699 594.875 350.699Z" fill="#17171A"/>
<path fill-rule="evenodd" clip-rule="evenodd" d="M610.506 360.189C627.81 360.189 636.182 381.4 629.484 407.634C622.786 433.869 603.25 455.079 585.946 455.079C568.643 455.079 560.27 433.869 566.968 407.634C574.224 381.4 593.203 360.189 610.506 360.189Z" fill="#505253"/>
<path fill-rule="evenodd" clip-rule="evenodd" d="M607.714 376.934C619.435 376.934 625.017 391.447 620.552 409.309C616.086 427.171 602.69 441.683 590.968 441.683C579.247 441.683 573.665 427.171 578.13 409.309C583.154 391.447 595.992 376.934 607.714 376.934Z" fill="#CCD1D0"/>
<path fill-rule="evenodd" clip-rule="evenodd" d="M607.713 376.934H608.271C616.644 380.284 620.551 392.563 616.644 407.634C612.179 424.938 599.341 438.892 588.177 438.892C585.944 438.892 584.27 438.334 582.595 437.776C577.013 432.194 575.339 421.589 578.688 409.309C583.153 391.447 595.991 376.934 607.713 376.934Z" fill="#9EA8A6"/>
<path fill-rule="evenodd" clip-rule="evenodd" d="M600.455 398.146C604.363 398.146 606.037 402.611 604.363 408.193C602.688 413.775 598.781 418.24 594.874 418.24C590.966 418.24 589.292 413.775 590.966 408.193C592.641 402.611 597.106 398.146 600.455 398.146Z" fill="#17171A"/>
<path fill-rule="evenodd" clip-rule="evenodd" d="M585.942 421.031C587.059 421.031 587.617 422.705 587.617 424.38C587.059 426.054 585.942 427.729 584.268 427.729C582.593 427.729 582.593 426.054 582.593 424.38C583.71 422.147 584.826 421.031 585.942 421.031Z" fill="#17171A"/>
<path fill-rule="evenodd" clip-rule="evenodd" d="M594.315 423.821C595.432 423.821 595.99 425.496 595.99 427.17C595.432 428.845 594.315 430.519 592.641 430.519C590.966 430.519 590.966 428.845 590.966 427.17C591.525 425.496 593.199 423.821 594.315 423.821Z" fill="#17171A"/>
<path fill-rule="evenodd" clip-rule="evenodd" d="M603.805 418.797C604.921 418.797 605.479 420.472 605.479 422.146C604.921 423.821 603.805 425.495 602.13 425.495C601.014 425.495 600.456 423.821 600.456 422.146C601.014 419.914 602.13 418.797 603.805 418.797Z" fill="#17171A"/>
<path fill-rule="evenodd" clip-rule="evenodd" d="M610.507 406.519C611.623 406.519 612.181 408.193 612.181 409.868C611.623 411.543 610.507 413.217 608.832 413.217C607.158 413.217 607.158 411.543 607.158 409.868C607.716 408.193 609.39 406.519 610.507 406.519Z" fill="#17171A"/>
<path fill-rule="evenodd" clip-rule="evenodd" d="M612.739 393.122C613.855 393.122 614.413 394.796 614.413 396.471C613.855 398.145 612.739 399.82 611.064 399.82C609.39 399.82 609.39 398.145 609.39 396.471C609.948 394.796 611.064 393.122 612.739 393.122Z" fill="#17171A"/>
<path fill-rule="evenodd" clip-rule="evenodd" d="M607.714 385.308C608.83 385.308 609.388 386.982 609.388 388.657C608.83 390.331 607.714 392.006 606.039 392.006C604.923 392.006 604.365 390.331 604.365 388.657C604.923 386.424 606.597 385.308 607.714 385.308Z" fill="#17171A"/>
<path fill-rule="evenodd" clip-rule="evenodd" d="M598.785 386.424C599.901 386.424 600.46 388.099 600.46 389.773C599.901 391.448 598.785 393.122 597.11 393.122C595.994 393.122 595.436 391.448 595.436 389.773C595.994 388.099 597.11 386.424 598.785 386.424Z" fill="#17171A"/>
<path fill-rule="evenodd" clip-rule="evenodd" d="M589.851 395.913C590.967 395.913 591.526 397.588 591.526 399.263C590.967 400.937 589.851 402.612 588.177 402.612C586.502 402.612 586.502 400.937 586.502 399.263C587.06 397.588 588.177 395.913 589.851 395.913Z" fill="#17171A"/>
<path fill-rule="evenodd" clip-rule="evenodd" d="M585.386 409.309C586.503 409.309 587.061 410.984 587.061 412.658C586.503 414.333 585.386 416.007 583.712 416.007C582.037 416.007 582.037 414.333 582.037 412.658C582.595 410.984 584.27 409.309 585.386 409.309Z" fill="#17171A"/>
<path fill-rule="evenodd" clip-rule="evenodd" d="M672.463 110.124L663.533 107.891L367.697 280.927C342.579 302.138 259.969 464.01 240.432 491.361C229.827 505.873 198.569 530.991 201.918 561.691C184.615 582.902 174.567 622.533 188.522 646.535C201.36 642.069 211.407 638.162 219.78 634.813C220.896 581.228 223.129 566.157 269.458 540.48C301.274 523.177 304.065 547.179 305.181 586.251L305.739 585.693L555.246 435.543C557.478 408.192 561.944 380.283 586.504 363.538C593.202 359.072 617.204 344.559 626.135 349.583C633.949 354.049 636.74 371.352 637.298 386.423L683.627 358.514L687.534 303.812L683.627 298.231L683.069 159.802L672.463 110.124Z" fill="#DE8D42"/>
<path fill-rule="evenodd" clip-rule="evenodd" d="M683.625 223.992V179.338C669.671 186.036 655.716 192.734 642.32 199.99L354.299 365.77C353.183 383.073 353.183 399.819 353.183 414.889L683.625 223.992Z" fill="#BF702A"/>
<path fill-rule="evenodd" clip-rule="evenodd" d="M672.464 110.124L663.533 107.891L367.698 280.927C357.651 289.3 338.115 320.558 317.462 356.281L680.837 149.197L672.464 110.124Z" fill="#DA802E"/>
<path fill-rule="evenodd" clip-rule="evenodd" d="M672.464 110.124L663.533 107.891L367.698 280.927C358.209 288.742 340.347 317.209 320.811 350.699L679.72 145.289L672.464 110.124Z" fill="#E6AB77"/>
<path fill-rule="evenodd" clip-rule="evenodd" d="M684.184 298.788L683.626 227.341C668.555 256.924 671.904 255.808 672.462 304.928L684.184 298.788Z" fill="#CB2629"/>
<path fill-rule="evenodd" clip-rule="evenodd" d="M201.359 561.133C184.056 582.344 174.567 621.975 188.521 645.976C201.359 641.511 211.407 637.604 219.779 634.255C220.896 580.669 223.128 565.599 269.457 539.922C301.273 522.619 304.064 546.62 305.181 585.693L305.739 585.135L555.245 435.543C557.478 408.192 561.943 380.283 586.503 363.538C593.201 359.072 617.203 344.559 626.134 349.583C633.948 354.049 636.739 371.352 637.297 386.423L646.787 380.841C647.345 348.467 644.554 310.511 604.365 330.605C558.036 353.49 555.245 379.725 543.523 429.403L318.019 562.249C316.344 548.853 315.786 516.479 299.599 510.339C278.388 502.524 215.314 558.9 201.359 561.133Z" fill="#BF702A"/>
<path fill-rule="evenodd" clip-rule="evenodd" d="M200.8 560.575C182.938 582.344 173.449 622.533 187.403 647.093C200.8 642.069 210.847 638.72 219.22 635.371C219.778 596.856 221.452 577.878 237.64 561.133L230.383 543.271C217.545 552.202 206.381 560.017 200.8 560.575Z" fill="#37393B"/>
<path fill-rule="evenodd" clip-rule="evenodd" d="M241.547 489.685C240.989 490.243 240.989 490.801 240.431 491.359C230.942 504.197 204.707 526.525 201.916 552.759C213.08 547.177 214.196 546.619 223.685 532.106C240.431 507.547 244.338 504.756 241.547 489.685Z" fill="#E4E6E6"/>
<path fill-rule="evenodd" clip-rule="evenodd" d="M369.93 335.07C360.441 335.07 328.066 356.839 320.252 367.444C310.204 380.841 251.037 483.546 256.061 495.267L257.736 496.942C270.574 496.942 347.044 443.357 352.626 435.542C369.371 412.657 372.72 341.21 369.93 335.07Z" fill="#DA802E"/>
<path fill-rule="evenodd" clip-rule="evenodd" d="M363.79 343.442C355.417 343.442 326.392 362.978 319.694 372.467C310.205 384.747 257.736 476.847 261.643 486.894L263.318 488.569C274.481 488.569 343.695 440.565 348.719 433.867C363.232 412.656 366.581 348.466 363.79 343.442Z" fill="#17171A"/>
<path fill-rule="evenodd" clip-rule="evenodd" d="M268.9 464.009C263.876 475.173 261.086 484.104 262.202 486.895L263.876 488.569C267.226 488.569 274.482 485.22 283.413 479.638C282.296 477.964 281.18 475.731 280.064 474.057C276.156 468.475 272.249 465.126 268.9 464.009Z" fill="#505253"/>
<path fill-rule="evenodd" clip-rule="evenodd" d="M186.847 173.756L349.277 270.321L367.139 280.926C367.139 280.926 367.139 280.926 367.697 280.368L663.532 107.333L671.346 109.565L491.054 2.39483L483.24 0.162109L186.847 173.756Z" fill="#F2D3B2"/>
<path fill-rule="evenodd" clip-rule="evenodd" d="M358.209 442.24L660.742 272.554V292.09L214.199 543.829C252.155 516.478 311.88 471.824 358.209 442.24Z" fill="#DA802E"/>
<path fill-rule="evenodd" clip-rule="evenodd" d="M329.741 556.108C323.602 536.572 322.485 533.781 337.556 524.292C355.418 513.128 536.826 408.191 540.175 408.191L542.408 409.307C542.966 414.889 539.617 426.611 538.501 432.192L329.741 556.108Z" fill="#37393B"/>
<path fill-rule="evenodd" clip-rule="evenodd" d="M621.667 349.025C623.342 349.025 624.458 349.583 625.574 350.141C633.389 354.607 636.18 371.91 636.738 386.981L683.625 359.072L687.532 304.371L683.625 298.789L632.831 327.814L621.667 349.025Z" fill="#37393B"/>
<path fill-rule="evenodd" clip-rule="evenodd" d="M374.397 428.285L371.606 425.494L362.675 431.076L361.001 435.542V453.962L363.792 456.752L372.164 452.845L374.397 447.263V428.285Z" fill="#17171A"/>
<path fill-rule="evenodd" clip-rule="evenodd" d="M363.789 449.496V435.542L372.719 430.518V445.031L363.789 449.496Z" fill="#37393B"/>
<path fill-rule="evenodd" clip-rule="evenodd" d="M369.928 428.286L366.021 431.077V453.962L369.928 452.288V428.286Z" fill="#67696A"/>
<path fill-rule="evenodd" clip-rule="evenodd" d="M408.446 409.308L405.655 405.958L396.724 411.54L395.05 416.006V434.426L397.841 437.775L406.213 433.309L408.446 428.286V409.308Z" fill="#17171A"/>
<path fill-rule="evenodd" clip-rule="evenodd" d="M397.838 429.961V416.006L406.769 410.982V425.495L397.838 429.961Z" fill="#37393B"/>
<path fill-rule="evenodd" clip-rule="evenodd" d="M403.977 409.308L400.07 411.541V434.984L403.977 432.751V409.308Z" fill="#67696A"/>
<path fill-rule="evenodd" clip-rule="evenodd" d="M372.72 277.577L191.87 170.406L186.288 173.755C161.17 194.966 79.1175 356.838 59.5812 383.631C48.9758 398.144 17.7178 423.262 21.0668 453.962C3.76327 475.172 -6.28396 514.803 7.67052 538.805L9.34506 540.479L188.521 647.65L190.195 645.417L188.521 645.975C174.566 621.974 184.055 582.343 201.917 561.132C199.126 530.99 230.384 505.314 240.431 490.801C259.968 464.009 342.02 302.137 367.696 280.368L372.72 277.577Z" fill="#EBBD8E"/>
<path fill-rule="evenodd" clip-rule="evenodd" d="M29.44 421.588C23.3001 431.635 19.3928 442.24 20.5092 453.962C2.64742 475.173 -6.84163 514.804 7.11286 539.364L8.7874 541.038L189.079 647.65L190.754 645.418L189.079 645.976C175.125 621.974 184.614 581.785 202.476 560.574C201.359 548.853 205.267 538.247 210.848 528.2L29.44 421.588Z" fill="#5A5E67"/>
<path fill-rule="evenodd" clip-rule="evenodd" d="M47.3 398.144C34.4619 412.657 18.8329 431.635 21.0656 453.962C20.5074 454.52 20.5074 454.52 19.9492 455.079C23.8565 458.428 28.8801 462.335 35.5783 467.359C64.6036 434.984 69.069 436.659 47.3 398.144Z" fill="white"/>
<path fill-rule="evenodd" clip-rule="evenodd" d="M242.108 490.244C171.219 498.059 177.917 493.593 167.312 543.829C186.848 548.853 195.221 552.202 201.919 553.318C204.71 526.526 232.06 504.199 241.55 490.802C242.108 490.802 242.108 490.244 242.108 490.244Z" fill="white"/>
<path fill-rule="evenodd" clip-rule="evenodd" d="M146.661 259.158C126.566 294.323 105.355 332.838 90.2845 359.63L246.575 452.288C262.204 424.937 282.856 386.981 302.951 351.816L146.661 259.158Z" fill="#17171A"/>
<path fill-rule="evenodd" clip-rule="evenodd" d="M146.661 259.158C126.566 294.323 105.355 332.838 90.2845 359.63L108.704 370.794C129.915 356.839 152.801 340.094 155.592 336.187C164.522 323.907 169.546 295.439 171.221 273.67L146.661 259.158Z" fill="#67696A"/>
<path fill-rule="evenodd" clip-rule="evenodd" d="M159.494 507.547L65.7196 450.613C64.045 452.846 62.3705 455.078 60.696 457.311L154.47 512.571C155.586 510.896 157.261 509.222 159.494 507.547ZM56.7887 462.893L149.447 517.595C147.772 519.269 146.097 520.944 144.423 522.618L53.4396 468.475C54.556 466.8 55.6723 464.568 56.7887 462.893ZM50.0906 474.057L139.399 527.084C137.725 528.758 136.608 530.433 134.934 532.107L47.8578 480.197C48.416 477.964 49.5324 476.289 50.0906 474.057ZM45.6251 486.337L131.027 536.573C122.654 548.294 119.305 559.458 108.699 588.483L49.5324 553.318C45.0669 520.385 41.7179 503.082 45.6251 486.337Z" fill="#505253"/>
<path fill-rule="evenodd" clip-rule="evenodd" d="M299.041 458.985L281.179 453.403L278.388 455.078C279.504 491.918 275.597 493.592 297.924 496.383C302.948 496.941 305.739 496.941 306.297 491.36C306.855 487.452 307.413 466.242 302.39 461.776L299.041 458.985Z" fill="#67696A"/>
<path fill-rule="evenodd" clip-rule="evenodd" d="M83.0237 331.163L67.9529 325.582L65.7202 327.256C66.2783 354.049 65.162 362.422 71.3019 365.771C75.7674 357.956 81.3492 347.909 87.4892 337.303C86.931 335.629 86.3728 334.513 85.8146 333.396L83.0237 331.163Z" fill="#67696A"/>
<path fill-rule="evenodd" clip-rule="evenodd" d="M436.912 327.255L445.284 322.232C446.959 321.115 448.633 320.557 449.75 320.557C450.866 320.557 451.982 320.557 453.099 321.673C454.215 322.232 454.773 323.906 455.332 325.581C455.89 327.255 455.89 329.488 455.89 332.279C455.89 335.07 455.89 337.302 455.332 338.977C454.773 341.768 454.215 344.001 453.099 345.675C452.541 347.35 451.424 348.466 449.75 350.141C448.633 351.257 447.517 352.373 445.842 352.931L436.912 357.955V327.255ZM441.377 330.046V350.141L444.726 348.466C445.843 347.908 446.959 347.35 447.517 346.791C448.075 346.233 448.633 345.117 449.192 344.559C449.75 343.442 450.308 342.326 450.308 340.651C450.866 338.977 450.866 337.302 450.866 334.512C450.866 332.279 450.866 330.604 450.308 329.488C449.75 328.372 449.75 327.813 449.192 327.255C448.633 326.697 448.075 326.697 446.959 327.255C446.401 327.255 445.284 327.813 443.052 328.93L441.377 330.046ZM459.797 345.117V314.417L476.542 304.928V309.952L464.262 317.208V323.906L475.984 317.208V322.232L464.262 328.93V337.302L477.101 330.046V335.07L459.797 345.117ZM481.566 332.837V302.695L486.031 299.904V325.022L497.753 318.324V323.348L481.566 332.837ZM500.544 321.673V290.974L505.01 288.183V318.882L500.544 321.673ZM515.615 313.301L507.242 287.066L512.266 284.275L517.848 303.812L523.429 278.135L528.453 275.344L520.08 310.51L515.615 313.301ZM531.244 304.37V273.67L547.989 264.181V269.205L535.709 276.461V283.159L547.431 276.461V281.484L535.709 288.183V296.555L548.548 289.299V294.323L531.244 304.37ZM552.455 292.648V261.948L561.944 256.366C564.177 255.25 566.409 254.134 567.526 254.134C568.642 254.134 569.758 254.692 570.317 255.808C570.875 256.925 571.433 258.041 571.433 260.274C571.433 262.506 570.875 264.739 569.758 266.972C568.642 269.205 566.967 270.879 565.293 272.554C566.409 272.554 566.967 273.112 567.526 273.67C568.084 274.228 569.2 275.344 570.317 277.019L573.107 281.484L567.526 284.834L564.177 279.81C563.06 278.135 561.944 277.019 561.944 276.461C561.386 275.903 560.827 275.903 560.827 275.903C560.269 275.903 559.711 276.461 558.595 277.019L557.478 277.577V290.415L552.455 292.648ZM556.92 271.995L560.269 270.321C562.502 269.205 563.618 268.088 564.177 267.53C564.735 266.972 565.293 266.414 565.293 265.297C565.851 264.739 565.851 263.623 565.851 262.506C565.851 261.39 565.851 260.832 565.293 260.274C564.735 259.715 564.177 259.715 563.618 260.274C563.06 260.274 561.944 260.832 560.269 261.948L556.92 264.181V271.995ZM580.364 276.461L584.829 273.67V260.832L593.202 238.505L587.62 241.296L582.596 256.366L577.015 247.436L571.433 250.785L579.806 263.623V276.461H580.364Z" fill="white"/>
</svg>
