<svg width="802" height="648" viewBox="0 0 802 648" fill="none" xmlns="http://www.w3.org/2000/svg">
<path fill-rule="evenodd" clip-rule="evenodd" d="M321.269 467.625L405.88 489.828L370.476 565.439L267.261 501.83L321.269 467.625Z" fill="#17171A"/>
<path fill-rule="evenodd" clip-rule="evenodd" d="M750.332 329.008L734.129 350.611L632.115 289.402L711.326 260.598L743.731 286.402L750.332 329.008Z" fill="#17171A"/>
<path fill-rule="evenodd" clip-rule="evenodd" d="M131.647 246.795C108.844 264.798 173.052 318.805 161.051 267.198C159.25 257.597 138.848 248.596 131.647 246.795Z" fill="#32348D"/>
<path fill-rule="evenodd" clip-rule="evenodd" d="M14.0298 426.82L5.62866 466.426L0.828003 475.427L1.42808 524.634H2.02817L207.256 647.65L260.063 551.037L308.07 464.625L367.478 413.018L419.085 333.207L433.487 350.01L716.126 155.583L753.931 124.379L553.503 4.96276V4.36268L545.102 0.162109C472.492 34.9669 296.668 114.178 235.46 172.986C191.654 215.591 119.044 318.806 115.444 322.406C108.843 329.007 86.6397 339.208 56.6356 372.213C47.6344 382.414 23.6311 413.018 14.0298 426.82Z" fill="#8683BC"/>
<path fill-rule="evenodd" clip-rule="evenodd" d="M51.2357 464.026L165.251 534.836C221.059 476.628 236.061 458.025 313.471 428.021L138.848 323.607C87.2406 373.414 81.8399 400.418 51.2357 464.026Z" fill="#7C78AB"/>
<path fill-rule="evenodd" clip-rule="evenodd" d="M14.0298 426.821L5.62866 466.426L0.828003 475.427V481.428L45.2341 504.231L61.4363 469.426L15.23 424.42C14.6299 425.02 14.0298 426.221 14.0298 426.821ZM218.058 600.844L234.26 554.038L157.449 528.234L133.446 551.038L218.058 600.844Z" fill="white"/>
<path fill-rule="evenodd" clip-rule="evenodd" d="M6.82882 457.423L5.02858 465.825L0.828003 475.426L1.42808 524.033H2.02817H1.42808L207.256 647.049L236.66 594.242L6.82882 457.423Z" fill="#505253"/>
<path fill-rule="evenodd" clip-rule="evenodd" d="M4.42849 468.226L0.828003 475.427L1.42808 512.632L207.256 636.849L221.658 599.044L4.42849 468.226Z" fill="#17171A"/>
<path fill-rule="evenodd" clip-rule="evenodd" d="M680.123 297.203C689.724 297.203 701.726 306.204 709.527 311.005C706.526 309.205 702.926 308.605 699.325 308.605C678.923 308.605 655.519 333.808 647.718 365.012C641.117 390.216 646.518 411.219 659.72 419.02L641.117 408.218C627.916 401.017 621.915 379.414 628.516 354.211C636.317 322.406 659.72 297.203 680.123 297.203Z" fill="#17171A"/>
<path fill-rule="evenodd" clip-rule="evenodd" d="M699.33 308.604C719.733 308.604 729.934 333.807 722.133 365.012C714.332 396.216 690.929 421.419 670.526 421.419C650.123 421.419 639.922 396.216 647.723 365.012C655.524 333.807 678.927 308.604 699.33 308.604Z" fill="#505253"/>
<path fill-rule="evenodd" clip-rule="evenodd" d="M695.729 328.407C709.531 328.407 716.732 345.809 711.331 366.812C705.931 387.815 690.328 405.217 675.926 405.217C662.125 405.217 654.924 387.815 660.324 366.812C666.325 345.209 681.927 328.407 695.729 328.407Z" fill="#CCD1D0"/>
<path fill-rule="evenodd" clip-rule="evenodd" d="M695.727 328.407H696.327C706.528 332.007 710.729 347.009 706.528 365.012C701.128 385.415 686.126 402.217 672.324 402.217C669.923 402.217 667.523 401.617 665.723 400.417C659.122 393.816 657.322 381.214 660.922 366.212C666.323 345.209 681.925 328.407 695.727 328.407Z" fill="#7D7E80"/>
<path fill-rule="evenodd" clip-rule="evenodd" d="M695.128 328.407C708.329 328.407 713.73 345.209 708.329 365.612C702.329 386.015 687.326 402.817 674.125 402.817C660.923 402.817 654.922 386.615 660.923 366.212C666.924 345.209 681.926 328.407 695.128 328.407ZM693.927 363.812C693.927 364.412 693.927 365.012 693.327 365.612C693.327 366.212 692.727 367.412 692.727 368.012L693.927 368.612L703.529 372.213C704.129 370.413 705.329 368.012 705.929 366.212C706.529 364.412 707.129 362.011 707.129 360.211L695.728 363.812H693.927ZM706.529 344.609C705.329 339.208 702.329 335.008 698.728 333.208L691.527 349.41L690.327 351.81C691.527 352.41 692.727 354.21 693.327 356.011L695.128 354.21L706.529 344.609ZM674.725 368.012C674.725 367.412 675.325 366.212 675.325 365.612C675.325 365.012 675.925 364.412 675.925 363.812L674.725 363.212L665.123 359.611C664.523 361.411 663.923 363.812 663.323 365.612C662.723 368.012 662.123 369.813 662.123 371.613L673.525 368.012H674.725ZM662.123 387.215C663.323 392.616 666.324 396.216 669.924 398.016L677.125 381.814L678.325 379.414C677.125 378.814 675.925 377.013 675.325 375.213L673.525 377.013L662.123 387.215ZM674.125 344.609L679.525 354.81L680.125 356.611C681.926 354.81 683.726 353.01 685.526 352.41L686.126 350.01L688.527 333.808C683.126 335.008 678.325 339.208 674.125 344.609ZM694.527 387.215L689.127 377.013L688.527 375.213C686.726 377.013 684.926 378.814 683.126 379.414L682.526 381.814L680.125 398.016C685.526 396.816 690.327 392.616 694.527 387.215Z" fill="white"/>
<path fill-rule="evenodd" clip-rule="evenodd" d="M318.871 504.831C328.473 504.831 340.474 513.832 348.275 518.632C345.275 516.832 341.674 516.232 338.074 516.232C317.671 516.232 294.268 541.436 286.467 572.64C279.866 597.843 285.267 618.846 298.469 626.647L279.866 615.846C266.664 608.645 260.663 587.042 267.264 561.838C275.065 530.034 297.868 504.831 318.871 504.831Z" fill="#17171A"/>
<path fill-rule="evenodd" clip-rule="evenodd" d="M337.474 516.231C357.877 516.231 368.079 541.435 360.278 572.639C352.477 603.843 329.073 629.047 308.671 629.047C288.268 629.047 278.066 603.843 285.867 572.639C293.669 541.435 317.072 516.231 337.474 516.231Z" fill="#505253"/>
<path fill-rule="evenodd" clip-rule="evenodd" d="M334.473 536.034C348.274 536.034 355.475 553.437 350.075 574.439C344.674 595.442 329.072 612.845 314.67 612.845C300.868 612.845 293.667 595.442 299.068 574.439C304.468 552.837 320.671 536.034 334.473 536.034Z" fill="#CCD1D0"/>
<path fill-rule="evenodd" clip-rule="evenodd" d="M334.475 536.034H335.075C345.277 539.635 349.477 554.637 345.277 572.639C339.876 593.042 324.874 609.844 311.072 609.844C308.672 609.844 306.271 609.244 304.471 608.044C297.87 601.443 296.07 588.841 299.671 573.839C304.471 552.837 320.673 536.034 334.475 536.034Z" fill="#7D7E80"/>
<path fill-rule="evenodd" clip-rule="evenodd" d="M333.274 536.634C346.476 536.634 351.877 553.437 346.476 573.839C340.475 594.242 325.473 611.044 312.271 611.044C299.069 611.044 293.669 594.242 299.069 573.839C305.07 552.836 320.672 536.634 333.274 536.634ZM332.074 571.439C332.074 572.039 332.074 572.639 331.474 573.239C331.474 573.839 330.874 575.04 330.874 575.64L332.074 576.24L341.675 579.84C342.275 578.04 343.475 575.64 344.076 573.839C344.676 572.039 345.276 569.639 345.276 567.839L333.874 571.439H332.074ZM345.276 552.236C344.076 546.836 341.075 542.635 337.475 540.835L330.274 557.037L329.074 559.437C330.274 560.037 331.474 561.838 332.074 563.638L333.874 561.838L345.276 552.236ZM313.471 575.64C313.471 575.04 314.071 573.839 314.071 573.239C314.071 572.639 314.672 572.039 314.672 571.439L312.871 570.839L303.27 567.238C302.67 569.039 302.07 571.439 301.47 573.239C300.87 575.64 300.27 577.44 300.27 579.24L311.671 575.64H313.471ZM300.27 594.842C301.47 600.243 304.47 603.843 308.071 605.644L315.272 589.441L316.472 587.041C315.272 586.441 314.071 584.641 313.471 582.841L311.671 584.641L300.27 594.842ZM312.271 552.236L317.672 562.438L318.872 564.238C320.672 562.438 322.473 560.638 324.273 560.037L324.873 557.637L327.273 541.435C321.873 543.235 317.072 546.836 312.271 552.236ZM333.274 594.842L327.873 584.641L327.273 582.841C325.473 584.641 323.673 586.441 321.873 587.041L321.272 589.441L318.872 606.244C323.673 604.444 329.074 600.243 333.274 594.842Z" fill="white"/>
<path fill-rule="evenodd" clip-rule="evenodd" d="M218.658 549.237L210.257 588.243L206.057 597.244L206.657 646.451C226.459 637.449 246.862 627.848 267.265 618.247V585.842C267.265 552.238 290.668 515.033 318.872 503.031C347.076 491.03 370.479 508.432 370.479 542.036V565.44L371.679 564.84L630.915 412.419V385.415C630.915 351.811 654.318 314.605 682.522 302.604C710.725 290.602 734.129 308.005 734.129 341.609V351.21L794.137 307.405L801.938 285.201L801.338 269.599L793.537 268.999L794.737 208.391L776.134 186.788L758.732 126.18L750.931 121.979C678.321 156.784 501.897 235.995 441.289 294.803C397.483 337.409 324.873 440.623 321.272 444.223C314.671 450.824 292.468 461.025 262.464 494.03C252.263 504.831 228.26 535.436 218.658 549.237Z" fill="#6665A9"/>
<path fill-rule="evenodd" clip-rule="evenodd" d="M774.335 182.587L759.933 132.78L751.532 138.181C749.131 161.584 747.931 169.385 761.733 186.188L774.335 182.587Z" fill="#CB2629"/>
<path fill-rule="evenodd" clip-rule="evenodd" d="M216.858 558.839L210.257 588.843L206.057 597.844L206.657 647.051C226.459 638.049 246.862 628.448 267.265 618.847V586.442C267.265 552.838 290.668 515.633 318.872 503.631C347.076 491.629 370.479 509.032 370.479 542.636V566.04L371.679 565.44L630.915 412.419V385.415C630.915 351.81 654.318 314.605 682.522 302.604C710.725 290.602 734.129 308.004 734.129 341.609V351.21L794.137 307.404L801.938 285.201L801.338 269.599L793.537 268.999L794.737 208.391L794.137 207.791C689.122 264.198 302.07 486.829 270.265 514.433L245.062 542.036C227.66 555.838 221.059 557.038 216.858 558.839Z" fill="#51529D"/>
<path fill-rule="evenodd" clip-rule="evenodd" d="M365.078 518.033C368.679 524.634 370.479 533.035 370.479 542.636V566.039L371.679 565.439L621.913 417.819L629.714 364.412L365.078 518.033Z" fill="#454488"/>
<path fill-rule="evenodd" clip-rule="evenodd" d="M724.529 310.405C730.53 317.606 734.131 328.408 734.131 341.609V351.211L794.139 307.405L801.94 285.202L801.34 269.6L794.139 269L726.93 308.005L724.529 310.405Z" fill="#17171A"/>
<path fill-rule="evenodd" clip-rule="evenodd" d="M216.258 560.638L210.257 588.842L206.057 597.843L206.657 647.05C226.459 638.049 246.862 628.448 267.265 618.846V586.442C267.265 568.439 273.866 549.837 284.067 534.235C275.066 531.234 267.265 528.234 261.264 525.834L256.464 529.434L244.462 542.636C231.86 553.437 224.659 556.438 220.459 557.638C218.658 558.838 217.458 559.438 216.258 560.638ZM369.879 546.236V566.039L371.079 565.439L630.915 412.418V385.415C630.915 351.81 654.318 314.605 682.522 302.603C710.725 290.602 734.129 308.004 734.129 341.609V351.21L741.33 345.809C740.129 319.406 735.929 282.801 709.525 280.4C647.117 273.799 612.312 401.017 593.71 417.219L369.879 546.236Z" fill="#37393B"/>
<path fill-rule="evenodd" clip-rule="evenodd" d="M209.058 590.642L205.458 597.843L206.058 638.649C233.062 621.846 231.861 614.045 253.464 571.44L248.064 567.239L209.058 590.642Z" fill="#17171A"/>
<path fill-rule="evenodd" clip-rule="evenodd" d="M218.059 552.238L212.059 579.841C234.262 565.44 243.263 561.239 258.265 540.236L279.868 493.43C270.267 500.031 234.262 534.235 218.059 552.238Z" fill="#E4E6E6"/>
<path fill-rule="evenodd" clip-rule="evenodd" d="M494.697 370.413C487.496 376.414 482.095 385.415 482.095 390.816C482.095 396.217 488.096 396.217 494.697 390.816C501.898 384.815 507.298 375.814 507.298 370.413C507.898 364.412 501.898 365.013 494.697 370.413Z" fill="#6665A9"/>
<path fill-rule="evenodd" clip-rule="evenodd" d="M494.697 370.413C488.696 375.214 483.295 383.015 482.095 389.016L506.698 374.014C507.298 372.814 507.298 371.613 507.298 370.413C507.898 364.412 501.898 365.013 494.697 370.413Z" fill="#32348D"/>
<path fill-rule="evenodd" clip-rule="evenodd" d="M480.894 385.415C473.693 393.816 478.494 395.016 478.494 395.016L509.698 375.813L510.298 369.812L480.894 385.415Z" fill="white"/>
<path fill-rule="evenodd" clip-rule="evenodd" d="M621.312 297.203C614.111 303.204 608.71 312.205 608.71 317.606C608.71 323.006 614.711 323.006 621.312 317.606C628.513 311.605 633.914 302.604 633.914 297.203C634.514 291.202 628.513 291.802 621.312 297.203Z" fill="#6665A9"/>
<path fill-rule="evenodd" clip-rule="evenodd" d="M621.312 297.203C615.311 302.004 609.911 309.805 608.71 315.805L633.314 300.803C633.914 299.603 633.914 298.403 633.914 297.203C634.514 291.202 628.513 291.802 621.312 297.203Z" fill="#32348D"/>
<path fill-rule="evenodd" clip-rule="evenodd" d="M607.51 312.205C600.309 320.606 605.109 321.807 605.109 321.807L636.314 302.604L636.914 296.603L607.51 312.205Z" fill="white"/>
<path fill-rule="evenodd" clip-rule="evenodd" d="M394.48 378.214L370.477 415.419L384.279 423.82C423.284 399.817 678.319 247.396 692.121 232.394C707.123 216.792 704.723 189.188 704.123 169.385C625.512 198.789 596.708 205.99 522.898 248.596C451.488 290.002 442.487 311.004 394.48 378.214Z" fill="#32348D"/>
<path fill-rule="evenodd" clip-rule="evenodd" d="M408.282 369.812L386.079 404.017L398.681 410.618C413.083 401.616 460.489 372.813 513.296 341.008L528.898 249.196L527.098 250.396C461.089 287.601 452.688 307.404 408.282 369.812ZM534.899 327.206C576.305 301.403 618.911 275.599 648.915 256.397L627.912 202.389C600.308 212.591 575.105 223.392 540.9 241.995L534.899 327.206ZM663.317 246.795L644.714 195.788C660.916 189.788 678.919 183.787 699.922 175.986C700.522 193.988 702.322 214.391 688.52 228.793C686.72 231.193 677.119 237.794 663.317 246.795Z" fill="#17171A"/>
<path fill-rule="evenodd" clip-rule="evenodd" d="M16.4312 489.229C20.6318 489.229 24.8323 494.629 25.4324 501.23C26.0325 507.831 23.0321 513.232 18.2315 513.232C14.0309 513.232 9.83031 507.831 9.23022 501.23C9.23022 494.629 12.2306 489.229 16.4312 489.229Z" fill="#F9ED41"/>
<path fill-rule="evenodd" clip-rule="evenodd" d="M191.055 593.643C195.256 593.643 199.456 599.043 200.056 605.644C200.656 612.245 197.656 617.646 192.855 617.646C188.655 617.646 184.454 612.245 183.854 605.644C183.854 599.043 186.854 593.643 191.055 593.643Z" fill="#F9ED41"/>
<path fill-rule="evenodd" clip-rule="evenodd" d="M314.671 440.622C318.872 436.422 390.882 333.208 435.288 290.602C436.488 289.402 437.688 288.202 438.888 287.001L246.862 171.786C245.062 172.986 243.862 174.786 242.062 175.986C198.256 218.592 125.646 321.806 122.045 325.407L314.671 440.622Z" fill="#32348D"/>
<path fill-rule="evenodd" clip-rule="evenodd" d="M313.471 436.421C317.671 432.221 387.881 332.607 430.486 291.802C431.687 290.602 432.887 289.401 434.087 288.201L248.062 176.586C246.261 177.786 245.061 179.586 243.861 180.787C200.655 221.592 130.446 321.206 126.845 324.806L313.471 436.421Z" fill="#17171A"/>
<path fill-rule="evenodd" clip-rule="evenodd" d="M309.87 213.191L285.267 198.189L282.866 229.993C291.867 224.592 300.869 219.192 309.87 213.191ZM270.865 189.788L248.062 175.986C246.261 177.186 245.061 178.986 243.861 180.186C217.457 205.39 180.852 252.796 155.649 287.001L172.451 297.202C194.654 283.4 227.059 264.198 261.863 242.595L270.865 189.788Z" fill="#67696A"/>
<path fill-rule="evenodd" clip-rule="evenodd" d="M442.488 234.794C473.693 213.191 514.498 190.988 555.904 169.385L424.486 91.9744C383.68 112.977 342.875 135.78 312.271 156.783L442.488 234.794Z" fill="#32348D"/>
<path fill-rule="evenodd" clip-rule="evenodd" d="M441.889 231.794C471.293 211.391 509.698 190.388 548.703 170.585L424.486 96.7754C386.081 116.578 347.676 138.181 318.872 158.584L441.889 231.794Z" fill="#17171A"/>
<path fill-rule="evenodd" clip-rule="evenodd" d="M447.289 110.577L424.486 97.3752C415.485 102.176 406.484 106.977 397.483 111.777L411.285 149.582C425.687 140.581 434.688 133.98 437.088 131.58C443.089 124.979 446.089 117.778 447.289 110.577ZM381.881 119.578C358.477 132.18 336.874 145.382 318.872 157.983L359.077 181.987C372.879 172.986 386.081 165.184 396.883 157.983L381.881 119.578Z" fill="#67696A"/>
<path fill-rule="evenodd" clip-rule="evenodd" d="M378.279 419.619C374.079 385.415 467.692 415.419 417.885 436.422C408.283 440.022 385.48 425.62 378.279 419.619Z" fill="#32348D"/>
</svg>
