<svg width="866" height="650" viewBox="0 0 866 650" fill="none" xmlns="http://www.w3.org/2000/svg">
<path fill-rule="evenodd" clip-rule="evenodd" d="M192.658 247.005C191.167 244.023 170.294 229.859 167.312 229.859C162.094 229.113 163.585 231.35 160.603 235.077C159.112 237.314 158.366 243.277 160.603 246.259C165.821 252.968 173.276 261.169 179.985 266.387L194.894 254.459L192.658 247.005Z" fill="#DA814A"/>
<path fill-rule="evenodd" clip-rule="evenodd" d="M256.02 598.866L281.366 613.775L232.165 649.558L1.07005 511.646C1.07005 457.227 -4.14823 466.172 10.0157 430.39C18.2158 410.262 12.2521 405.789 35.3616 379.698C77.1078 331.243 146.436 285.769 162.837 269.369C206.819 225.386 220.238 170.967 302.239 112.82C370.077 65.1104 445.369 18.8913 529.607 19.6368C585.517 20.3823 551.971 27.0915 623.536 0.254639C642.173 14.4185 856.122 106.857 852.395 144.876C851.65 150.094 840.468 153.076 822.576 154.567L792.012 179.167L292.548 501.209L256.02 598.866Z" fill="#F8F297"/>
<path fill-rule="evenodd" clip-rule="evenodd" d="M150.166 280.549C156.13 276.076 160.603 272.349 162.839 269.367C206.822 225.384 220.24 170.965 302.242 112.819C358.152 73.3089 419.28 35.29 486.373 23.3625L724.922 168.729L543.028 340.187L401.389 431.134L150.166 280.549Z" fill="#FDF9BD"/>
<path fill-rule="evenodd" clip-rule="evenodd" d="M466.241 27.8364C487.114 22.6181 507.987 19.6362 529.606 19.6362C544.515 19.6362 552.716 20.3817 558.679 20.3817L806.175 167.239L792.011 178.421L790.52 179.166L699.573 167.984L466.241 27.8364Z" fill="#F0C934"/>
<path fill-rule="evenodd" clip-rule="evenodd" d="M256.02 598.866L263.475 603.338L262.729 627.193L232.165 649.557L1.07005 511.646C1.07005 457.227 -4.14823 466.172 10.0157 430.39C10.7611 428.153 11.5066 426.662 12.2521 424.426L262.729 580.229L256.02 598.866Z" fill="#DE8D42"/>
<path fill-rule="evenodd" clip-rule="evenodd" d="M1.06822 498.226C1.06822 483.317 0.322754 474.371 0.322754 467.662L239.618 609.301L240.364 640.611L1.06822 498.226Z" fill="#A26025"/>
<path fill-rule="evenodd" clip-rule="evenodd" d="M26.415 483.318L209.055 591.41L190.418 603.338L33.1243 510.154L26.415 483.318Z" fill="#17171A"/>
<path fill-rule="evenodd" clip-rule="evenodd" d="M359.64 457.972L292.548 501.209L273.166 553.392L261.984 565.319L196.382 513.882C273.166 442.317 312.675 428.153 410.332 402.062L359.64 457.972Z" fill="#F1ED82"/>
<path fill-rule="evenodd" clip-rule="evenodd" d="M12.2549 426.662C18.2186 410.262 14.4913 404.298 36.1099 379.698C73.3833 336.46 133.021 295.46 156.13 275.332C100.966 337.206 70.4014 378.952 40.5827 444.553L12.2549 426.662Z" fill="#F1ED82"/>
<path fill-rule="evenodd" clip-rule="evenodd" d="M26.415 448.28L38.3425 428.898L228.437 541.464L206.073 554.882L26.415 448.28Z" fill="#F0C934"/>
<path fill-rule="evenodd" clip-rule="evenodd" d="M259.749 586.937L254.531 547.428L199.366 513.882L171.784 534.755L259.749 586.937ZM7.78101 436.353C8.52647 434.116 9.27194 432.626 10.0174 430.389C14.4902 419.953 14.4902 413.243 17.4721 405.789L50.2727 425.916L54 466.172L7.78101 436.353Z" fill="white"/>
<path fill-rule="evenodd" clip-rule="evenodd" d="M724.177 279.805L771.141 326.024L780.832 330.497V329.006C780.832 319.315 780.832 298.441 774.123 282.787C763.687 262.659 743.559 264.895 724.177 279.805Z" fill="#17171A"/>
<path fill-rule="evenodd" clip-rule="evenodd" d="M333.552 503.446L384.989 554.138L394.68 558.611V557.12C393.935 538.483 395.426 481.827 350.698 494.5C344.734 496.737 338.77 499.719 333.552 503.446Z" fill="#17171A"/>
<path fill-rule="evenodd" clip-rule="evenodd" d="M338.767 498.227C349.949 498.227 362.622 507.918 371.567 513.882C367.84 512.391 364.113 510.9 360.385 510.9C338.021 510.9 311.93 539.228 302.984 573.52C295.529 601.102 301.493 624.957 316.403 633.157L296.275 621.23C281.366 613.775 275.402 589.92 282.111 561.592C290.311 525.81 316.403 498.227 338.767 498.227Z" fill="#17171A"/>
<path fill-rule="evenodd" clip-rule="evenodd" d="M359.641 510.9C382.005 510.9 393.933 539.228 384.987 573.519C376.042 607.811 350.696 636.138 327.586 636.138C305.222 636.138 293.295 607.811 302.24 573.519C311.186 538.482 337.277 510.9 359.641 510.9Z" fill="#505253"/>
<path fill-rule="evenodd" clip-rule="evenodd" d="M355.912 532.518C371.567 532.518 379.022 551.155 373.058 575.01C367.095 598.119 349.949 617.501 334.294 617.501C318.639 617.501 311.184 598.865 317.148 575.01C323.112 551.155 341.003 532.518 355.912 532.518Z" fill="#CCD1D0"/>
<path fill-rule="evenodd" clip-rule="evenodd" d="M355.914 532.518H356.659C367.841 536.245 373.059 553.391 367.841 572.773C361.877 595.883 344.732 613.774 329.822 613.774C326.84 613.774 324.604 613.029 322.368 612.283C315.658 604.828 312.676 591.41 317.149 575.01C323.113 551.155 341.004 532.518 355.914 532.518Z" fill="#7D7E80"/>
<path fill-rule="evenodd" clip-rule="evenodd" d="M726.413 273.84C737.595 273.84 750.268 283.531 759.213 289.495C755.486 288.004 751.759 286.513 748.031 286.513C725.667 286.513 699.576 314.841 690.63 349.132C683.175 376.715 689.139 400.57 704.049 408.77L683.921 396.842C669.011 389.388 663.048 365.533 669.757 337.205C677.957 302.168 703.303 273.84 726.413 273.84Z" fill="#17171A"/>
<path fill-rule="evenodd" clip-rule="evenodd" d="M747.283 286.514C769.647 286.514 781.574 314.841 772.629 349.133C763.683 383.425 738.337 411.752 715.228 411.752C692.864 411.752 680.936 383.425 689.882 349.133C698.827 314.841 724.919 286.514 747.283 286.514Z" fill="#505253"/>
<path fill-rule="evenodd" clip-rule="evenodd" d="M743.554 308.134C759.209 308.134 766.664 326.77 760.7 350.625C754.736 373.735 737.59 393.117 721.936 393.117C706.281 393.117 698.826 374.48 704.79 350.625C710.753 327.516 728.645 308.134 743.554 308.134Z" fill="#CCD1D0"/>
<path fill-rule="evenodd" clip-rule="evenodd" d="M743.56 308.134H744.305C755.487 311.861 760.705 329.007 755.487 348.389C749.523 371.498 732.378 389.39 717.468 389.39C714.486 389.39 712.25 388.644 710.014 387.899C703.304 380.444 700.322 367.026 704.795 350.625C710.759 327.516 728.65 308.134 743.56 308.134Z" fill="#7D7E80"/>
<path fill-rule="evenodd" clip-rule="evenodd" d="M288.076 595.883L287.331 618.992L235.894 647.32L228.439 645.829C228.439 591.41 223.221 600.356 237.385 564.573C245.585 544.446 239.621 539.973 262.731 513.881C304.477 465.426 373.805 419.952 390.206 403.552C434.188 359.569 447.607 305.15 529.608 247.004C597.446 199.294 671.993 153.075 756.976 153.82C812.886 154.566 779.34 161.275 850.905 134.438C863.578 159.038 850.16 182.893 854.632 198.548L865.069 214.203C867.305 221.658 859.851 270.113 842.705 288.004L780.831 330.496C784.558 211.221 683.92 287.259 675.72 368.515L676.465 393.861L394.678 557.864C393.933 540.718 396.169 481.826 350.696 494.499C310.44 506.427 292.549 560.1 288.076 595.883Z" fill="#F4EC58"/>
<path fill-rule="evenodd" clip-rule="evenodd" d="M288.074 595.884L287.329 618.993L235.892 647.321L228.437 645.83C228.437 642.848 228.437 639.866 228.437 636.884C245.583 625.702 273.91 606.32 269.438 592.902C264.965 581.72 245.583 592.902 227.691 604.084C227.691 590.665 229.182 585.447 238.128 563.828C241.11 557.119 241.855 552.646 243.346 548.174C256.765 535.501 270.929 523.573 286.583 511.646C455.059 380.443 630.99 287.26 832.266 164.257L850.903 135.184C862.831 159.785 850.158 182.894 854.63 198.549L865.067 214.204C867.303 221.658 859.849 270.114 842.703 288.005L780.829 330.497C784.556 211.222 683.918 287.26 675.718 368.516L676.463 393.862L394.676 557.865C393.931 540.719 396.167 481.827 350.694 494.5C310.438 506.427 292.547 560.101 288.074 595.884Z" fill="#F0C934"/>
<path fill-rule="evenodd" clip-rule="evenodd" d="M860.597 206.748L865.07 213.457C867.306 220.912 859.852 269.367 842.706 287.259L800.214 316.332L788.287 320.059L785.305 285.768L771.141 265.64L860.597 206.748Z" fill="#DE8D42"/>
<path fill-rule="evenodd" clip-rule="evenodd" d="M714.482 288.005C695.845 306.642 679.445 337.206 676.463 367.77L677.208 387.152L405.112 534.755L387.221 510.155C384.985 506.427 382.748 502.7 379.766 499.718L375.293 493.754L714.482 288.005Z" fill="white"/>
<path fill-rule="evenodd" clip-rule="evenodd" d="M855.377 147.858C858.358 166.495 851.649 183.64 853.886 195.568L821.831 217.186L813.63 212.714C827.049 180.659 831.522 167.24 855.377 147.858Z" fill="white"/>
<path fill-rule="evenodd" clip-rule="evenodd" d="M853.884 187.366C853.884 190.348 853.884 193.33 854.63 195.567L822.575 217.185L815.12 212.712L853.884 187.366Z" fill="#DA802E"/>
<path fill-rule="evenodd" clip-rule="evenodd" d="M288.074 595.883L287.329 618.993L235.892 647.32L228.437 645.829C228.437 632.411 227.691 622.72 227.691 616.011C305.22 558.61 270.929 604.083 289.565 554.137C301.493 522.082 355.912 432.625 405.113 516.118L670.5 352.115C670.5 352.115 726.41 211.221 778.593 260.422C788.284 269.368 792.011 291.732 794.247 302.914L858.358 258.931C854.63 270.859 849.412 282.041 843.448 288.75L781.574 331.242C785.302 211.967 684.663 288.005 676.463 369.261L677.209 394.607L394.676 557.864C393.931 540.718 396.167 481.826 350.694 494.499C310.438 506.427 292.547 560.101 288.074 595.883Z" fill="#D7742D"/>
<path fill-rule="evenodd" clip-rule="evenodd" d="M233.656 574.265C234.401 571.283 235.892 568.301 237.383 564.574C240.365 557.864 241.11 552.646 242.601 548.173C253.783 528.791 270.183 515.373 292.548 503.445C300.748 528.046 249.31 563.083 233.656 574.265Z" fill="#E4E6E6"/>
<path fill-rule="evenodd" clip-rule="evenodd" d="M525.134 260.422C459.533 318.569 440.896 349.133 391.695 415.48L396.913 419.207C430.459 398.334 712.992 221.658 721.192 214.203C730.138 206.003 735.356 196.312 739.083 186.621C704.792 178.421 683.173 172.457 648.882 188.112C610.863 206.003 561.662 236.567 525.134 260.422Z" fill="#DA802E"/>
<path fill-rule="evenodd" clip-rule="evenodd" d="M569.119 241.041C493.827 289.497 487.118 302.17 428.226 372.989L443.88 386.408L554.955 315.588L569.119 241.041Z" fill="#17171A"/>
<path fill-rule="evenodd" clip-rule="evenodd" d="M586.263 230.604L579.554 299.933L686.156 232.841C689.884 191.84 692.865 201.531 679.447 185.131C645.155 194.076 615.337 211.968 586.263 230.604Z" fill="#17171A"/>
<path fill-rule="evenodd" clip-rule="evenodd" d="M688.394 183.639L710.012 213.458C721.194 204.513 723.431 203.767 728.649 192.585C712.994 187.367 705.539 185.876 688.394 183.639Z" fill="#17171A"/>
<path fill-rule="evenodd" clip-rule="evenodd" d="M542.284 343.17C548.993 340.934 553.466 343.17 553.466 347.643C553.466 352.861 548.247 358.825 542.284 361.061C535.574 363.298 531.102 361.061 531.102 356.588C531.102 351.37 536.32 345.406 542.284 343.17Z" fill="#F9F5AD"/>
<path fill-rule="evenodd" clip-rule="evenodd" d="M542.281 343.168C547.5 340.932 552.718 342.423 553.464 346.15L531.099 359.569C531.099 358.823 530.354 358.078 530.354 357.332C531.099 351.369 536.318 345.405 542.281 343.168Z" fill="#DA802E"/>
<path fill-rule="evenodd" clip-rule="evenodd" d="M554.955 341.679C560.919 341.679 557.192 347.643 557.192 347.643L529.609 363.298L528.864 358.825L554.955 341.679Z" fill="white"/>
<path fill-rule="evenodd" clip-rule="evenodd" d="M681.684 256.695C688.393 254.459 692.866 256.695 692.866 261.168C692.866 266.386 687.647 272.35 681.684 274.586C674.975 276.823 670.502 274.586 670.502 270.114C670.502 264.895 675.72 258.932 681.684 256.695Z" fill="#F9F5AD"/>
<path fill-rule="evenodd" clip-rule="evenodd" d="M681.683 256.695C686.901 254.459 692.119 255.95 692.865 259.677L670.501 273.096C670.501 272.35 669.755 271.605 669.755 270.859C670.501 264.895 675.719 258.932 681.683 256.695Z" fill="#DA802E"/>
<path fill-rule="evenodd" clip-rule="evenodd" d="M694.354 255.204C700.318 255.204 696.591 261.167 696.591 261.167L668.263 277.568L667.518 273.095L694.354 255.204Z" fill="white"/>
<path fill-rule="evenodd" clip-rule="evenodd" d="M228.437 633.903C228.437 619.739 227.691 610.793 227.691 604.084L263.474 584.702L273.165 592.157L265.71 606.321L228.437 633.903Z" fill="#804D1C"/>
<path fill-rule="evenodd" clip-rule="evenodd" d="M277.638 149.347L479.659 270.113C438.659 317.078 397.658 378.951 371.567 401.315L170.29 282.041C209.054 237.312 235.146 193.33 277.638 149.347Z" fill="#17171A"/>
<path fill-rule="evenodd" clip-rule="evenodd" d="M277.64 149.347L312.677 170.22L308.204 194.821L191.166 269.368L185.202 264.149C216.512 225.385 241.112 187.366 277.64 149.347Z" fill="#7D7E80"/>
<path fill-rule="evenodd" clip-rule="evenodd" d="M425.99 378.206C429.717 377.461 458.79 386.406 461.772 388.643C466.99 393.115 464.754 393.115 464.009 398.334C464.009 401.316 460.281 405.788 455.808 405.788C446.863 405.788 433.444 404.297 423.753 402.806L418.535 380.442L425.99 378.206Z" fill="#DA814A"/>
<path fill-rule="evenodd" clip-rule="evenodd" d="M12.2533 481.081C15.2352 481.081 18.9625 485.553 20.4535 490.772C21.9444 495.99 20.4534 500.463 17.4716 500.463C14.4897 500.463 10.7624 495.99 9.27143 490.772C7.78049 485.553 9.27142 481.081 12.2533 481.081Z" fill="white"/>
<path fill-rule="evenodd" clip-rule="evenodd" d="M213.531 600.356C216.513 600.356 220.24 604.829 221.731 610.048C223.222 615.266 221.731 619.739 218.749 619.739C215.768 619.739 212.04 615.266 210.549 610.048C208.313 604.829 209.804 600.356 213.531 600.356Z" fill="white"/>
<path fill-rule="evenodd" clip-rule="evenodd" d="M480.406 31.5633L685.41 153.075L727.901 147.111L528.116 27.836C517.679 24.8541 492.333 28.5815 480.406 31.5633Z" fill="#17171A"/>
<path fill-rule="evenodd" clip-rule="evenodd" d="M355.167 532.518C369.33 532.518 376.04 551.155 369.33 573.519C362.621 595.883 346.221 614.52 331.312 614.52C317.148 614.52 310.438 595.883 317.148 573.519C323.857 551.155 341.003 532.518 355.167 532.518ZM353.676 571.282C353.676 572.028 353.676 572.773 352.93 573.519C352.93 574.264 352.185 575.01 352.185 575.755L353.676 576.501L364.112 580.228C364.858 577.992 365.603 575.755 366.349 573.519C367.094 571.282 367.84 569.046 367.84 566.81L355.167 570.537L353.676 571.282ZM368.585 550.409C367.094 544.446 364.112 539.973 359.639 537.736L351.439 555.628L350.694 558.609C352.185 559.355 353.676 560.846 354.421 563.828L356.658 562.337L368.585 550.409ZM332.803 576.501C332.803 575.755 332.803 575.01 333.548 574.264C333.548 573.519 334.293 572.773 334.293 572.028L332.803 571.282L322.366 566.81C321.62 569.046 320.875 571.282 320.13 573.519C319.384 575.755 318.639 577.992 318.639 580.228L331.312 576.501H332.803ZM318.639 597.374C320.13 603.338 323.111 607.81 327.584 609.301L335.039 591.41L336.53 588.428C335.039 587.683 333.548 586.192 332.803 583.955L330.566 586.192L318.639 597.374ZM332.057 550.409L338.021 561.591L338.766 563.082C341.003 560.846 342.494 559.355 344.73 557.864V554.882L346.966 536.991C342.494 539.973 337.275 544.446 332.057 550.409ZM355.167 597.374L349.203 586.192L348.457 583.955C346.966 586.192 344.73 587.683 342.494 588.428L341.748 591.41L339.512 609.301C344.73 607.81 349.948 603.338 355.167 597.374Z" fill="white"/>
<path fill-rule="evenodd" clip-rule="evenodd" d="M742.812 308.878C756.976 308.878 763.685 327.515 756.976 349.879C750.267 372.243 733.867 390.88 718.957 390.88C704.793 390.88 698.084 372.243 704.793 349.879C711.503 327.515 727.903 308.878 742.812 308.878ZM741.321 347.643C741.321 348.388 741.321 349.134 740.576 349.879C740.576 350.625 739.83 351.37 739.83 352.115L741.321 352.861L751.758 356.588C752.503 354.352 753.249 352.115 753.994 349.879C754.74 347.643 755.485 345.406 755.485 343.17L742.812 346.897L741.321 347.643ZM755.485 326.77C753.994 320.806 751.012 316.333 746.54 314.097L738.34 331.988V334.97C739.83 335.715 741.321 337.206 742.067 340.188L744.303 338.697L755.485 326.77ZM720.448 352.861C720.448 352.115 720.448 351.37 721.194 350.625C721.194 349.879 721.939 349.134 721.939 348.388L720.448 347.643L710.012 343.17C709.266 345.406 708.521 347.643 707.775 349.879C707.03 352.115 706.284 354.352 706.284 356.588L718.957 352.861H720.448ZM706.284 373.734C707.775 379.698 710.757 384.171 715.23 385.662L722.685 367.77L724.176 364.788C722.685 364.043 721.194 362.552 720.448 360.316L718.212 362.552L706.284 373.734ZM719.703 326.77L725.667 337.952L726.412 339.442C728.648 337.206 730.139 335.715 732.376 334.224V331.242L734.612 313.351C730.139 316.333 724.176 320.806 719.703 326.77ZM742.067 373.734L736.103 362.552L735.358 360.316C733.867 362.552 731.63 364.043 729.394 364.788L728.648 367.77L726.412 385.662C732.376 384.171 737.594 379.698 742.067 373.734Z" fill="white"/>
<path fill-rule="evenodd" clip-rule="evenodd" d="M513.209 443.063V420.699L505.009 425.171V420.699L526.627 407.28V411.753L518.427 416.971V439.335L513.209 443.063ZM551.973 419.208L540.791 399.08L534.827 402.807L524.391 436.353L530.354 432.626L532.591 425.171L543.773 418.462L546.009 422.935L551.973 419.208ZM541.537 414.735L534.082 419.208L537.809 407.28L541.537 414.735ZM551.973 419.208L561.664 399.08L553.464 391.625L560.173 387.898L565.392 392.371L570.61 381.189L577.319 377.461L567.628 395.353L577.319 403.553L570.61 407.28L564.646 402.062L558.682 414.735L551.973 419.208ZM580.301 402.062V375.225L585.519 371.498V398.335L580.301 402.062Z" fill="#17171A"/>
<path fill-rule="evenodd" clip-rule="evenodd" d="M404.37 481.081L414.807 474.372V484.809L404.37 491.518V481.081Z" fill="#17171A"/>
<path fill-rule="evenodd" clip-rule="evenodd" d="M414.803 484.808L425.24 478.844V489.281L414.803 495.245V484.808Z" fill="#17171A"/>
<path fill-rule="evenodd" clip-rule="evenodd" d="M404.37 501.954L414.807 495.245V505.682L404.37 512.391V501.954Z" fill="#17171A"/>
<path fill-rule="evenodd" clip-rule="evenodd" d="M424.499 468.408L434.936 461.699V472.136L424.499 478.845V468.408Z" fill="#17171A"/>
<path fill-rule="evenodd" clip-rule="evenodd" d="M434.932 472.881L445.368 466.172V476.609L434.932 482.572V472.881Z" fill="#17171A"/>
<path fill-rule="evenodd" clip-rule="evenodd" d="M424.499 489.281L434.936 482.572V493.008L424.499 499.717V489.281Z" fill="#17171A"/>
<path fill-rule="evenodd" clip-rule="evenodd" d="M444.623 455.735L455.059 449.025V459.462L444.623 466.171V455.735Z" fill="#17171A"/>
<path fill-rule="evenodd" clip-rule="evenodd" d="M455.061 460.209L465.497 453.5V463.936L455.061 469.9V460.209Z" fill="#17171A"/>
<path fill-rule="evenodd" clip-rule="evenodd" d="M444.623 476.608L455.059 469.899V480.335L444.623 487.045V476.608Z" fill="#17171A"/>
<path fill-rule="evenodd" clip-rule="evenodd" d="M465.499 443.062L475.19 436.353V446.79L465.499 453.499V443.062Z" fill="#17171A"/>
<path fill-rule="evenodd" clip-rule="evenodd" d="M475.19 447.535L485.626 440.826V451.262L475.19 457.226V447.535Z" fill="#17171A"/>
<path fill-rule="evenodd" clip-rule="evenodd" d="M465.499 463.935L475.19 457.226V467.663L465.499 474.372V463.935Z" fill="#17171A"/>
<path fill-rule="evenodd" clip-rule="evenodd" d="M484.133 431.135L494.569 424.426V434.863L484.133 441.572V431.135Z" fill="#17171A"/>
<path fill-rule="evenodd" clip-rule="evenodd" d="M484.133 452.008L494.569 445.299V455.735L484.133 462.444V452.008Z" fill="#17171A"/>
<path fill-rule="evenodd" clip-rule="evenodd" d="M595.957 364.043L605.648 358.079V367.77L595.957 373.734V364.043Z" fill="#17171A"/>
<path fill-rule="evenodd" clip-rule="evenodd" d="M605.646 367.77L615.338 361.806V371.497L605.646 377.461V367.77Z" fill="#17171A"/>
<path fill-rule="evenodd" clip-rule="evenodd" d="M595.957 383.424L605.648 377.46V387.152L595.957 393.115V383.424Z" fill="#17171A"/>
<path fill-rule="evenodd" clip-rule="evenodd" d="M614.59 352.86L624.281 346.151V355.842L614.59 361.806V352.86Z" fill="#17171A"/>
<path fill-rule="evenodd" clip-rule="evenodd" d="M624.281 356.588L633.972 350.624V360.315L624.281 366.279V356.588Z" fill="#17171A"/>
<path fill-rule="evenodd" clip-rule="evenodd" d="M614.59 372.243L624.281 366.279V375.97L614.59 381.934V372.243Z" fill="#17171A"/>
<path fill-rule="evenodd" clip-rule="evenodd" d="M633.971 340.934L643.663 334.225V343.916L633.971 349.88V340.934Z" fill="#17171A"/>
<path fill-rule="evenodd" clip-rule="evenodd" d="M643.662 344.66L653.353 338.697V348.388L643.662 354.351V344.66Z" fill="#17171A"/>
<path fill-rule="evenodd" clip-rule="evenodd" d="M633.971 360.315L643.663 354.351V364.042L633.971 370.006V360.315Z" fill="#17171A"/>
<path fill-rule="evenodd" clip-rule="evenodd" d="M653.353 329.006L662.299 323.042V331.987L653.353 338.697V329.006Z" fill="#17171A"/>
<path fill-rule="evenodd" clip-rule="evenodd" d="M662.302 332.734L671.993 326.77V336.461L662.302 342.425V332.734Z" fill="#17171A"/>
<path fill-rule="evenodd" clip-rule="evenodd" d="M653.353 348.388L662.299 342.424V352.115L653.353 358.079V348.388Z" fill="#17171A"/>
<path fill-rule="evenodd" clip-rule="evenodd" d="M390.952 109.838L380.515 150.838L441.644 187.366L452.826 147.111L390.952 109.838Z" fill="#DA802E"/>
<path fill-rule="evenodd" clip-rule="evenodd" d="M441.644 187.367L467.735 172.458L460.28 141.148L452.826 146.366V147.112L441.644 187.367Z" fill="#BF702A"/>
<path fill-rule="evenodd" clip-rule="evenodd" d="M390.953 109.839L398.408 103.875L460.281 141.148V141.894V141.148L452.827 146.366V147.112L390.953 109.839Z" fill="#E19A5C"/>
<path fill-rule="evenodd" clip-rule="evenodd" d="M393.932 149.347L399.896 129.965L395.423 127.729L396.914 124.001L408.096 130.71L406.605 134.438L402.878 131.456L396.914 150.838L393.932 149.347ZM414.06 161.275L415.551 135.183L412.569 133.692L399.896 153.074L402.878 154.565L405.86 150.093L411.823 153.82L411.078 159.784L414.06 161.275ZM411.823 148.602L412.569 138.911L408.096 146.365L411.823 148.602ZM414.06 161.275L423.005 152.329L422.26 138.911L425.987 141.147L426.733 149.347L431.951 144.129L435.678 146.365L427.478 154.565L428.224 169.475L424.496 167.238L423.751 157.547L417.787 163.511L414.06 161.275ZM428.969 170.22L431.951 171.711L439.406 148.602L436.424 147.111L428.969 170.22Z" fill="#17171A"/>
</svg>
