<svg width="58" height="22" viewBox="0 0 58 22" fill="none" xmlns="http://www.w3.org/2000/svg">
<path d="M41.3904 2.941C41.6917 3.20317 41.9475 3.45008 42.1617 3.67308H42.1346H42.0998H42.0646H42.0291H41.9933H41.9572H41.9208H41.884H41.847H41.8096H41.7719H41.734H41.6957H41.6571H41.6182H41.579H41.5396H41.4998H41.4597H41.4194H41.3787H41.3378H41.2966H41.2551H41.2133H41.1713H41.1289H41.0863H41.0434H41.0003H40.9569H40.9132H40.8692H40.825H40.7805H40.7358H40.6908H40.6455H40.6H40.5542H40.5082H40.4619H40.4154H40.3686H40.3216H40.2744H40.2269H40.1792H40.1312H40.083H40.0346H39.9859H39.937H39.8879H39.8385H39.789H39.7392H39.6891H39.6389H39.5885H39.5378H39.4869H39.4359H39.3846H39.3331H39.2814H39.2294H39.1773H39.125H39.0725H39.0198H38.9669H38.9138H38.8605H38.8071H38.7534H38.6996H38.6456H38.5914H38.537H38.4824H38.4277H38.3728H38.3177H38.2624H38.207H38.1514H38.0957H38.0398H37.9837H37.9275H37.8711H37.8145H37.7578H37.701H37.644H37.5868H37.5295H37.4721H37.4145H37.3568H37.2989H37.2409H37.1828H37.1246H37.0662H37.0076H36.949H36.8902H36.8313H36.7723H36.7132H36.6539H36.5945H36.535H36.4754H36.4157H36.3559H36.296H36.2359H36.1758H36.1156H36.0552H35.9948H35.9343H35.8736H35.8129H35.7521H35.6912H35.6302H35.5692H35.508H35.4468H35.3855H35.3241H35.2626H35.2011H35.1395H35.0778H35.016H34.9542H34.8923H34.8304H34.7684H34.7063H34.6442H34.582H34.5198H34.4575H34.3952H34.3328H34.2704H34.208H34.1455H34.0829H34.0203H33.9577H33.895H33.8323H33.7696H33.7069H33.6441H33.5813H33.5185H33.4556H33.3928H33.3299H33.267H33.204H33.1411H33.0782H33.0152H32.9523H32.8893H32.8263H32.7634H32.7004H32.6374H32.5745H32.5115H32.4486H32.3856H32.3227H32.2598H32.1969H32.134H32.0712H32.0083H31.9455H31.8827H31.82H31.7572H31.6945H31.6318H31.5692H31.5066H31.444H31.3815H31.319H31.2565H31.1941H31.1318H31.0695H31.0072H30.945H30.8829H30.8208H30.7587H30.6968H30.6349H30.573H30.5112H30.4495H30.3879H30.3263H30.2648H30.2033H30.142H30.0807H30.0195H29.9584H29.8974H29.8364H29.7755H29.7148H29.6541H29.5935H29.533H29.4726H29.4123H29.3521H29.292H29.2321H29.1722H29.1124H29.0527H28.9932H28.9337H28.8744H28.8152H28.7561H28.6971H28.6383H28.5796H28.521H28.4625H28.4042H28.346H28.2879H28.23H28.1722H28.1145H28.057H27.9996H27.9424H27.8853H27.8284H27.7716H27.715H27.6585H27.6021H27.546H27.49H27.4341H27.3785H27.3229H27.2676H27.2124H27.1574H27.1026H27.0479H26.9934H26.9391H26.885H26.831H26.7773H26.7237H26.6703H26.6171H26.5641H26.5113H26.4587H26.4063H26.354H26.302H26.2502H26.1986H26.1472H26.096H26.045H25.9942H25.9436H25.8932H25.8431H25.7932H25.7435H25.694H25.6448H25.5957H25.5469H25.4984H25.45H25.4019H25.3541H25.3065H25.2591H25.2119H25.165H25.1184H25.0719H25.0258H24.9799H24.9342H24.8888H24.8436H24.7987H24.7541H24.7097H24.6656H24.6218H24.5782H24.5349H24.4919H24.4491H24.4066H24.3644H24.3225H24.2808H24.2394H24.1983H24.1575H24.117H24.0768H24.0368H23.9972H23.9578H23.9188H23.88H23.8416H23.8034H23.7656H23.728H23.6908H23.6539H23.6173H23.581H23.545H23.5093H23.474H23.4389H23.4042H23.3699H23.3358H23.3021H23.2687H23.2356H23.2029H23.1705H23.1384H23.1067H23.0753H23.0443H23.0136H22.9833H22.9533H22.9236H22.8943H22.8654H22.8368H22.8086H22.7807H22.7532H22.7261H22.6993H22.6729H22.6469H22.6212H22.5959H22.571H22.5464H22.5223H22.4985H22.4751H22.4521H22.4294H22.4072H22.3853H22.3639H22.3428H22.3221H22.3018H22.2819H22.2625H22.2434H22.2247H22.2064H22.1886H22.1711H22.1541H22.1374H22.1212H22.1054H22.09H22.0751H22.0605H22.0464H22.0328H22.0195H22.0067H21.9943H21.9823H21.9708H21.9597H21.9491H21.9388H21.9291H21.9198H21.9109H21.9025H21.8945H21.887H21.8799H21.8733H21.8671H21.8614H21.8562H21.8514C21.803 3.67308 21.7819 3.6709 21.7681 3.66809C21.7582 3.66606 21.7572 3.66467 21.7571 3.66461C21.7562 3.66398 21.7516 3.66081 21.7437 3.65256C21.7358 3.64415 21.7226 3.62845 21.7061 3.60166C21.6728 3.54758 21.6254 3.44693 21.5839 3.27255L21.5784 3.24819C21.4919 2.86797 21.4015 2.47001 21.3563 2.12528C21.2919 1.60865 21.3262 1.4473 21.4291 1.28893C21.4435 1.26734 21.477 1.22113 21.5897 1.16087C21.7309 1.08543 22.0142 0.979731 22.5539 0.917854C23.2226 0.845827 26.0241 0.771849 29.0706 0.780473C32.1262 0.789123 35.2907 0.881248 36.6981 1.11844C38.0587 1.3495 38.9276 1.5503 39.6084 1.8172C40.2672 2.07546 40.7756 2.40606 41.3904 2.941Z" stroke="#7C8BA0" stroke-width="1.5"/>
<path d="M45.523 3.64425C45.5031 3.49833 45.5044 3.39596 45.5108 3.34295C45.5233 3.28994 45.5349 3.24596 45.5452 3.20984C45.6739 3.18709 45.8274 3.19849 46.0166 3.24979C46.2834 3.32216 46.5342 3.44811 46.7911 3.57709C46.8156 3.5894 46.8402 3.60175 46.8648 3.61408C46.9674 3.66537 47.0763 3.72809 47.1744 3.79634C47.1947 3.81047 47.2138 3.82431 47.2317 3.83781C47.2245 3.84118 47.2171 3.8446 47.2096 3.84808C47.0292 3.93069 46.7999 4.01209 46.5539 4.0845C46.3101 4.15626 46.0652 4.21472 45.8599 4.25467C45.8037 4.2656 45.7517 4.2749 45.7046 4.28262C45.6825 4.23594 45.6586 4.17842 45.6348 4.11C45.5834 3.96244 45.544 3.79748 45.523 3.64425ZM47.4137 4.01216C47.4137 4.01216 47.4133 4.01156 47.4127 4.01037C47.4134 4.01156 47.4138 4.01216 47.4137 4.01216ZM45.7923 4.42751C45.7923 4.42802 45.7887 4.42453 45.7816 4.41551C45.7888 4.42249 45.7923 4.427 45.7923 4.42751Z" stroke="#7C8BA0" stroke-width="1.5"/>
<path d="M17.4915 3.77283L17.7556 4.47476L17.4914 3.77283L17.4913 3.77289L17.4905 3.77318L17.4873 3.7744L17.474 3.77937L17.4213 3.79907C17.3749 3.81638 17.3065 3.84182 17.2191 3.87415C17.0441 3.93882 16.7929 4.03097 16.489 4.1406C15.8807 4.36003 15.0635 4.64861 14.2243 4.92656C13.3821 5.20549 12.5306 5.46947 11.8497 5.64282C11.8156 5.65149 11.7822 5.65988 11.7493 5.668C12.0806 5.37311 12.5084 5.02277 13.0151 4.60867C15.3106 2.74283 17.5757 1.8653 18.6969 1.46368L18.6969 1.4637L18.7017 1.46195C18.7662 1.43836 18.8196 1.42254 18.8631 1.41201C18.8535 1.48133 18.8355 1.5682 18.8059 1.67398C18.7064 2.02956 18.5255 2.43415 18.3423 2.84427L18.3284 2.8754C18.3282 2.87582 18.328 2.87625 18.3278 2.87667C18.1435 3.2841 17.915 3.50874 17.7547 3.62831C17.6726 3.68951 17.605 3.72563 17.5652 3.74431C17.5495 3.7517 17.5383 3.75629 17.5325 3.75855L17.5191 3.76242L17.4915 3.77283ZM19.0201 1.39269C19.0201 1.3927 19.0197 1.39265 19.0188 1.39249L19.0201 1.39269ZM10.7808 5.83652C10.7809 5.83643 10.7835 5.83656 10.7884 5.83719C10.7831 5.83693 10.7807 5.83661 10.7808 5.83652Z" stroke="#7C8BA0" stroke-width="1.5"/>
<path d="M9.79195 3.58978C10.1048 3.48159 10.4423 3.3913 10.7562 3.31045C10.3589 3.66743 10.027 4.00383 9.75403 4.3008C9.70432 4.35487 9.65658 4.40763 9.61079 4.45891C9.58376 4.41066 9.55848 4.36749 9.536 4.33001L9.52681 4.31471L9.51691 4.29986C9.48914 4.2582 9.46374 4.22159 9.44024 4.18772C9.37633 4.09559 9.32645 4.02369 9.28087 3.92529C9.2624 3.88539 9.25104 3.85338 9.24422 3.82801C9.24683 3.82641 9.24951 3.82478 9.25227 3.82312C9.37076 3.75193 9.55303 3.67241 9.79195 3.58978ZM9.17152 3.87906C9.16884 3.882 9.16725 3.88343 9.16712 3.8834C9.16699 3.88338 9.16833 3.88191 9.17152 3.87906Z" stroke="#7C8BA0" stroke-width="1.5"/>
<path d="M49.9151 19.9673L49.8501 18.6864L49.8506 18.6863C49.855 18.6858 49.8693 18.684 49.9017 18.6537C49.942 18.616 49.9916 18.5497 50.043 18.4491C50.0931 18.3512 50.1326 18.2449 50.1643 18.1466C50.1794 18.0995 50.1917 18.0578 50.2037 18.0171L50.205 18.0127C50.2054 18.0114 50.2059 18.0095 50.2066 18.007C50.2137 17.9824 50.2362 17.9044 50.2625 17.8431L50.4573 17.3885H50.9518H50.9561H50.9603H50.9645H50.9687H50.9728H50.977H50.9812H50.9853H50.9894H50.9935H50.9976H51.0017H51.0057H51.0098H51.0138H51.0179H51.0219H51.0259H51.0299H51.0338H51.0378H51.0417H51.0457H51.0496H51.0535H51.0574H51.0613H51.0651H51.069H51.0728H51.0767H51.0805H51.0843H51.0881H51.0919H51.0956H51.0994H51.1031H51.1069H51.1106H51.1143H51.118H51.1217H51.1253H51.129H51.1326H51.1363H51.1399H51.1435H51.1471H51.1507H51.1542H51.1578H51.1613H51.1649H51.1684H51.1719H51.1754H51.1789H51.1824H51.1858H51.1893H51.1927H51.1962H51.1996H51.203H51.2064H51.2098H51.2131H51.2165H51.2198H51.2232H51.2265H51.2298H51.2331H51.2364H51.2397H51.243H51.2462H51.2495H51.2527H51.2559H51.2592H51.2624H51.2656H51.2687H51.2719H51.2751H51.2782H51.2814H51.2845H51.2876H51.2907H51.2938H51.2969H51.3H51.3031H51.3061H51.3092H51.3122H51.3152H51.3182H51.3212H51.3242H51.3272H51.3302H51.3331H51.3361H51.339H51.342H51.3449H51.3478H51.3507H51.3536H51.3565H51.3594H51.3622H51.3651H51.3679H51.3708H51.3736H51.3764H51.3792H51.382H51.3848H51.3876H51.3903H51.3931H51.3958H51.3986H51.4013H51.404H51.4067H51.4095H51.4121H51.4148H51.4175H51.4202H51.4228H51.4255H51.4281H51.4307H51.4334H51.436H51.4386H51.4412H51.4438H51.4464H51.4489H51.4515H51.454H51.4566H51.4591H51.4616H51.4642H51.4667H51.4692H51.4717H51.4741H51.4766H51.4791H51.4815H51.484H51.4864H51.4889H51.4913H51.4937H51.4961H51.4985H51.5009H51.5033H51.5057H51.5081H51.5104H51.5128H51.5151H51.5175H51.5198H51.5221H51.5245H51.5268H51.5291H51.5314H51.5337H51.5359H51.5382H51.5405H51.5427H51.545H51.5472H51.5495H51.5517H51.5539H51.5561H51.5584H51.5606H51.5627H51.5649H51.5671H51.5693H51.5715H51.5736H51.5758H51.5779H51.5801H51.5822H51.5843H51.5864H51.5885H51.5907H51.5928H51.5948H51.5969H51.599H51.6011H51.6032H51.6052H51.6073H51.6093H51.6114H51.6134H51.6154H51.6175H51.6195H51.6215H51.6235H51.6255H51.6275H51.6295H51.6315H51.6334H51.6354H51.6374H51.6393H51.6413H51.6432H51.6452H51.6471H51.6491H51.651H51.6529H51.6548H51.6567H51.6586H51.6605H51.6624H51.6643H51.6662H51.6681H51.6699H51.6718H51.6737H51.6755H51.6774H51.6792H51.6811H51.6829H51.6847H51.6866H51.6884H51.6902H51.692H51.6938H51.6956H51.6974H51.6992H51.701H51.7028H51.7046H51.7064H51.7081H51.7099H51.7117H51.7134H51.7152H51.7169H51.7187H51.7204H51.7222H51.7239H51.7256H51.7274H51.7291H51.7308H51.7325H51.7342H51.7359H51.7376H51.7393H51.741H51.7427H51.7444H51.7461H51.7478H51.7494H51.7511H51.7528H51.7545H51.7561H51.7578H51.7594H51.7611H51.7627H51.7644H51.766H51.7668C51.7712 17.3604 51.7756 17.3288 51.78 17.2934C51.8201 16.9695 51.8355 16.5336 51.8564 15.9385C51.8654 15.6828 51.8755 15.3978 51.8889 15.0795C51.8978 14.8424 51.9123 14.6013 51.9278 14.3436C51.9764 13.5387 52.0346 12.5732 51.9581 11.0693L51.9581 11.0684C51.9055 10.0093 51.4989 8.9456 50.9514 8.15013C50.6789 7.75421 50.3861 7.44613 50.1099 7.24197C49.8293 7.03452 49.6113 6.9667 49.4728 6.96251C48.4947 6.94656 47.8718 7.07078 47.4058 7.35716C47.1426 7.51897 46.8927 7.75555 46.6504 8.11698C47.0639 8.12443 47.5372 8.13753 48.0085 8.1588C48.6113 8.18601 49.2324 8.2274 49.7365 8.29049C49.9868 8.32181 50.2271 8.36072 50.4292 8.41115C50.53 8.4363 50.6374 8.4682 50.7389 8.51037C50.8278 8.54731 50.9751 8.61712 51.1036 8.74555C51.318 8.95995 51.4424 9.2242 51.5185 9.43763C51.5977 9.65978 51.6456 9.88789 51.6757 10.0811C51.7062 10.2769 51.7211 10.4547 51.7286 10.5828C51.7323 10.6475 51.7342 10.7009 51.7352 10.7393C51.7357 10.7586 51.736 10.7742 51.7361 10.7857L51.7362 10.7998L51.7363 10.8045L51.7363 10.8062V10.8069V10.8072C51.7363 10.8073 51.7363 10.8075 50.9863 10.8075M49.9151 19.9673L41.7979 15.476C43.3795 15.2916 44.355 14.6639 44.9229 13.701C45.3211 13.0259 45.4838 12.2254 45.5964 11.5002C46.36 11.4851 47.4614 11.4931 48.4844 11.5079C49.1489 11.5176 49.7697 11.5299 50.2245 11.5398C50.4519 11.5448 50.6376 11.5491 50.7665 11.5523L50.9151 11.5559L50.9538 11.5569L50.9636 11.5571L50.966 11.5572L50.9666 11.5572L50.9667 11.5572L50.9863 10.8075M49.9151 19.9673C49.6296 19.9778 49.3371 19.9882 49.0378 19.9983C48.7108 20.0093 48.3758 20.0201 48.0332 20.0306L46.0592 18.6735C45.9628 18.6073 45.7752 18.3902 45.5906 17.9288L45.3995 17.451L44.8849 17.4574C36.5729 17.5607 23.6854 17.6983 21.0377 17.7155L20.539 17.7188L20.3491 18.1799C20.2303 18.4682 20.1494 18.6038 20.1034 18.6556L18.974 19.9262L20.6738 19.9038C22.4369 19.8806 24.268 19.8731 26.1525 19.8653C27.0596 19.8616 27.9792 19.8578 28.9094 19.8522C35.1504 19.8523 40.9252 19.921 45.615 20.0413L46.6991 20.0691C41.8326 20.2009 35.6524 20.2796 28.9243 20.2796C22.2256 20.2796 16.07 20.2015 11.2134 20.0708C12.5686 20.0381 14.0459 20.0053 15.586 19.9725L17.5072 19.9317L16.0663 18.6603C16.0195 18.619 15.9676 18.5612 15.9126 18.4847C16.0302 18.5325 16.1624 18.5616 16.3101 18.5616C16.8919 18.5616 17.2332 18.1101 17.3912 17.844C17.5781 17.5291 17.7201 17.1234 17.8292 16.6882C18.0503 15.8062 18.1787 14.6277 18.1787 13.3544C18.1787 12.0811 18.0503 10.9027 17.8292 10.0207C17.7201 9.58541 17.5781 9.17975 17.3912 8.86484C17.2332 8.59878 16.8919 8.14729 16.3101 8.14729C15.7283 8.14729 15.3869 8.59878 15.229 8.86484C15.1597 8.98159 15.0966 9.11081 15.039 9.2494C15.1396 8.69548 15.2972 8.17145 15.5295 7.6602C15.925 6.79986 16.3608 6.25038 17.2387 6.02218C18.211 5.76945 19.8464 5.87596 22.7355 6.82182C24.0678 7.26283 25.1887 7.77316 26.129 8.30951C24.8977 8.37832 24.0877 8.42664 23.5787 8.49892C23.3787 8.52732 23.1903 8.56363 23.0241 8.61733C22.8616 8.66983 22.6657 8.75585 22.5002 8.91688C22.1057 9.30067 22.1811 9.79287 22.2122 9.97971C22.2495 10.2211 22.3152 10.5535 22.4283 10.8434C22.4839 10.9861 22.5693 11.1671 22.7034 11.3247C22.8396 11.4847 23.0944 11.6952 23.469 11.6952C23.5316 11.6952 23.7839 11.6909 24.1654 11.6845C25.4232 11.6634 28.0854 11.6187 29.9847 11.6245C30.3663 12.1314 30.6349 12.58 30.8502 12.9394C30.8653 12.9647 30.8802 12.9896 30.8948 13.014C31.7814 14.5269 33.5046 15.2367 35.3929 15.5323C37.3052 15.8318 39.5691 15.7372 41.7977 15.4761L49.9151 19.9673ZM50.9863 10.8075L51.7363 10.8075L51.7363 11.5773L50.9668 11.5572L50.9863 10.8075ZM10.5849 18.6963L8.58481 19.9906C8.54397 19.9891 8.50327 19.9877 8.46269 19.9863L6.84705 19.0169C7.32198 18.9528 7.60091 18.5713 7.72809 18.357C7.89639 18.0733 8.02171 17.7129 8.11683 17.3336C8.30995 16.5635 8.42115 15.5399 8.42115 14.4386C8.42115 13.3373 8.30995 12.3137 8.11683 11.5436C8.02171 11.1643 7.89639 10.8039 7.72809 10.5202C7.5934 10.2932 7.28851 9.87878 6.76087 9.85231L6.76869 9.60983C6.78535 9.09339 6.81753 8.77277 6.83875 8.65802C6.87932 8.48864 6.95578 8.35742 7.03649 8.26471C7.07786 8.21719 7.11816 8.18235 7.15148 8.15889C7.18185 8.13752 7.20026 8.12988 7.2027 8.12887C7.20305 8.12872 7.20307 8.12871 7.20275 8.12882L7.30863 8.09353L7.39964 8.02894C7.58532 7.89717 8.11392 7.5978 8.60165 7.39501C8.62872 7.5966 8.70297 7.79018 8.82774 7.9674C9.06581 8.30553 9.4218 8.48393 9.6685 8.58261C9.75745 8.61819 9.84764 8.64915 9.93399 8.67604C9.92156 8.74089 9.90918 8.81063 9.89711 8.88551C9.80374 9.46489 9.73355 10.3266 9.79595 11.6014L9.79598 11.6019C9.83184 12.3242 10.0274 12.9208 10.3799 13.3895C10.7321 13.8578 11.1952 14.1376 11.6614 14.3053C12.3901 14.5676 13.248 14.5839 13.8355 14.5951C13.9506 14.5973 14.0553 14.5993 14.1466 14.6029L14.4849 14.6163C14.5399 15.3971 14.6453 16.107 14.791 16.6882C14.8323 16.8531 14.8784 17.0138 14.9298 17.1668L14.8268 17.1649C13.9048 17.1479 12.8455 17.1137 11.8037 17.0625L11.1984 17.0327L11.0422 17.6183C10.9478 17.9724 10.8438 18.2508 10.7434 18.4483C10.6581 18.6161 10.5981 18.6804 10.5846 18.6949C10.5807 18.6991 10.5806 18.6991 10.5849 18.6963ZM8.72158 6.59623C8.72187 6.59609 8.72103 6.59996 8.71816 6.60828C8.71985 6.60054 8.72129 6.59638 8.72158 6.59623ZM10.0829 8.05302C10.0831 8.05279 10.0824 8.05637 10.0804 8.0645C10.0818 8.05733 10.0828 8.05325 10.0829 8.05302Z" stroke="#7C8BA0" stroke-width="1.5"/>
</svg>
