<svg width="789" height="648" viewBox="0 0 789 648" fill="none" xmlns="http://www.w3.org/2000/svg">
<path fill-rule="evenodd" clip-rule="evenodd" d="M429.187 493.312L510.766 445.356V422.206L533.917 409.528L564.234 413.386L690.46 338.422V318.027L727.391 297.081V282.75L771.488 257.394L770.937 246.37L431.944 442.049V426.064H444.07V377.007H415.958V426.064H428.085L429.187 493.312Z" fill="#37393B"/>
<path fill-rule="evenodd" clip-rule="evenodd" d="M90.7461 306.452L80.2731 301.492L78.6195 303.145C79.1707 336.769 76.9659 337.871 89.6437 340.076C92.3997 340.627 94.0533 340.076 94.6045 335.667C94.6045 331.808 95.1558 312.516 92.3997 308.657L90.7461 306.452Z" fill="#323245"/>
<path fill-rule="evenodd" clip-rule="evenodd" d="M342.644 561.111L321.698 548.433L293.036 533C313.43 517.014 334.376 519.219 342.644 561.111Z" fill="#17171A"/>
<path fill-rule="evenodd" clip-rule="evenodd" d="M777.552 116.467L432.161 439.018L245.636 433.412V212.929L251.7 193.085L583.527 0.162109L600.063 11.1863L777.552 116.467Z" fill="#EAE6E6"/>
<path fill-rule="evenodd" clip-rule="evenodd" d="M444.071 472.917H431.945V323.54L435.803 310.862L250.046 200.069L245.636 213.298V433.781L374.619 515.36L383.438 521.423V523.628L431.945 506.544L444.071 498.276V472.917Z" fill="#AFC1CE"/>
<path fill-rule="evenodd" clip-rule="evenodd" d="M399.422 422.757L431.944 441.499L444.07 433.23V408.426L408.793 387.48L399.422 422.757Z" fill="#90A2AF"/>
<path fill-rule="evenodd" clip-rule="evenodd" d="M246.187 211.093L251.699 193.454L255.006 191.801L440.212 302.594L438.559 303.696L433.047 320.784L247.289 211.644L246.187 211.093Z" fill="#BECED9"/>
<path fill-rule="evenodd" clip-rule="evenodd" d="M610.535 341.179C619.906 341.179 630.379 349.447 638.096 353.856C635.34 352.203 632.032 351.652 628.725 351.652C609.433 351.652 587.936 375.353 580.77 404.016C574.707 427.167 579.668 447.011 591.794 454.176L574.707 443.703C562.029 437.089 557.068 417.245 563.131 393.543C569.746 364.329 591.243 341.179 610.535 341.179Z" fill="#17171A"/>
<path fill-rule="evenodd" clip-rule="evenodd" d="M628.173 351.652C647.465 351.652 656.835 375.354 649.118 404.017C641.402 432.68 619.904 456.382 601.163 456.382C581.871 456.382 572.501 432.68 580.217 404.017C587.383 374.803 608.88 351.652 628.173 351.652Z" fill="#505253"/>
<path fill-rule="evenodd" clip-rule="evenodd" d="M624.867 369.842C638.096 369.842 644.159 385.827 639.199 405.671C634.238 425.514 619.355 441.499 606.677 441.499C593.999 441.499 587.385 425.514 592.346 405.671C597.307 385.827 612.189 369.842 624.867 369.842Z" fill="#CCD1D0"/>
<path fill-rule="evenodd" clip-rule="evenodd" d="M624.864 369.842H625.416C634.786 373.15 639.196 386.93 634.786 404.017C629.825 423.309 615.494 438.743 602.816 438.743C600.611 438.743 598.406 438.192 596.753 437.09C590.689 431.026 589.036 419.451 592.343 405.671C597.304 385.827 612.187 369.842 624.864 369.842Z" fill="#9EA8A6"/>
<path fill-rule="evenodd" clip-rule="evenodd" d="M616.596 393.545C621.006 393.545 622.66 398.505 621.006 405.12C619.352 411.183 614.943 416.695 610.533 416.695C606.123 416.695 604.47 411.734 606.123 405.12C607.777 398.505 612.738 393.545 616.596 393.545Z" fill="#17171A"/>
<path fill-rule="evenodd" clip-rule="evenodd" d="M600.611 418.349C602.265 418.349 602.816 420.003 602.265 422.208C601.713 424.413 600.06 426.066 598.957 426.066C597.304 426.066 596.752 424.413 597.304 422.208C597.855 420.003 599.508 418.349 600.611 418.349Z" fill="#17171A"/>
<path fill-rule="evenodd" clip-rule="evenodd" d="M609.985 422.207C611.639 422.207 612.19 423.861 611.639 426.065C611.088 428.27 609.434 429.924 608.332 429.924C606.678 429.924 606.127 428.27 606.678 426.065C606.678 423.861 608.332 422.207 609.985 422.207Z" fill="#17171A"/>
<path fill-rule="evenodd" clip-rule="evenodd" d="M619.906 416.143C621.56 416.143 622.111 417.797 621.56 420.002C621.008 422.207 619.355 423.86 618.252 423.86C616.599 423.86 616.048 422.207 616.599 420.002C617.15 417.797 618.804 416.143 619.906 416.143Z" fill="#17171A"/>
<path fill-rule="evenodd" clip-rule="evenodd" d="M628.174 402.363C629.828 402.363 630.379 404.017 629.828 406.222C629.277 408.426 627.623 410.08 626.52 410.08C624.867 410.08 624.316 408.426 624.867 406.222C624.867 404.017 626.521 402.363 628.174 402.363Z" fill="#17171A"/>
<path fill-rule="evenodd" clip-rule="evenodd" d="M629.827 388.032C631.48 388.032 632.032 389.686 631.48 391.891C630.929 394.095 629.276 395.749 628.173 395.749C626.519 395.749 625.968 394.095 626.519 391.891C627.071 389.686 628.724 388.032 629.827 388.032Z" fill="#17171A"/>
<path fill-rule="evenodd" clip-rule="evenodd" d="M624.864 378.662C626.518 378.662 627.069 380.316 626.518 382.521C625.966 384.726 624.313 386.379 623.21 386.379C621.557 386.379 621.006 384.726 621.557 382.521C622.108 380.316 623.21 378.662 624.864 378.662Z" fill="#17171A"/>
<path fill-rule="evenodd" clip-rule="evenodd" d="M614.392 380.315C616.046 380.315 616.597 381.968 616.046 384.173C615.495 386.378 613.841 388.032 612.739 388.032C611.085 388.032 610.534 386.378 611.085 384.173C611.636 381.968 613.29 380.315 614.392 380.315Z" fill="#17171A"/>
<path fill-rule="evenodd" clip-rule="evenodd" d="M604.472 390.789C606.125 390.789 606.677 392.442 606.125 394.647C605.574 396.852 603.92 398.505 602.818 398.505C601.164 398.505 600.613 396.852 601.164 394.647C601.716 392.993 603.369 390.789 604.472 390.789Z" fill="#17171A"/>
<path fill-rule="evenodd" clip-rule="evenodd" d="M600.06 405.671C601.714 405.671 602.265 407.324 601.714 409.529C601.163 411.734 599.509 413.388 598.406 413.388C596.753 413.388 596.202 411.734 596.753 409.529C596.753 407.324 598.406 405.671 600.06 405.671Z" fill="#17171A"/>
<path fill-rule="evenodd" clip-rule="evenodd" d="M788.024 177.47L431.943 385.275V442.05L788.024 236.449V177.47Z" fill="#738097"/>
<path fill-rule="evenodd" clip-rule="evenodd" d="M459.501 426.065L475.487 416.694V361.573L459.501 370.944V426.065ZM606.123 341.73L622.108 332.359V275.585L606.123 284.955V341.73ZM736.759 266.214L752.744 256.844V199.518L736.759 208.889V266.214Z" fill="#626F87"/>
<path fill-rule="evenodd" clip-rule="evenodd" d="M757.157 195.659L741.171 205.03V263.458L757.157 254.087V195.659ZM626.52 272.277L610.535 281.648V339.525L626.52 330.154V272.277ZM479.899 357.715L463.914 367.085V423.86L479.899 414.489V357.715Z" fill="#929EB1"/>
<path fill-rule="evenodd" clip-rule="evenodd" d="M786.37 228.181L431.943 429.372V324.642L438.558 304.799L769.834 111.876L786.37 122.9V228.181Z" fill="#8E9DA6"/>
<path fill-rule="evenodd" clip-rule="evenodd" d="M10.2681 537.409L192.167 647.65C193.269 639.382 196.577 627.807 195.474 615.129L286.424 572.135V505.438H356.427V539.062L412.65 512.604L417.06 284.955L236.264 174.162C198.781 195.108 173.977 203.376 153.031 232.039C143.661 245.268 14.1266 444.805 9.1657 469.059L8.06328 500.478L1.44878 504.887C0.897571 529.692 -1.85847 521.975 10.2681 537.409Z" fill="#8683BC"/>
<path fill-rule="evenodd" clip-rule="evenodd" d="M165.709 536.307L52.7117 469.059C54.9166 477.879 53.8141 491.659 50.5069 517.014L8.61505 491.659L8.06384 500.478L189.411 608.515L190.514 579.852L189.963 601.9L141.456 573.238C140.905 553.394 149.173 540.165 165.709 536.307Z" fill="#4376AD"/>
<path fill-rule="evenodd" clip-rule="evenodd" d="M151.927 233.693C143.659 245.819 97.3575 316.374 59.8754 377.558L251.145 492.761L359.182 358.266L151.927 233.693Z" fill="#54546A"/>
<path fill-rule="evenodd" clip-rule="evenodd" d="M21.8438 442.6C14.678 455.278 10.2684 465.2 9.16595 469.058L8.61475 491.658L50.5066 517.013C57.1211 459.688 56.0187 462.995 21.8438 442.6Z" fill="white"/>
<path fill-rule="evenodd" clip-rule="evenodd" d="M10.2681 537.408L192.167 647.65C193.269 639.382 196.577 627.807 195.474 615.129L198.23 613.475L8.06328 499.926L1.44878 504.336C0.897571 529.692 -1.85847 521.975 10.2681 537.408Z" fill="#546486"/>
<path fill-rule="evenodd" clip-rule="evenodd" d="M196.025 621.743C196.025 619.539 196.025 617.334 196.025 615.129L198.781 613.475L8.06311 499.926L1.44861 504.336V505.438L196.025 621.743Z" fill="#818FAF"/>
<path fill-rule="evenodd" clip-rule="evenodd" d="M69.8007 375.353L153.033 243.615L322.805 345.037L240.124 476.776L69.8007 375.353Z" fill="#17171A"/>
<path fill-rule="evenodd" clip-rule="evenodd" d="M95.7063 334.564L153.032 243.615L170.119 254.088C167.915 317.477 173.978 308.106 105.077 348.344L95.7063 334.564Z" fill="#7D7E80"/>
<path fill-rule="evenodd" clip-rule="evenodd" d="M293.038 523.628C302.408 523.628 312.881 531.897 320.598 536.306C317.842 534.653 314.535 534.101 311.227 534.101C291.935 534.101 270.438 557.803 263.272 586.466C257.209 609.617 262.17 629.46 274.296 636.626L257.209 626.153C244.531 619.539 239.57 599.695 245.634 575.993C252.248 547.33 273.745 523.628 293.038 523.628Z" fill="#17171A"/>
<path fill-rule="evenodd" clip-rule="evenodd" d="M310.675 534.101C329.967 534.101 339.337 557.803 331.62 586.466C323.904 615.68 302.406 638.831 283.665 638.831C264.373 638.831 255.002 615.129 262.719 586.466C269.885 557.803 291.382 534.101 310.675 534.101Z" fill="#505253"/>
<path fill-rule="evenodd" clip-rule="evenodd" d="M307.37 552.291C320.599 552.291 326.662 568.276 321.701 588.12C316.74 607.963 301.858 623.948 289.18 623.948C275.951 623.948 269.888 607.963 274.849 588.12C279.809 568.276 294.692 552.291 307.37 552.291Z" fill="#CCD1D0"/>
<path fill-rule="evenodd" clip-rule="evenodd" d="M307.371 552.291H307.923C317.293 555.598 321.703 569.379 317.293 586.466C312.332 605.758 298.001 621.192 285.323 621.192C283.118 621.192 280.913 620.641 279.26 619.538C273.197 613.475 271.543 601.9 274.85 588.12C279.811 568.276 294.694 552.291 307.371 552.291Z" fill="#9EA8A6"/>
<path fill-rule="evenodd" clip-rule="evenodd" d="M299.103 575.993C303.513 575.993 305.166 580.954 303.513 587.569C301.859 593.632 297.45 599.144 293.04 599.144C288.63 599.144 286.977 594.183 288.63 587.569C290.284 581.505 295.245 575.993 299.103 575.993Z" fill="#17171A"/>
<path fill-rule="evenodd" clip-rule="evenodd" d="M283.118 601.349C284.772 601.349 285.323 603.003 284.772 605.208C284.22 607.412 282.567 609.066 281.464 609.066C279.811 609.066 279.259 607.412 279.811 605.208C280.362 603.003 282.016 601.349 283.118 601.349Z" fill="#17171A"/>
<path fill-rule="evenodd" clip-rule="evenodd" d="M292.488 604.656C294.141 604.656 294.692 606.309 294.141 608.514C293.59 610.719 291.936 612.373 290.834 612.373C289.18 612.373 288.629 610.719 289.18 608.514C289.18 606.309 290.834 604.656 292.488 604.656Z" fill="#17171A"/>
<path fill-rule="evenodd" clip-rule="evenodd" d="M302.408 598.593C304.062 598.593 304.613 600.246 304.062 602.451C303.511 604.656 301.857 606.309 300.755 606.309C299.101 606.309 298.55 604.656 299.101 602.451C299.652 600.246 301.306 598.593 302.408 598.593Z" fill="#17171A"/>
<path fill-rule="evenodd" clip-rule="evenodd" d="M310.676 585.364C312.33 585.364 312.881 587.018 312.33 589.222C311.779 591.427 310.125 593.081 309.023 593.081C307.369 593.081 306.818 591.427 307.369 589.222C307.369 587.018 309.023 585.364 310.676 585.364Z" fill="#17171A"/>
<path fill-rule="evenodd" clip-rule="evenodd" d="M312.329 570.481C313.982 570.481 314.533 572.134 313.982 574.339C313.431 576.544 311.777 578.198 310.675 578.198C309.021 578.198 308.47 576.544 309.021 574.339C309.573 572.686 311.226 570.481 312.329 570.481Z" fill="#17171A"/>
<path fill-rule="evenodd" clip-rule="evenodd" d="M307.371 561.662C309.025 561.662 309.576 563.315 309.025 565.52C308.473 567.725 306.82 569.379 305.717 569.379C304.064 569.379 303.512 567.725 304.064 565.52C304.064 563.315 305.717 561.662 307.371 561.662Z" fill="#17171A"/>
<path fill-rule="evenodd" clip-rule="evenodd" d="M296.895 562.765C298.548 562.765 299.099 564.418 298.548 566.623C297.997 568.828 296.343 570.482 295.241 570.482C293.587 570.482 293.036 568.828 293.587 566.623C294.139 564.97 295.792 562.765 296.895 562.765Z" fill="#17171A"/>
<path fill-rule="evenodd" clip-rule="evenodd" d="M287.525 573.788C289.178 573.788 289.73 575.442 289.178 577.647C288.627 579.852 286.973 581.505 285.871 581.505C284.217 581.505 283.666 579.852 284.217 577.647C284.217 575.442 285.871 573.788 287.525 573.788Z" fill="#17171A"/>
<path fill-rule="evenodd" clip-rule="evenodd" d="M282.562 588.672C284.216 588.672 284.767 590.325 284.216 592.53C283.665 594.735 282.011 596.388 280.909 596.388C279.255 596.388 278.704 594.735 279.255 592.53C279.255 590.325 280.909 588.672 282.562 588.672Z" fill="#17171A"/>
<path fill-rule="evenodd" clip-rule="evenodd" d="M191.617 647.65L248.392 616.231C257.211 553.393 326.112 475.122 343.2 561.11C358.082 552.291 425.881 518.116 429.739 504.336L425.881 294.877L417.613 284.404C380.131 305.901 355.326 313.618 334.38 342.281C325.01 354.958 195.476 554.496 190.515 578.749L189.412 610.168L183.349 614.578C181.696 640.484 179.491 632.216 191.617 647.65Z" fill="#6560B7"/>
<path fill-rule="evenodd" clip-rule="evenodd" d="M428.082 426.065V413.387C310.674 482.839 300.752 480.634 198.228 562.213C197.676 562.764 197.676 563.316 197.125 563.867C227.442 545.126 386.19 449.767 428.082 426.065Z" fill="#4B83C3"/>
<path fill-rule="evenodd" clip-rule="evenodd" d="M334.378 342.832C328.866 350.548 281.462 422.757 242.326 486.146C262.17 483.941 282.013 474.019 290.833 468.507C292.486 436.537 300.203 426.064 336.583 365.431C340.993 357.714 345.402 352.202 349.812 347.241L334.378 342.832Z" fill="#323245"/>
<path fill-rule="evenodd" clip-rule="evenodd" d="M203.744 551.189C196.027 564.969 191.066 575.442 190.515 579.852L189.964 603.003C216.422 588.671 219.729 585.915 216.422 551.74C212.012 547.331 209.807 547.331 203.744 551.189Z" fill="#E4E6E6"/>
<path fill-rule="evenodd" clip-rule="evenodd" d="M377.373 325.193L409.343 305.901C408.791 352.202 401.626 470.712 410.996 508.746C372.963 537.96 387.845 529.692 344.851 547.33C329.417 520.321 329.969 514.258 290.282 524.731C290.282 437.088 284.769 451.971 336.032 365.983C348.71 344.485 358.08 339.525 377.373 325.193Z" fill="#49458E"/>
<path fill-rule="evenodd" clip-rule="evenodd" d="M406.586 425.513C406.586 429.923 406.586 434.333 406.586 438.191C377.372 455.279 332.173 482.288 290.832 507.092C290.832 502.131 290.832 497.17 290.832 493.312C322.802 472.917 351.465 458.035 406.586 425.513Z" fill="#4172A6"/>
<path fill-rule="evenodd" clip-rule="evenodd" d="M402.728 321.335L400.523 320.232C333.827 364.329 326.661 379.212 298.549 454.176L301.857 459.137C417.059 387.48 396.113 421.655 402.728 321.335Z" fill="#323245"/>
<path fill-rule="evenodd" clip-rule="evenodd" d="M398.318 327.398L396.113 326.296C376.821 339.525 362.49 349.446 352.017 359.368V426.064C405.484 395.197 393.908 402.362 398.318 327.398ZM349.261 362.124C333.827 377.558 325.007 392.992 314.534 418.347L322.803 442.601C332.724 436.537 341.544 431.576 349.261 427.167V362.124Z" fill="#17171A"/>
<path fill-rule="evenodd" clip-rule="evenodd" d="M411.55 392.992L406.589 395.748C406.589 402.914 406.038 410.631 406.038 417.797L411.55 415.041C413.755 413.938 415.96 410.08 415.96 407.324V396.3C415.96 392.992 413.755 391.339 411.55 392.992Z" fill="#36608C"/>
<path fill-rule="evenodd" clip-rule="evenodd" d="M406.589 397.953C406.589 404.016 406.589 409.528 406.038 415.592L409.345 413.938C410.999 412.836 412.652 410.08 412.652 407.875V399.055C412.652 396.851 410.999 395.748 409.345 396.299L406.589 397.953Z" fill="#4E89C8"/>
<path fill-rule="evenodd" clip-rule="evenodd" d="M189.413 601.9L189.965 579.852C191.067 575.442 196.028 564.969 203.194 551.189L177.287 535.204C153.034 535.204 140.907 548.984 140.907 573.237L189.413 601.9Z" fill="white"/>
<path fill-rule="evenodd" clip-rule="evenodd" d="M191.617 647.65L248.392 616.231C257.211 553.393 326.112 475.122 343.2 561.11C358.082 552.291 425.881 518.116 429.739 504.336L429.188 478.429L406.589 490.555C403.833 515.911 389.501 515.911 347.058 540.164C343.2 530.242 338.79 520.321 328.317 515.911C289.181 497.721 258.865 567.173 258.865 567.725L189.412 609.616V610.168L183.349 614.577C181.696 640.484 179.491 632.216 191.617 647.65Z" fill="#38465F"/>
<path fill-rule="evenodd" clip-rule="evenodd" d="M63.1853 485.044L145.315 532.448C100.116 567.174 65.3901 534.653 63.1853 485.044Z" fill="#36608C"/>
<path fill-rule="evenodd" clip-rule="evenodd" d="M338.239 426.065L321.702 421.104L318.946 422.757C320.049 456.381 316.741 457.484 336.585 459.688C340.995 460.24 343.199 459.688 344.302 455.279C344.853 451.42 345.404 432.128 340.995 428.27L338.239 426.065Z" fill="#323245"/>
</svg>
