<svg width="867" height="648" viewBox="0 0 867 648" fill="none" xmlns="http://www.w3.org/2000/svg">
<path fill-rule="evenodd" clip-rule="evenodd" d="M213.654 246.12C235.396 246.8 223.166 227.776 208.219 217.585C174.928 195.844 180.364 245.441 213.654 246.12Z" fill="#E29B30"/>
<path fill-rule="evenodd" clip-rule="evenodd" d="M9.83373 521.96L221.809 647.65L256.459 619.115L261.894 519.242L407.966 407.82H418.837L465.037 396.27L530.939 369.093L571.024 344.635L840.07 148.965L852.978 133.339L641.683 7.64865V6.96924L560.833 45.0161L481.343 100.048L360.408 176.821L305.376 143.53L291.788 146.927L184.441 276.015C136.883 307.267 56.0334 369.093 24.1013 408.499C17.9866 415.972 1.68084 458.096 0.322021 464.89V498.181L9.83373 521.96Z" fill="#F9EDAB"/>
<path fill-rule="evenodd" clip-rule="evenodd" d="M14.5896 427.522C7.7955 442.469 1.00143 460.813 0.322021 464.889V498.18L3.03965 504.974L216.374 630.665L240.832 561.365L14.5896 427.522Z" fill="#F5DE6C"/>
<path fill-rule="evenodd" clip-rule="evenodd" d="M193.275 265.823L184.442 276.014C179.687 279.412 174.251 282.809 168.816 286.206C124.655 338.52 61.4697 378.605 61.4697 447.225L183.763 517.884C273.445 449.943 311.492 435.675 419.517 396.27L193.275 265.823Z" fill="#FCF7D4"/>
<path fill-rule="evenodd" clip-rule="evenodd" d="M17.9876 420.049C11.1936 434.317 3.04066 456.058 1.00244 463.531L51.958 494.784C75.7373 474.402 33.614 430.24 19.3464 421.408C18.667 420.728 17.9876 420.049 17.9876 420.049Z" fill="white"/>
<path fill-rule="evenodd" clip-rule="evenodd" d="M210.938 589.9L147.074 551.853C149.792 519.921 213.656 538.265 229.962 547.097C242.191 553.892 236.756 538.265 226.565 573.594C224.526 582.427 221.129 589.221 210.938 589.9Z" fill="white"/>
<path fill-rule="evenodd" clip-rule="evenodd" d="M437.861 388.796L348.858 191.768L479.984 110.919L547.925 91.8953L691.28 176.821L665.462 246.8L437.861 388.796Z" fill="#5D6167"/>
<path fill-rule="evenodd" clip-rule="evenodd" d="M658.669 257.67L514.634 170.027L466.396 202.638L496.29 276.694L602.957 313.382L658.669 257.67Z" fill="#B7AA8F"/>
<path fill-rule="evenodd" clip-rule="evenodd" d="M388.943 246.8C407.287 216.906 418.158 136.736 439.219 152.362L503.763 191.088L458.922 289.603L388.943 246.8Z" fill="#C5BBA9"/>
<path fill-rule="evenodd" clip-rule="evenodd" d="M393.698 265.823C412.042 235.929 422.912 155.759 443.974 171.385L478.623 192.447C464.356 210.112 453.485 267.182 437.859 292.999L393.698 265.823Z" fill="#EBE0CE"/>
<path fill-rule="evenodd" clip-rule="evenodd" d="M466.396 251.556C484.74 221.662 483.382 176.142 504.443 192.447L499.008 273.297L466.396 251.556Z" fill="#8D8678"/>
<path fill-rule="evenodd" clip-rule="evenodd" d="M541.811 332.405L488.137 301.832L450.091 358.222L484.74 369.772L541.811 332.405Z" fill="#A49A81"/>
<path fill-rule="evenodd" clip-rule="evenodd" d="M484.061 303.87C502.405 273.976 513.275 193.806 534.337 209.432L598.88 248.158L554.04 346.672L484.061 303.87Z" fill="#C5BBA9"/>
<path fill-rule="evenodd" clip-rule="evenodd" d="M488.815 322.894C507.159 293 518.029 212.83 539.091 228.456L573.741 249.518C559.473 267.183 548.603 324.253 532.976 350.07L488.815 322.894Z" fill="#EBE0CE"/>
<path fill-rule="evenodd" clip-rule="evenodd" d="M561.514 308.627C579.858 278.733 578.499 233.212 599.561 249.518L596.843 286.206L561.514 308.627Z" fill="#8D8678"/>
<path fill-rule="evenodd" clip-rule="evenodd" d="M9.83373 521.96L10.5131 521.281L221.809 647.651L234.718 636.78V633.383L0.322021 493.425V498.181L9.83373 521.96Z" fill="#706F8C"/>
<path fill-rule="evenodd" clip-rule="evenodd" d="M405.928 409.858L407.966 407.819H418.836L483.38 309.985L508.518 270.579L293.146 146.927L291.787 147.606L184.441 276.014L183.082 277.373L405.928 409.858Z" fill="#FCF7D4"/>
<path fill-rule="evenodd" clip-rule="evenodd" d="M511.236 278.053L517.351 269.9L452.128 231.174V230.495L361.087 176.142L360.408 176.821L305.376 143.531L292.467 146.928L511.236 278.053Z" fill="#F2DB9E"/>
<path fill-rule="evenodd" clip-rule="evenodd" d="M766.014 273.977L735.44 252.236L727.288 280.771L759.899 326.291L769.411 331.727L780.281 314.062L766.014 273.977Z" fill="#17171A"/>
<path fill-rule="evenodd" clip-rule="evenodd" d="M713.701 260.388C725.251 260.388 738.16 270.579 747.671 276.014C744.274 273.976 740.198 273.296 735.442 273.296C711.663 273.296 685.166 302.511 675.654 338.519C668.181 367.734 674.295 392.193 689.242 400.346L668.181 387.437C652.554 379.284 646.44 354.825 653.913 324.931C663.425 289.602 689.922 260.388 713.701 260.388Z" fill="#17171A"/>
<path fill-rule="evenodd" clip-rule="evenodd" d="M734.085 271.938C757.864 271.938 769.414 301.153 760.582 337.161C751.07 373.17 724.573 402.384 700.794 402.384C677.015 402.384 665.465 373.17 674.297 337.161C683.13 301.153 710.306 271.938 734.085 271.938Z" fill="#505253"/>
<path fill-rule="evenodd" clip-rule="evenodd" d="M731.367 289.603C749.032 289.603 757.864 311.344 751.07 339.2C744.276 366.376 723.894 388.797 706.229 388.797C688.565 388.797 679.732 367.056 686.527 339.2C693.321 312.024 713.703 289.603 731.367 289.603Z" fill="#CCD1D0"/>
<path fill-rule="evenodd" clip-rule="evenodd" d="M731.368 289.603H732.047C744.956 294.359 750.391 313.383 744.956 336.483C738.162 362.979 718.459 384.72 700.794 384.72C697.397 384.72 694.68 384.041 691.962 382.682C683.809 374.529 681.092 358.224 685.848 339.2C693.321 312.024 713.703 289.603 731.368 289.603Z" fill="#17171A"/>
<path fill-rule="evenodd" clip-rule="evenodd" d="M713.702 294.359C731.367 282.129 746.314 290.962 747.673 314.741C749.031 338.52 735.443 368.414 717.779 380.643C700.114 392.873 685.167 384.04 683.808 360.261C683.129 336.482 696.038 307.267 713.702 294.359ZM738.84 307.947C727.29 316.1 718.458 328.329 719.138 335.123C719.138 341.917 728.649 341.238 740.199 333.085C740.879 328.329 741.558 323.573 741.558 319.497C740.879 314.741 740.199 311.344 738.84 307.947ZM726.611 362.979C725.932 347.352 721.176 337.841 715.741 341.238C710.985 344.635 706.908 360.261 707.588 375.887C710.305 375.208 713.702 373.849 717.099 371.811C720.496 369.773 723.893 367.055 726.611 362.979ZM692.641 367.055C704.191 358.902 713.023 346.673 712.343 339.879C712.343 333.085 702.832 333.764 691.282 341.917C690.602 346.673 689.923 351.429 689.923 356.185C690.602 360.261 691.282 364.338 692.641 367.055ZM704.87 312.023C705.549 326.97 710.305 336.482 715.741 333.085C720.496 329.688 724.573 314.061 723.893 299.114C721.176 299.794 717.779 301.153 714.382 303.191C710.985 305.229 707.588 308.626 704.87 312.023Z" fill="white"/>
<path fill-rule="evenodd" clip-rule="evenodd" d="M378.751 488.669L396.416 525.357L383.507 553.892L312.169 511.769L323.719 488.669L351.575 476.44L378.751 488.669Z" fill="#17171A"/>
<path fill-rule="evenodd" clip-rule="evenodd" d="M326.438 483.914C337.988 483.914 350.896 494.105 360.408 499.54C357.011 497.502 352.935 496.823 348.179 496.823C324.4 496.823 297.903 526.037 288.391 562.046C280.917 591.26 287.032 615.719 301.979 623.872L280.917 611.643C265.291 603.49 259.176 579.031 266.65 549.137C276.162 513.129 302.658 483.914 326.438 483.914Z" fill="#17171A"/>
<path fill-rule="evenodd" clip-rule="evenodd" d="M346.822 495.465C370.601 495.465 382.151 524.679 373.319 560.688C363.807 596.696 337.31 625.911 313.531 625.911C289.752 625.911 278.202 596.696 287.034 560.688C295.866 524.679 323.043 495.465 346.822 495.465Z" fill="#505253"/>
<path fill-rule="evenodd" clip-rule="evenodd" d="M344.104 513.809C361.769 513.809 370.601 535.55 363.807 563.406C357.013 590.582 336.631 613.002 318.966 613.002C301.301 613.002 292.469 591.261 299.263 563.406C306.057 535.55 326.439 513.809 344.104 513.809Z" fill="#CCD1D0"/>
<path fill-rule="evenodd" clip-rule="evenodd" d="M344.105 513.809H344.784C357.693 518.565 363.128 537.588 357.693 560.688C350.899 587.185 331.196 608.926 313.532 608.926C310.134 608.926 307.417 608.247 304.699 606.888C296.546 598.735 293.829 582.429 298.585 563.406C306.058 535.55 326.44 513.809 344.105 513.809Z" fill="#17171A"/>
<path fill-rule="evenodd" clip-rule="evenodd" d="M326.44 517.885C344.105 505.655 359.052 514.488 360.411 538.267C361.769 562.046 348.181 591.94 330.517 604.17C312.852 616.399 297.905 607.567 296.546 583.787C295.188 560.008 308.776 530.794 326.44 517.885ZM351.578 531.473C340.028 539.626 331.196 551.855 331.876 558.649C331.876 565.443 341.387 564.764 352.937 556.611C353.617 551.855 354.296 547.099 354.296 543.023C353.617 538.267 352.937 534.87 351.578 531.473ZM339.349 587.184C338.67 571.558 333.914 562.046 328.478 565.443C323.723 568.84 319.646 584.467 320.326 600.093C323.043 599.414 326.44 598.055 329.837 596.017C333.234 593.299 336.631 590.581 339.349 587.184ZM305.379 590.581C316.929 582.429 325.761 570.199 325.081 563.405C325.081 556.611 315.57 557.29 304.02 565.443C303.34 570.199 302.661 574.955 302.661 579.711C303.34 583.787 304.02 587.864 305.379 590.581ZM317.608 535.549C318.287 550.496 323.043 560.008 328.478 556.611C333.234 553.214 337.311 537.588 336.631 522.641C333.914 523.32 330.517 524.679 327.12 526.717C323.723 528.755 320.326 532.152 317.608 535.549Z" fill="white"/>
<path fill-rule="evenodd" clip-rule="evenodd" d="M221.809 647.65L277.52 615.718V588.542C277.52 551.175 301.299 509.051 330.514 493.425C359.728 478.478 383.508 496.143 383.508 533.51V554.572L662.744 393.552V370.452C662.744 333.085 686.523 290.962 715.738 275.335C744.952 260.388 768.732 278.053 768.732 315.42V331.726L809.496 307.947L863.169 251.556L866.566 197.203L857.055 195.845L851.619 156.439L858.413 149.645L852.299 131.98L771.449 170.706L693.317 225.738L466.395 369.093L445.334 373.849L521.427 273.297L516.671 269.221L503.083 272.618L395.737 401.705C348.178 432.958 267.329 494.784 235.397 534.189C229.282 541.663 212.976 583.786 211.617 590.58V623.871L221.809 647.65Z" fill="#F0C934"/>
<path fill-rule="evenodd" clip-rule="evenodd" d="M859.094 149.645L852.979 131.98L772.13 170.706L693.318 225.738L466.396 369.093L445.335 373.849L521.428 273.297L516.672 269.221L503.084 272.618L395.738 401.705C348.179 432.958 267.33 494.784 235.398 534.189C233.359 536.907 229.962 543.701 226.565 551.854H234.039C354.294 450.622 696.715 248.838 859.094 149.645Z" fill="#F5DE6C"/>
<path fill-rule="evenodd" clip-rule="evenodd" d="M221.81 647.651L277.521 615.718V588.542C277.521 566.122 286.353 541.663 299.262 522.64L220.451 567.48C216.374 578.351 212.977 587.863 212.298 590.58V623.871L221.81 647.651ZM357.691 488.669C373.317 492.746 383.509 508.372 383.509 532.831V553.892L662.745 392.873V369.773C662.745 345.314 673.615 318.138 689.242 297.756L357.691 488.669ZM738.159 269.221C756.503 270.579 769.412 287.565 769.412 314.741V331.047L810.176 307.267L863.17 251.556L866.567 197.203L863.17 196.524L738.159 269.221Z" fill="#E29B30"/>
<path fill-rule="evenodd" clip-rule="evenodd" d="M378.074 507.012C429.03 476.439 647.119 352.107 659.349 325.61L373.998 500.218C376.036 502.256 377.395 504.295 378.074 507.012Z" fill="#F0C934"/>
<path fill-rule="evenodd" clip-rule="evenodd" d="M857.733 195.844L852.298 156.439L853.657 155.08C806.778 191.768 768.731 244.762 857.733 195.844Z" fill="white"/>
<path fill-rule="evenodd" clip-rule="evenodd" d="M229.282 545.06C222.488 560.007 212.976 583.786 211.617 589.901C224.526 587.184 240.153 576.992 248.985 555.251C257.817 532.151 244.229 536.228 229.282 545.06Z" fill="#E4E6E6"/>
<path fill-rule="evenodd" clip-rule="evenodd" d="M221.81 647.649L277.521 615.717V588.541C277.521 587.182 277.521 585.144 277.521 583.785L212.298 621.832V624.55L221.81 647.649ZM382.829 521.959C383.509 525.356 383.509 528.753 383.509 532.83V553.891L662.745 392.872V369.772C662.745 366.375 662.745 363.657 663.424 360.26L382.829 521.959ZM767.374 299.793C768.053 304.549 768.733 309.305 768.733 314.74V331.046L809.497 307.266L863.17 251.555L863.85 244.081L767.374 299.793Z" fill="#444556"/>
<path fill-rule="evenodd" clip-rule="evenodd" d="M212.978 626.589L219.093 641.536C265.972 619.116 235.398 612.322 212.978 626.589Z" fill="#17171A"/>
<path fill-rule="evenodd" clip-rule="evenodd" d="M257.817 584.465L217.732 608.244V596.694C223.168 593.976 295.185 547.097 257.817 584.465Z" fill="#BF702A"/>
<path fill-rule="evenodd" clip-rule="evenodd" d="M586.651 307.267C579.857 313.382 574.421 323.573 574.421 329.008C575.101 335.123 580.536 334.443 588.01 328.329C595.483 322.214 600.239 312.023 600.239 306.588C599.559 300.473 593.445 300.473 586.651 307.267Z" fill="#F9F5AD"/>
<path fill-rule="evenodd" clip-rule="evenodd" d="M586.651 307.267C580.536 312.703 575.78 320.856 574.421 326.97L599.559 310.664C599.559 309.306 600.239 307.947 600.239 307.267C599.559 300.473 593.445 300.473 586.651 307.267Z" fill="#DA802E"/>
<path fill-rule="evenodd" clip-rule="evenodd" d="M573.063 322.895C566.269 331.727 571.025 333.086 571.025 333.086L602.277 312.024V305.909L573.063 322.895Z" fill="white"/>
<path fill-rule="evenodd" clip-rule="evenodd" d="M681.767 232.532C676.332 231.174 677.011 227.776 681.767 222.341L704.867 174.783L548.603 82.3833L472.51 105.483L470.472 106.842C446.692 101.407 541.13 51.1306 542.489 50.4512C551.321 45.6953 591.406 14.4426 594.803 6.96908C599.559 -2.54263 609.071 -0.504407 617.224 3.57204C620.621 4.93085 624.697 9.68671 625.376 15.122L619.941 17.8396L596.162 55.8864L749.708 146.927L807.458 130.621C812.214 123.827 821.046 125.865 828.519 129.262C831.916 130.621 835.993 135.377 836.672 140.812L772.808 171.386L693.317 225.738L681.767 232.532Z" fill="#323245"/>
<path fill-rule="evenodd" clip-rule="evenodd" d="M386.226 398.307L494.251 269.22H494.931L299.941 151.682L193.274 279.411C191.915 280.09 191.236 280.77 189.877 281.449L386.226 398.307Z" fill="#B8BBBB"/>
<path fill-rule="evenodd" clip-rule="evenodd" d="M404.57 214.869L358.37 187.013L238.115 256.992L335.949 328.33L401.173 288.924L404.57 214.869Z" fill="#7D7E80"/>
<path fill-rule="evenodd" clip-rule="evenodd" d="M339.346 326.291L401.172 288.923L404.569 217.586L285.672 286.885L339.346 326.291Z" fill="#505253"/>
<path fill-rule="evenodd" clip-rule="evenodd" d="M410.685 368.414L494.252 269.22L494.932 268.541L402.532 213.509L380.112 279.412L309.454 320.176L410.685 368.414Z" fill="#909393"/>
<path fill-rule="evenodd" clip-rule="evenodd" d="M456.884 246.121L412.722 219.624L393.02 282.129L436.502 307.267L456.884 246.121Z" fill="#A2A7A8"/>
<path fill-rule="evenodd" clip-rule="evenodd" d="M413.401 365.696L494.25 269.22L494.93 268.541L469.112 253.594L449.409 314.061L394.377 354.146L413.401 365.696Z" fill="#7D7E80"/>
<path fill-rule="evenodd" clip-rule="evenodd" d="M386.227 398.308L386.907 397.628L422.915 354.146L248.987 249.517L191.237 282.129L386.227 398.308Z" fill="#A5A7A8"/>
<path fill-rule="evenodd" clip-rule="evenodd" d="M351.577 182.935L299.942 151.682L202.787 267.861L351.577 182.935Z" fill="#CFD1CF"/>
<path fill-rule="evenodd" clip-rule="evenodd" d="M496.97 180.898C515.314 151.004 525.505 84.4217 547.246 100.048L678.372 176.821L646.44 254.953L634.89 262.426L496.97 180.898Z" fill="#C5BBA9"/>
<path fill-rule="evenodd" clip-rule="evenodd" d="M636.927 260.388C655.271 230.494 658.668 161.874 679.729 177.5L672.256 237.968L636.927 260.388Z" fill="#8D8678"/>
<path fill-rule="evenodd" clip-rule="evenodd" d="M204.145 276.014L301.3 161.195L386.226 210.791C274.803 164.592 289.75 189.73 204.145 276.014Z" fill="white"/>
<path fill-rule="evenodd" clip-rule="evenodd" d="M443.975 314.061C446.693 315.42 449.41 316.779 451.448 318.817L446.693 324.252C444.654 322.894 442.616 321.535 440.578 320.855C422.913 312.023 401.852 317.458 393.699 333.764C393.019 334.444 393.019 335.123 392.34 336.482L384.866 332.405C384.866 331.726 385.546 331.046 385.546 330.367C395.737 309.985 421.554 303.191 443.975 314.061Z" fill="#17171A" stroke="#272425" stroke-width="11.1231" stroke-miterlimit="22.9256"/>
<path fill-rule="evenodd" clip-rule="evenodd" d="M460.281 352.787L477.266 362.298L466.395 369.093L445.334 373.848L460.281 352.787Z" fill="#E29B30"/>
<path fill-rule="evenodd" clip-rule="evenodd" d="M155.906 520.601C147.073 534.869 132.806 543.701 117.859 543.701C90.6826 543.701 68.2622 515.845 68.2622 480.516C68.2622 476.44 68.2622 472.363 68.9416 468.287L155.906 520.601Z" fill="#444556"/>
<path fill-rule="evenodd" clip-rule="evenodd" d="M474.55 357.543H485.42L679.051 234.57L674.295 222.341L666.822 236.608L474.55 357.543Z" fill="#F9EDAB"/>
<path fill-rule="evenodd" clip-rule="evenodd" d="M477.945 373.17C450.09 360.261 470.472 351.429 492.892 351.429C541.81 351.429 520.748 392.873 477.945 373.17Z" fill="#E29B30"/>
</svg>
