<svg width="23" height="23" viewBox="0 0 23 23" fill="none" xmlns="http://www.w3.org/2000/svg">
<path fill-rule="evenodd" clip-rule="evenodd" d="M17.3022 3.72559C19.2231 4.84475 20.5738 7.11691 20.5143 9.76812C20.4401 13.0765 17.8646 15.9956 13.4756 18.6027C12.8249 18.9892 12.139 19.4911 11.3495 19.4911C10.575 19.4911 9.85958 18.9806 9.22338 18.6027C4.83454 15.9956 2.25894 13.0765 2.18475 9.76812C2.12529 7.11691 3.47596 4.84475 5.39683 3.72559C7.19347 2.67882 9.45032 2.6732 11.3495 4.21804C13.2488 2.6732 15.5056 2.67882 17.3022 3.72559ZM16.3793 5.30967C15.1017 4.56533 13.5049 4.5918 12.122 5.99009C11.698 6.41886 11.0011 6.41886 10.5771 5.99009C9.19418 4.5918 7.59733 4.56533 6.31977 5.30967C4.99571 6.0811 3.97258 7.71878 4.01762 9.72696C4.06926 12.0296 5.88724 14.4885 10.1597 17.0265C10.5336 17.2486 10.9244 17.5341 11.3495 17.6522C11.7747 17.5341 12.1655 17.2486 12.5394 17.0265C16.8119 14.4885 18.6298 12.0296 18.6814 9.72696C18.7265 7.71878 17.7033 6.0811 16.3793 5.30967Z" fill="#7C8BA0"/>
</svg>
