<svg width="58" height="22" viewBox="0 0 58 22" fill="none" xmlns="http://www.w3.org/2000/svg">
<path d="M21.8514 4.4973C22.6258 4.4973 43.7241 4.4973 43.7241 4.4973C43.7241 4.4973 43.2078 3.60243 41.8827 2.44942C40.5576 1.29642 39.5595 0.917821 36.8233 0.453178C33.8633 -0.045884 23.8993 0.0917882 22.471 0.246669C21.2663 0.384342 20.9394 0.745731 20.8017 0.952239C20.5436 1.34805 20.5436 1.74385 20.6124 2.29454C20.664 2.69035 20.7673 3.13779 20.8533 3.51638C21.077 4.46288 21.5933 4.4973 21.8514 4.4973Z" fill="#553FA5"/>
<path d="M45.4793 5.13418C45.9096 5.13418 47.6305 4.73838 48.0263 4.27373C48.4221 3.79188 47.7165 3.27561 47.2002 3.01747C46.684 2.75934 45.8063 2.27749 45.0319 2.67329C45.0319 2.67329 44.9114 2.67329 44.7738 3.27561C44.6705 3.87793 45.0491 5.13418 45.4793 5.13418Z" fill="#553FA5"/>
<path d="M10.5967 6.63127C11.3539 6.95824 17.7556 4.54898 17.7556 4.54898C17.7556 4.54898 18.53 4.32526 19.0119 3.2583C19.3733 2.44948 19.8723 1.36531 19.4765 0.900668C19.3905 0.814623 19.1496 0.573696 18.444 0.831832C17.291 1.24485 14.9333 2.15693 12.5413 4.10155C10.9409 5.40943 9.83947 6.3043 10.5967 6.63127Z" fill="#553FA5"/>
<path d="M9.3231 5.97753C9.34031 6.23566 10.4761 4.06733 13.677 2.17433C14.1244 1.89899 12.5412 2.13992 11.044 2.53572C10.2696 2.74223 8.66916 3.08641 8.51428 3.61989C8.37661 4.11895 8.7552 4.5836 8.89288 4.7901C9.04776 5.04824 9.28868 5.51288 9.3231 5.97753Z" fill="#553FA5"/>
<path d="M49.9537 19.5034C50.6937 19.4002 50.9002 18.3332 50.9518 18.2127C51.6746 18.2127 51.7951 18.2127 52.0876 18.2127C52.6039 18.2127 52.5523 17.2146 52.6383 15.184C52.6727 14.2547 52.8104 13.1361 52.7072 11.1054C52.5867 8.67895 50.8658 6.32132 49.4891 6.2869C47.424 6.25248 46.3054 6.78596 45.4277 8.93709C45.7719 8.91988 50.1602 8.93709 50.5732 9.3501C50.9863 9.76312 50.9863 10.8817 50.9863 10.8817C50.9863 10.8817 46.357 10.7612 44.9459 10.8473C44.6706 12.6887 44.5157 14.4784 41.7106 14.8054C37.3051 15.3216 32.9684 15.1495 31.5401 12.7059C31.2819 12.2756 30.9205 11.6561 30.3526 10.9505C27.9262 10.9333 23.6928 11.0194 23.469 11.0194C23.1765 11.0194 23.0216 10.3826 22.9528 9.93521C22.8323 9.21243 23.2109 9.31568 28.3908 9.00592C27.1173 7.99059 25.362 6.97526 22.97 6.18364C17.1361 4.27344 15.725 5.51249 14.8473 7.42269C14.159 8.93709 14.0729 10.5203 14.1762 12.3961C14.1934 12.7231 14.1762 13.8244 14.1762 13.9277C12.8683 13.8761 10.6655 14.0654 10.5451 11.6389C10.4246 9.17801 10.8204 8.40361 10.8204 8.24873C10.8204 8.09384 8.96183 8.05943 9.40926 6.97526C9.83949 5.89109 7.49906 7.11293 6.96558 7.49153C6.65582 7.59478 6.2428 7.97338 6.10513 8.5757C6.07071 8.74779 6.03629 9.12639 6.01908 9.65987C5.38235 10.1417 4.91771 12.1208 4.91771 14.5128C4.91771 16.2165 5.15863 17.7137 5.52002 18.6086C5.62328 18.8667 5.93304 19.4174 6.19117 19.5723C2.57728 19.7271 0.443359 19.9337 0.443359 20.1402C0.443359 20.6736 13.1952 21.1039 28.9243 21.1039C44.6533 21.1039 57.4052 20.6736 57.4052 20.1402C57.388 19.8992 54.5829 19.6755 49.9537 19.5034ZM16.3101 8.9715C16.9296 8.9715 17.4287 10.9678 17.4287 13.4286C17.4287 15.8895 16.9296 17.8858 16.3101 17.8858C15.6906 17.8858 15.1915 15.8895 15.1915 13.4286C15.1915 10.9678 15.6906 8.9715 16.3101 8.9715ZM5.74374 14.5128C5.74374 12.3961 6.17396 10.6752 6.70744 10.6752C7.24092 10.6752 7.67115 12.3961 7.67115 14.5128C7.67115 16.6295 7.24092 18.3504 6.70744 18.3504C6.17396 18.3504 5.74374 16.6295 5.74374 14.5128ZM11.7669 17.8858C12.8166 17.9374 13.8836 17.9718 14.8129 17.989C15.0194 18.5913 15.2775 19.0388 15.5701 19.2969C13.9524 19.3313 12.4036 19.3658 10.9925 19.4002C11.285 19.2109 11.5604 18.6602 11.7669 17.8858ZM20.664 19.2281C20.8016 19.0732 20.9221 18.8323 21.0426 18.5397C23.6927 18.5225 36.5823 18.3848 44.8943 18.2816C45.1008 18.7979 45.3589 19.1765 45.6343 19.3658C40.9362 19.2453 35.154 19.1765 28.9071 19.1765C26.0504 19.1937 23.2797 19.1937 20.664 19.2281Z" fill="#553FA5"/>
</svg>
