<svg width="120" height="25" viewBox="0 0 120 25" fill="none" xmlns="http://www.w3.org/2000/svg">
<g clip-path="url(#clip0_1109_9786)">
<path d="M22.3879 6.14957C23.1857 6.14957 44.9202 6.14957 44.9202 6.14957C44.9202 6.14957 44.3884 5.22771 43.0233 4.03993C41.6582 2.85216 40.63 2.46214 37.8113 1.98348C34.7621 1.46937 24.4975 1.6112 23.0261 1.77075C21.7851 1.91257 21.4483 2.28486 21.3065 2.4976C21.0406 2.90534 21.0406 3.31308 21.1115 3.88038C21.1647 4.28812 21.271 4.74905 21.3597 5.13907C21.5901 6.11411 22.122 6.14957 22.3879 6.14957Z" fill="#553FA5"/>
<path d="M46.7282 6.80546C47.1714 6.80546 48.9442 6.39772 49.3519 5.91906C49.7597 5.42268 49.0328 4.89084 48.501 4.62492C47.9691 4.359 47.065 3.86261 46.2672 4.27036C46.2672 4.27036 46.1431 4.27036 46.0013 4.89084C45.895 5.51132 46.285 6.80546 46.7282 6.80546Z" fill="#553FA5"/>
<path d="M10.7936 8.34776C11.5736 8.68459 18.1685 6.20267 18.1685 6.20267C18.1685 6.20267 18.9662 5.9722 19.4626 4.87307C19.8349 4.03985 20.349 2.92298 19.9413 2.44433C19.8526 2.35569 19.6044 2.1075 18.8776 2.37342C17.6898 2.79889 15.2611 3.73847 12.7969 5.74174C11.1482 7.08907 10.0136 8.01092 10.7936 8.34776Z" fill="#553FA5"/>
<path d="M9.48132 7.67416C9.49905 7.94008 10.6691 5.70635 13.9665 3.75627C14.4274 3.47262 12.7965 3.72081 11.2541 4.12855C10.4564 4.34129 8.80766 4.69585 8.64811 5.24542C8.50628 5.75953 8.8963 6.23819 9.03812 6.45092C9.19768 6.71684 9.44587 7.1955 9.48132 7.67416Z" fill="#553FA5"/>
<path d="M51.3373 21.6085C52.0997 21.5021 52.3124 20.403 52.3656 20.2789C53.1101 20.2789 53.2342 20.2789 53.5356 20.2789C54.0675 20.2789 54.0143 19.2506 54.1029 17.1587C54.1384 16.2014 54.2802 15.0491 54.1738 12.9572C54.0497 10.4576 52.2769 8.02882 50.8587 7.99336C48.7313 7.95791 47.579 8.50747 46.6749 10.7235C47.0294 10.7057 51.5501 10.7235 51.9756 11.1489C52.401 11.5744 52.401 12.7267 52.401 12.7267C52.401 12.7267 47.6322 12.6026 46.1785 12.6913C45.8948 14.5882 45.7353 16.4319 42.8456 16.7687C38.3073 17.3006 33.8398 17.1233 32.3684 14.6059C32.1025 14.1627 31.7302 13.5245 31.1451 12.7977C28.6455 12.7799 24.2844 12.8686 24.0539 12.8686C23.7526 12.8686 23.593 12.2126 23.5221 11.7517C23.398 11.0071 23.788 11.1135 29.1241 10.7944C27.8123 9.74843 26.004 8.70248 23.5398 7.88699C17.53 5.91918 16.0763 7.1956 15.1722 9.16341C14.4631 10.7235 14.3744 12.3545 14.4808 14.2868C14.4985 14.6236 14.4808 15.7582 14.4808 15.8646C13.1335 15.8114 10.8643 16.0064 10.7402 13.5068C10.6161 10.9717 11.0239 10.1739 11.0239 10.0144C11.0239 9.8548 9.10923 9.81935 9.57016 8.70248C10.0134 7.58562 7.60235 8.84431 7.05278 9.23432C6.73367 9.34069 6.3082 9.73071 6.16638 10.3512C6.13092 10.5285 6.09547 10.9185 6.07774 11.4681C5.4218 11.9644 4.94314 14.0032 4.94314 16.4674C4.94314 18.2224 5.19134 19.7648 5.56363 20.6866C5.66999 20.9525 5.9891 21.5198 6.25502 21.6794C2.53214 21.8389 0.333862 22.0517 0.333862 22.2644C0.333862 22.814 13.4703 23.2572 29.6737 23.2572C45.8771 23.2572 59.0136 22.814 59.0136 22.2644C58.9958 22.0162 56.1062 21.7858 51.3373 21.6085ZM16.6791 10.7589C17.3173 10.7589 17.8314 12.8154 17.8314 15.3505C17.8314 17.8856 17.3173 19.942 16.6791 19.942C16.0409 19.942 15.5268 17.8856 15.5268 15.3505C15.5268 12.8154 16.0409 10.7589 16.6791 10.7589ZM5.79409 16.4674C5.79409 14.2868 6.23729 12.514 6.78686 12.514C7.33643 12.514 7.77963 14.2868 7.77963 16.4674C7.77963 18.6479 7.33643 20.4207 6.78686 20.4207C6.23729 20.4207 5.79409 18.6479 5.79409 16.4674ZM11.9989 19.942C13.0803 19.9952 14.1794 20.0307 15.1368 20.0484C15.3495 20.6689 15.6154 21.1298 15.9168 21.3957C14.2503 21.4312 12.6548 21.4666 11.2011 21.5021C11.5025 21.3071 11.7862 20.7398 11.9989 19.942ZM21.1643 21.3248C21.3061 21.1653 21.4302 20.9171 21.5543 20.6157C24.2844 20.598 37.5627 20.4562 46.1253 20.3498C46.338 20.8816 46.604 21.2716 46.8876 21.4667C42.0479 21.3426 36.0913 21.2716 29.656 21.2716C26.7131 21.2894 23.8589 21.2894 21.1643 21.3248Z" fill="#553FA5"/>
</g>
<path d="M69.6412 10.1477C68.0956 10.1477 66.8721 9.75705 65.9705 8.97568C65.0775 8.18573 64.631 7.07379 64.631 5.63986C64.631 4.76404 64.7727 3.99556 65.056 3.3344C65.348 2.67325 65.7558 2.14518 66.2796 1.75021C67.3186 0.968845 68.6881 0.578163 70.3882 0.578163C71.4873 0.578163 72.5863 0.728425 73.6854 1.02895C74.1061 1.16633 74.3165 1.5055 74.3165 2.04644C74.3165 2.78487 74.0847 3.15409 73.621 3.15409C73.5437 3.15409 73.2904 3.11974 72.8611 3.05105C72.4318 2.98236 72.1312 2.94802 71.9595 2.94802C71.3499 2.94802 70.8776 3.16268 70.5428 3.592C70.2165 4.01273 70.0533 4.51933 70.0533 5.11179C70.0533 5.69567 70.2079 6.21086 70.517 6.65735C70.8261 7.10384 71.2468 7.33568 71.7792 7.35285C72.1398 7.37002 72.7795 7.37861 73.6983 7.37861C74.1448 7.37861 74.3895 7.58898 74.4324 8.00971C74.4582 8.16427 74.471 8.32311 74.471 8.48626C74.471 8.64081 74.4582 8.79966 74.4324 8.9628C74.3809 9.27191 74.1405 9.49945 73.7112 9.64542C73.2818 9.78281 72.6636 9.89872 71.8565 9.99317C71.0494 10.0962 70.3109 10.1477 69.6412 10.1477ZM79.7036 3.12833C82.5028 3.12833 83.9152 4.03849 83.941 5.85881C83.9582 6.63159 83.9668 7.33997 83.9668 7.98395C83.9668 8.62793 83.9625 9.06155 83.9539 9.28479C83.9453 9.50804 83.8852 9.67118 83.7736 9.77422C83.6705 9.86867 83.4645 9.9159 83.1553 9.9159H80.4249C80.1501 9.9159 79.9612 9.86867 79.8582 9.77422C79.7551 9.67118 79.6993 9.52092 79.6907 9.32343C79.6907 9.31485 79.6864 9.30197 79.6778 9.28479C79.6778 9.25903 79.6778 9.23757 79.6778 9.2204C79.1111 9.80427 78.3384 10.0962 77.3595 10.0962C76.6812 10.0962 76.1016 9.92878 75.6208 9.59391C75.1485 9.25045 74.9124 8.78249 74.9124 8.19003C74.9124 7.58898 75.0798 7.11243 75.4147 6.76039C75.7581 6.39976 76.1617 6.15504 76.6254 6.02625C77.0976 5.89745 77.5999 5.83305 78.1323 5.83305C78.6732 5.83305 79.2013 5.88457 79.7165 5.98761V5.93609C79.7165 5.50677 79.6306 5.19766 79.4589 5.00876C79.2957 4.81986 79.0253 4.7254 78.6475 4.7254C78.2783 4.7254 77.9691 4.75975 77.7201 4.82844C77.4711 4.88855 77.2822 4.95294 77.1534 5.02164C76.8014 5.22771 76.5567 5.33075 76.4193 5.33075C76.2819 5.33075 76.1574 5.26635 76.0458 5.13755C75.9427 5.00876 75.8912 4.81127 75.8912 4.54509C75.8912 4.27032 75.9385 4.08142 76.0329 3.97839C76.1359 3.87535 76.2948 3.77231 76.5095 3.66927C77.2565 3.30864 78.3212 3.12833 79.7036 3.12833ZM79.0983 8.3961C79.4761 8.3961 79.6693 8.32311 79.6778 8.17715C79.695 7.89379 79.7036 7.52028 79.7036 7.05662C79.7036 6.8763 79.5662 6.78615 79.2915 6.78615C79.0167 6.78615 78.7934 6.85484 78.6217 6.99222C78.45 7.12102 78.3641 7.31421 78.3641 7.5718C78.3641 7.8294 78.4328 8.03118 78.5702 8.17715C78.7162 8.32311 78.8922 8.3961 79.0983 8.3961ZM85.818 3.3344H88.3295C88.6215 3.3344 88.8233 3.3988 88.9349 3.5276C89.0465 3.64781 89.1023 3.83242 89.1023 4.08142V4.54509C89.5832 3.63493 90.3645 3.17985 91.4464 3.17985C91.807 3.17985 92.1033 3.29577 92.3351 3.5276C92.5669 3.75943 92.6828 4.06854 92.6828 4.45493C92.6828 4.84132 92.5798 5.22771 92.3737 5.6141C92.1677 5.9919 91.88 6.1808 91.5108 6.1808C91.3391 6.1808 91.0987 6.09494 90.7895 5.92321C90.4804 5.7429 90.2314 5.65274 90.0425 5.65274C89.8536 5.65274 89.6561 5.72143 89.4501 5.85881C89.2526 5.99619 89.1538 6.22373 89.1538 6.54143C89.1538 7.92385 89.1281 8.8383 89.0766 9.28479C89.0508 9.43076 88.9778 9.55956 88.8576 9.67118C88.7374 9.78281 88.5227 9.8515 88.2136 9.87726C87.9131 9.89443 87.6126 9.90302 87.312 9.90302C87.0115 9.90302 86.5006 9.88584 85.7794 9.8515C85.5733 9.84291 85.4101 9.78281 85.2899 9.67118C85.1697 9.55956 85.101 9.43076 85.0839 9.28479C85.0238 8.72668 84.9937 7.87233 84.9937 6.72175C84.9937 5.57117 85.0109 4.78551 85.0452 4.36477C85.0796 3.93545 85.144 3.65639 85.2384 3.5276C85.3329 3.3988 85.5261 3.3344 85.818 3.3344ZM70.4011 17.5662L70.4268 19.949C70.4268 20.1121 70.517 20.1937 70.6973 20.1937C71.2297 20.1937 71.6461 20.0477 71.9466 19.7558C72.2558 19.4553 72.4103 19.1032 72.4103 18.6996C72.4103 18.2961 72.2643 17.9483 71.9724 17.6564C71.689 17.3645 71.2683 17.2185 70.7102 17.2185C70.5041 17.2185 70.4011 17.3344 70.4011 17.5662ZM73.7755 21.4172C73.9387 21.589 74.5183 22.2373 75.5143 23.3621C75.5744 23.4393 75.6045 23.508 75.6045 23.5681C75.6045 23.7914 75.5057 23.903 75.3082 23.903C74.8531 23.9116 74.3938 23.9159 73.9301 23.9159C73.475 23.9159 73.0199 23.9116 72.5649 23.903C72.3159 23.903 72.0883 23.8043 71.8822 23.6068L70.7746 21.9324C70.7317 21.8809 70.6801 21.8466 70.62 21.8294C70.4827 21.7779 70.414 21.8337 70.414 21.9968V23.3106C70.414 23.6798 70.1693 23.8773 69.6798 23.903C69.199 23.9288 68.6709 23.9417 68.0956 23.9417C67.5203 23.9417 66.8248 23.9202 66.0091 23.8773C65.7601 23.8601 65.5583 23.7742 65.4038 23.6197C65.2578 23.4651 65.172 23.2891 65.1462 23.0916C65.0775 22.336 65.0432 21.1511 65.0432 19.5368C65.0432 17.914 65.0689 16.7334 65.1204 15.9949C65.172 15.2565 65.5455 14.883 66.241 14.8744C66.8935 14.8658 67.7822 14.8615 68.907 14.8615C70.0319 14.8615 70.9635 14.8701 71.7019 14.8873C72.7666 14.9044 73.6382 15.2994 74.3165 16.0722C74.9948 16.845 75.334 17.7165 75.334 18.6868C75.334 19.2535 75.2009 19.7772 74.9347 20.2581C74.6771 20.7389 74.2907 21.1253 73.7755 21.4172ZM78.1422 17.7337C78.5372 17.5362 78.9408 17.3945 79.3529 17.3086C79.7737 17.2228 80.2889 17.1798 80.8985 17.1798C81.5167 17.1798 82.1049 17.2571 82.663 17.4117C83.2211 17.5577 83.6376 17.7594 83.9123 18.017C84.3932 18.4893 84.6336 19.0431 84.6336 19.6785C84.6336 20.6745 83.7921 21.1725 82.1092 21.1725C81.5167 21.1725 80.9028 21.1167 80.2674 21.0051C80.2931 21.5718 80.3962 21.9711 80.5765 22.2029C80.7654 22.4347 81.096 22.5507 81.5682 22.5507C82.0405 22.5507 82.4312 22.4991 82.7403 22.3961C83.0494 22.2931 83.2984 22.19 83.4873 22.087C83.6762 21.9754 83.835 21.9196 83.9638 21.9196C84.1012 21.9196 84.2171 21.9797 84.3116 22.0999C84.4576 22.2544 84.5305 22.4691 84.5305 22.7438C84.5305 23.01 84.4747 23.1946 84.3631 23.2977C84.2601 23.3921 84.0926 23.4866 83.8608 23.581C83.0451 23.9245 81.8859 24.0962 80.3833 24.0962C79.1383 24.0962 78.1122 23.8 77.3051 23.2075C76.5065 22.6065 76.1073 21.7993 76.1073 20.7861C76.1073 20.2967 76.1974 19.8502 76.3777 19.4467C76.5581 19.0345 76.7985 18.6954 77.099 18.4292C77.3995 18.1544 77.7473 17.9226 78.1422 17.7337ZM81.1303 18.6481C80.6065 18.6481 80.3232 19.0732 80.2803 19.9232C80.6924 19.9576 80.9071 19.9747 80.9242 19.9747C81.491 19.9747 81.7743 19.7858 81.7743 19.408C81.7743 18.9014 81.5596 18.6481 81.1303 18.6481ZM90.9985 23.3363L91.0114 20.1937C91.0114 19.9361 90.947 19.7429 90.8182 19.6141C90.6894 19.4853 90.5263 19.4209 90.3288 19.4209C90.1399 19.4209 89.9639 19.4896 89.8007 19.627C89.6462 19.7558 89.5689 19.9404 89.5689 20.1808V20.9665C89.5689 22.0999 89.5431 22.8726 89.4916 23.2848C89.4659 23.4308 89.3929 23.5596 89.2727 23.6712C89.1525 23.7828 88.9378 23.8515 88.6287 23.8773C88.3282 23.8944 88.0276 23.903 87.7271 23.903C87.4266 23.903 86.9157 23.8858 86.1944 23.8515C85.9884 23.8429 85.8252 23.7828 85.705 23.6712C85.5848 23.5596 85.5161 23.4308 85.4989 23.2848C85.4388 22.7267 85.4088 21.8723 85.4088 20.7217C85.4088 19.5712 85.4259 18.7855 85.4603 18.3648C85.4946 17.9355 85.559 17.6564 85.6535 17.5276C85.7479 17.3988 85.9411 17.3344 86.2331 17.3344H88.7446C89.0365 17.3344 89.2297 17.3988 89.3242 17.5276C89.4272 17.6564 89.4916 17.8753 89.5174 18.1845V18.1973C90.1785 17.5104 90.9814 17.167 91.9259 17.167C92.879 17.167 93.626 17.3988 94.1669 17.8625C94.7079 18.3261 94.9826 18.9658 94.9912 19.7815C95.0084 20.5972 95.017 21.3271 95.017 21.9711C95.017 22.6151 95.0127 23.0487 95.0041 23.2719C94.9955 23.4952 94.9354 23.6583 94.8238 23.7613C94.7207 23.8558 94.5147 23.903 94.2056 23.903L91.7327 23.9288C91.4579 23.9288 91.2647 23.8816 91.1531 23.7871C91.0501 23.6841 90.9985 23.5338 90.9985 23.3363ZM96.4652 19.202C96.4652 19.0646 96.3708 18.9959 96.1819 18.9959C95.847 18.9959 95.6495 18.8843 95.5894 18.661C95.5551 18.5494 95.5379 18.3777 95.5379 18.1458C95.5379 17.914 95.568 17.7508 95.6281 17.6564C95.6967 17.5534 95.8213 17.4804 96.0016 17.4374C96.1905 17.3859 96.3579 17.3044 96.5039 17.1927C96.6584 17.0725 96.9675 16.8149 97.4312 16.42C97.9035 16.025 98.2297 15.7674 98.4101 15.6472C98.599 15.527 98.8308 15.4669 99.1056 15.4669H99.7495C100.05 15.4669 100.252 15.5055 100.355 15.5828C100.458 15.6515 100.509 15.7631 100.509 15.9176V17.1412C100.509 17.3215 100.587 17.4117 100.741 17.4117H102.119C102.343 17.4117 102.501 17.4589 102.596 17.5534C102.699 17.6478 102.75 17.8668 102.75 18.2102C102.75 18.5451 102.699 18.7598 102.596 18.8542C102.493 18.9487 102.338 18.9959 102.132 18.9959H100.793C100.673 18.9959 100.595 19.0259 100.561 19.086C100.527 19.1461 100.509 19.232 100.509 19.3436V20.8892C100.527 21.1811 100.634 21.4258 100.831 21.6233C101.038 21.8208 101.325 21.9196 101.694 21.9196C101.875 21.9196 102.098 21.8723 102.364 21.7779C102.63 21.6748 102.811 21.6233 102.905 21.6233C103.137 21.6233 103.253 21.9668 103.253 22.6537C103.253 23.1517 103.12 23.4522 102.854 23.5553C102.579 23.6497 102.192 23.727 101.694 23.7871C101.196 23.8472 100.698 23.8773 100.2 23.8773C99.7023 23.8773 99.2258 23.8386 98.7707 23.7613C98.3242 23.6755 97.9163 23.5295 97.5471 23.3234C96.8259 22.9027 96.4652 22.0999 96.4652 20.9149V19.202ZM108.458 17.1283C111.257 17.1283 112.67 18.0385 112.695 19.8588C112.712 20.6316 112.721 21.34 112.721 21.984C112.721 22.6279 112.717 23.0615 112.708 23.2848C112.7 23.508 112.639 23.6712 112.528 23.7742C112.425 23.8687 112.219 23.9159 111.91 23.9159H109.179C108.904 23.9159 108.715 23.8687 108.612 23.7742C108.509 23.6712 108.454 23.5209 108.445 23.3234C108.445 23.3148 108.441 23.302 108.432 23.2848C108.432 23.259 108.432 23.2376 108.432 23.2204C107.865 23.8043 107.093 24.0962 106.114 24.0962C105.435 24.0962 104.856 23.9288 104.375 23.5939C103.903 23.2504 103.667 22.7825 103.667 22.19C103.667 21.589 103.834 21.1124 104.169 20.7604C104.512 20.3998 104.916 20.155 105.38 20.0262C105.852 19.8975 106.354 19.8331 106.887 19.8331C107.428 19.8331 107.956 19.8846 108.471 19.9876V19.9361C108.471 19.5068 108.385 19.1977 108.213 19.0088C108.05 18.8199 107.78 18.7254 107.402 18.7254C107.033 18.7254 106.723 18.7598 106.474 18.8284C106.225 18.8885 106.037 18.9529 105.908 19.0216C105.556 19.2277 105.311 19.3307 105.174 19.3307C105.036 19.3307 104.912 19.2663 104.8 19.1376C104.697 19.0088 104.646 18.8113 104.646 18.5451C104.646 18.2703 104.693 18.0814 104.787 17.9784C104.89 17.8753 105.049 17.7723 105.264 17.6693C106.011 17.3086 107.075 17.1283 108.458 17.1283ZM107.853 22.3961C108.23 22.3961 108.424 22.3231 108.432 22.1771C108.449 21.8938 108.458 21.5203 108.458 21.0566C108.458 20.8763 108.32 20.7861 108.046 20.7861C107.771 20.7861 107.548 20.8548 107.376 20.9922C107.204 21.121 107.118 21.3142 107.118 21.5718C107.118 21.8294 107.187 22.0312 107.324 22.1771C107.47 22.3231 107.646 22.3961 107.853 22.3961ZM114.585 14.4751H117.058C117.341 14.4751 117.53 14.5438 117.625 14.6812C117.719 14.81 117.779 15.0204 117.805 15.3123C117.857 16.3427 117.882 17.768 117.882 19.5883C117.882 21.4001 117.848 22.6494 117.779 23.3363C117.762 23.4737 117.693 23.5982 117.573 23.7098C117.453 23.8214 117.238 23.8858 116.929 23.903C116.629 23.9288 116.272 23.9417 115.86 23.9417C115.448 23.9417 115.079 23.9331 114.753 23.9159C114.194 23.873 113.903 23.6798 113.877 23.3363C113.791 22.5893 113.748 21.267 113.748 19.3694C113.748 17.4632 113.782 16.1108 113.851 15.3123C113.877 15.0204 113.933 14.81 114.018 14.6812C114.113 14.5438 114.302 14.4751 114.585 14.4751Z" fill="#1D1415"/>
<defs>
<clipPath id="clip0_1109_9786">
<rect width="58.662" height="21.6282" fill="white" transform="translate(0.334351 1.62891)"/>
</clipPath>
</defs>
</svg>
