<svg width="19" height="19" viewBox="0 0 19 19" fill="none" xmlns="http://www.w3.org/2000/svg">
<path d="M15.6182 0.775269C17.2159 0.775269 18.5218 2.02419 18.6131 3.599L18.6182 3.77527V15.7753C18.6182 17.373 17.3693 18.6789 15.7944 18.7702L15.6182 18.7753H3.61816C2.02049 18.7753 0.714503 17.5264 0.623257 15.9515L0.618164 15.7753V3.77527C0.618164 2.17759 1.86709 0.871608 3.44189 0.780361L3.61816 0.775269H15.6182ZM12.9116 14.4829C12.52 14.6703 12.0813 14.7753 11.6182 14.7753H2.61816V15.7753C2.61816 16.3276 3.06588 16.7753 3.61816 16.7753H15.204L12.9116 14.4829ZM15.6182 2.77527H14.6182V11.7753C14.6182 12.1612 14.5452 12.5302 14.4125 12.869L14.3258 13.0687L16.6182 15.3611V3.77527C16.6182 3.26244 16.2321 2.83976 15.7348 2.782L15.6182 2.77527ZM12.6182 2.77527H3.61816C3.10533 2.77527 2.68266 3.16131 2.62489 3.65865L2.61816 3.77527V12.7753H11.6182C12.131 12.7753 12.5537 12.3892 12.6114 11.8919L12.6182 11.7753V2.77527ZM6.61816 4.77527C7.131 4.77527 7.55367 5.16131 7.61144 5.65865L7.61816 5.77527V6.40675L9.06346 5.44322C9.52296 5.13687 10.1439 5.26104 10.4503 5.72057C10.7347 6.14727 10.6479 6.7131 10.2662 7.03703L10.1729 7.10732L8.79596 8.02527L10.1729 8.94317C10.6324 9.24957 10.7566 9.87047 10.4503 10.33C10.1657 10.7566 9.61006 10.8942 9.16423 10.6664L9.06346 10.6074L7.61816 9.64377V9.77527C7.61816 10.3276 7.17044 10.7753 6.61816 10.7753C6.10533 10.7753 5.68266 10.3892 5.62489 9.89189L5.61816 9.77527V5.77527C5.61816 5.22299 6.06588 4.77527 6.61816 4.77527Z" fill="#553FA5"/>
</svg>
