<svg width="163" height="93" viewBox="0 0 163 93" fill="none" xmlns="http://www.w3.org/2000/svg">
<rect x="0.157959" y="0.29834" width="162" height="92.2505" rx="10" fill="#F3EFFF"/>
<g clip-path="url(#clip0_813_9331)">
<path d="M71.2739 43.5996C71.2739 42.8201 71.9065 42.1876 72.6859 42.1876H76.9219V37.9515C76.9219 37.1721 77.5545 36.5395 78.3339 36.5395C79.1134 36.5395 79.746 37.1721 79.746 37.9515V42.1876H83.982C84.7614 42.1876 85.394 42.8201 85.394 43.5996C85.394 44.379 84.7614 45.0116 83.982 45.0116H79.746V49.2476C79.746 50.027 79.1134 50.6596 78.3339 50.6596C77.5545 50.6596 76.9219 50.027 76.9219 49.2476V45.0116H72.6859C71.9065 45.0116 71.2739 44.379 71.2739 43.5996ZM98.1021 42.1876V56.3076C98.1021 60.2005 94.9349 63.3677 91.042 63.3677H76.9219C73.4682 63.3677 70.5976 60.8712 69.9918 57.5897C66.7103 56.984 64.2139 54.1134 64.2139 50.6596V36.5395C64.2139 32.6466 67.381 29.4795 71.2739 29.4795H85.394C88.8478 29.4795 91.7184 31.9759 92.3241 35.2574C95.6056 35.8632 98.1021 38.7338 98.1021 42.1876ZM71.2739 54.8956H85.394C87.7294 54.8956 89.63 52.9951 89.63 50.6596V36.5395C89.63 34.2041 87.7294 32.3035 85.394 32.3035H71.2739C68.9384 32.3035 67.0379 34.2041 67.0379 36.5395V50.6596C67.0379 52.9951 68.9384 54.8956 71.2739 54.8956ZM95.278 42.1876C95.278 40.3491 94.0934 38.7959 92.454 38.2113V50.6596C92.454 54.5525 89.2869 57.7196 85.394 57.7196H72.9457C73.5303 59.359 75.0835 60.5437 76.9219 60.5437H91.042C93.3775 60.5437 95.278 58.6431 95.278 56.3076V42.1876Z" fill="#553FA5"/>
</g>
<defs>
<clipPath id="clip0_813_9331">
<rect width="33.8882" height="33.8882" fill="white" transform="translate(64.2139 29.4795)"/>
</clipPath>
</defs>
</svg>
