<svg width="19" height="21" viewBox="0 0 19 21" fill="none" xmlns="http://www.w3.org/2000/svg">
<path d="M9.61816 0.614746C12.8566 0.614746 15.4957 3.18032 15.614 6.38981L15.6182 6.61475H16.6182C17.6726 6.61475 18.5363 7.43062 18.6127 8.46548L18.6182 8.61475V18.6147C18.6182 19.6691 17.8023 20.5329 16.7674 20.6093L16.6182 20.6147H2.61816C1.5638 20.6147 0.699999 19.7989 0.62365 18.764L0.618164 18.6147V8.61475C0.618164 7.56038 1.43404 6.69658 2.4689 6.62023L2.61816 6.61475H3.61816C3.61816 3.30104 6.30445 0.614746 9.61816 0.614746ZM16.6182 8.61475H2.61816V18.6147H16.6182V8.61475ZM9.61816 10.6147C10.7228 10.6147 11.6182 11.5101 11.6182 12.6147C11.6182 13.2981 11.2755 13.9014 10.7526 14.2621L10.6182 14.3471V15.6147C10.6182 16.167 10.1705 16.6147 9.61816 16.6147C9.10531 16.6147 8.68265 16.2287 8.62489 15.7314L8.61816 15.6147V14.3471C8.02036 14.0013 7.61816 13.355 7.61816 12.6147C7.61816 11.5101 8.51356 10.6147 9.61816 10.6147ZM9.61816 2.61475C7.40902 2.61475 5.61816 4.40561 5.61816 6.61475H13.6182C13.6182 4.40561 11.8273 2.61475 9.61816 2.61475Z" fill="#553FA5"/>
</svg>
