<svg width="17" height="18" viewBox="0 0 17 18" fill="none" xmlns="http://www.w3.org/2000/svg">
<path d="M8.97021 0C8.41792 0 7.97021 0.44772 7.97021 1C7.97021 1.51283 8.35624 1.93551 8.85359 1.99327L8.97021 2H13.9702C14.483 2 14.9057 2.38604 14.9635 2.88338L14.9702 3V15C14.9702 15.5128 14.5842 15.9355 14.0868 15.9933L13.9702 16H9.47021C8.91792 16 8.47021 16.4477 8.47021 17C8.47021 17.5128 8.85624 17.9355 9.35359 17.9933L9.47021 18H13.9702C15.5679 18 16.8739 16.7511 16.9651 15.1763L16.9702 15V3C16.9702 1.40232 15.7213 0.0963393 14.1465 0.00509262L13.9702 0H8.97021ZM3.26321 5.46447L0.434715 8.2929C0.0442162 8.6834 0.0442162 9.3166 0.434715 9.7071L3.26321 12.5355C3.65371 12.9261 4.28681 12.9261 4.67741 12.5355C5.06791 12.145 5.06791 11.5118 4.67741 11.1213L3.55602 10H8.97021C9.52251 10 9.97021 9.5523 9.97021 9C9.97021 8.4477 9.52251 8 8.97021 8H3.55602L4.67741 6.87868C5.06791 6.48816 5.06791 5.85499 4.67741 5.46447C4.28681 5.07394 3.65371 5.07394 3.26321 5.46447Z" fill="#553FA5"/>
</svg>
