<svg width="37" height="37" viewBox="0 0 37 37" fill="none" xmlns="http://www.w3.org/2000/svg">
<rect x="0.835938" y="0.930664" width="36" height="36" rx="6" fill="white"/>
<path d="M11.7334 20.7262C11.5739 21.741 12.2869 22.4453 13.16 22.7963C16.507 24.1421 21.1648 24.1421 24.5119 22.7963C25.3849 22.4453 26.098 21.741 25.9385 20.7262C25.8405 20.1025 25.3558 19.5832 24.9967 19.0762C24.5264 18.4038 24.4797 17.6704 24.4796 16.8902C24.4796 13.875 21.9529 11.4307 18.8359 11.4307C15.719 11.4307 13.1923 13.875 13.1923 16.8902C13.1922 17.6704 13.1455 18.4038 12.6751 19.0762C12.3161 19.5832 11.8314 20.1025 11.7334 20.7262Z" stroke="#553FA5" stroke-width="1.5" stroke-linecap="round" stroke-linejoin="round"/>
<path d="M16.5859 25.6807C17.183 26.1471 17.9716 26.4307 18.8359 26.4307C19.7003 26.4307 20.4889 26.1471 21.0859 25.6807" stroke="#553FA5" stroke-width="1.5" stroke-linecap="round" stroke-linejoin="round"/>
</svg>
