<svg width="75" height="75" viewBox="0 0 75 75" fill="none" xmlns="http://www.w3.org/2000/svg">
<rect width="74.547" height="74.547" rx="14.9094" fill="#553FA5"/>
<path d="M42.243 48.8697C42.243 50.6164 40.8915 52.0473 39.1771 52.1738L38.9298 52.1829H35.6166C33.8699 52.1829 32.439 50.8314 32.3125 49.117L32.3034 48.8697H42.243ZM37.2735 20.7075C43.5445 20.7075 48.6529 25.6852 48.863 31.9051L48.8697 32.3037V38.539L51.8881 44.576C52.465 45.7299 51.6934 47.0778 50.4485 47.2036L50.2583 47.2131H24.2887C22.9986 47.2131 22.138 45.9201 22.5823 44.7503L22.6588 44.576L25.6773 38.539V32.3037C25.6773 25.8993 30.8691 20.7075 37.2735 20.7075Z" fill="white"/>
</svg>
