<svg width="21" height="21" viewBox="0 0 21 21" fill="none" xmlns="http://www.w3.org/2000/svg">
<path d="M5.47545 1.26276C6.73859 2.18414 7.69399 3.47907 8.50748 4.66693L9.14477 5.60517C9.55057 6.19824 9.48357 7.00277 8.96837 7.51799L7.61195 8.87433L7.75552 9.17781C8.10526 9.88682 8.70892 10.9087 9.61817 11.8179C10.3176 12.5173 11.0836 13.0359 11.7226 13.3972L12.0893 13.5953L12.4161 13.7568C12.4667 13.7807 12.5153 13.8031 12.5617 13.8241L13.9175 12.4684C14.4331 11.9527 15.2411 11.8847 15.8355 12.2966L16.8495 12.9996C18.0011 13.8098 19.2038 14.7332 20.1392 15.9311C20.4808 16.3685 20.5315 16.9406 20.3278 17.416C19.491 19.3685 17.3734 21.0314 15.1706 20.9503L14.87 20.9336L14.6371 20.9135L14.3793 20.8847L14.0977 20.8456L13.7934 20.795L13.4675 20.7314L13.121 20.6535L12.7549 20.5598L12.3703 20.449L11.9684 20.3198C10.1221 19.6942 7.77928 18.4643 5.37552 16.0605C2.97173 13.6567 1.74182 11.3139 1.1163 9.46764L0.987019 9.0657L0.876242 8.68117L0.782586 8.3151L0.704662 7.96857C0.681155 7.85643 0.660038 7.74773 0.641081 7.64263L0.590454 7.33835L0.551392 7.05679L0.522508 6.799L0.502411 6.56606L0.485706 6.26554C0.404916 4.07008 2.08672 1.93689 4.03032 1.10392C4.48639 0.908461 5.03877 0.944231 5.47545 1.26276ZM4.54685 3.07107C3.47544 3.63156 2.43724 4.91157 2.48436 6.19199L2.50507 6.5204L2.52569 6.72468L2.55515 6.95421L2.59495 7.20787L2.64659 7.48458L2.71157 7.78323L2.79139 8.10272L2.88755 8.44194L3.00156 8.79979C3.0427 8.92206 3.08706 9.04725 3.1349 9.17518L3.28909 9.567L3.46562 9.97415C4.09295 11.3556 5.11764 12.9742 6.78974 14.6463C8.46184 16.3184 10.0805 17.3431 11.4619 17.9704L11.8691 18.147L12.2609 18.3012C12.3888 18.349 12.514 18.3934 12.6363 18.4345L12.9942 18.5485L13.3334 18.6447L13.6529 18.7245L13.9515 18.7895L14.2282 18.8411L14.4819 18.8809L14.7114 18.9104L14.9157 18.931L15.2441 18.9517C16.5086 18.9982 17.7984 17.9661 18.3559 16.9084C17.6441 16.0732 16.7602 15.3879 15.785 14.6976L15.0377 14.1765L14.8469 14.3755L14.4417 14.8186L14.2263 15.0452C13.6401 15.642 12.9566 16.1493 12.1368 15.8177L11.9104 15.7229L11.6345 15.5992C11.5848 15.5761 11.5332 15.5518 11.48 15.5262L11.142 15.3571L10.7707 15.1565C9.99897 14.723 9.0659 14.0941 8.20395 13.2321C7.34201 12.3702 6.71307 11.4371 6.2796 10.6654L6.07898 10.2941L5.90989 9.95606L5.71311 9.52571L5.61831 9.29933C5.30717 8.53005 5.7348 7.88044 6.2821 7.31858L6.50594 7.09845L7.0636 6.58607L7.26278 6.39512L6.79019 5.7027C6.08749 4.68365 5.39933 3.76242 4.54685 3.07107ZM13.6099 4.85745L13.7259 4.87108C14.4538 4.99942 15.1224 5.35492 15.6359 5.8866C16.1493 6.41828 16.4812 7.09886 16.5841 7.8308C16.661 8.37771 16.2799 8.88333 15.733 8.96023C15.2251 9.03164 14.7528 8.70816 14.6264 8.22369L14.6036 8.10914C14.5595 7.79546 14.4172 7.50378 14.1972 7.27592C14.0138 7.08603 13.7842 6.94858 13.5323 6.87621L13.3786 6.84069C12.8348 6.74479 12.4716 6.22613 12.5675 5.68224C12.6565 5.17719 13.1101 4.82797 13.6099 4.85745ZM13.6182 1.81792C14.4061 1.81792 15.1864 1.97311 15.9143 2.27464C16.6423 2.57617 17.3037 3.01813 17.8609 3.57528C18.418 4.13243 18.86 4.79387 19.1615 5.52182C19.463 6.24977 19.6182 7.02999 19.6182 7.81792C19.6182 8.3702 19.1705 8.81792 18.6182 8.81792C18.1053 8.81792 17.6827 8.43188 17.6249 7.93454L17.6182 7.81792C17.6182 7.29263 17.5148 6.77249 17.3137 6.28719C17.1127 5.80188 16.8181 5.36093 16.4466 4.98949C16.0752 4.61806 15.6343 4.32342 15.1489 4.1224C14.7444 3.95488 14.3159 3.85512 13.8802 3.82652L13.6182 3.81792C13.0659 3.81792 12.6182 3.3702 12.6182 2.81792C12.6182 2.26564 13.0659 1.81792 13.6182 1.81792Z" fill="#553FA5"/>
</svg>
