<svg width="35" height="35" viewBox="0 0 35 35" fill="none" xmlns="http://www.w3.org/2000/svg">
<circle cx="17.1302" cy="17.7766" r="17.0573" fill="#EFEBFF"/>
<path d="M13.3646 10.4523C14.3178 11.1476 15.0388 12.1248 15.6527 13.0212L16.1336 13.7292C16.4398 14.1768 16.3892 14.7839 16.0005 15.1727L14.9769 16.1962L15.0852 16.4252C15.3491 16.9603 15.8047 17.7314 16.4908 18.4175C17.0186 18.9453 17.5967 19.3366 18.0789 19.6093L18.3556 19.7588L18.6022 19.8806C18.6404 19.8987 18.6771 19.9156 18.7121 19.9314L19.7352 18.9084C20.1243 18.5192 20.734 18.4679 21.1825 18.7788L21.9478 19.3092C22.8168 19.9206 23.7244 20.6175 24.4302 21.5214C24.688 21.8515 24.7263 22.2832 24.5725 22.642C23.9411 24.1154 22.3431 25.3702 20.6808 25.309L20.454 25.2964L20.2782 25.2813L20.0837 25.2595L19.8712 25.23L19.6416 25.1918L19.3956 25.1438L19.1341 25.085L18.8579 25.0143L18.5677 24.9308L18.2644 24.8332C16.8711 24.3612 15.1032 23.433 13.2892 21.6191C11.4753 19.8051 10.5471 18.0372 10.0751 16.6439L9.97755 16.3406L9.89396 16.0504L9.82328 15.7742L9.76448 15.5127C9.74674 15.4281 9.7308 15.346 9.7165 15.2667L9.67829 15.0371L9.64882 14.8246L9.62702 14.6301L9.61185 14.4543L9.59925 14.2275C9.53828 12.5708 10.8074 10.961 12.2741 10.3325C12.6183 10.185 13.0351 10.212 13.3646 10.4523ZM12.6639 11.8169C11.8554 12.2399 11.0719 13.2058 11.1075 14.172L11.1231 14.4199L11.1387 14.574L11.1609 14.7472L11.1909 14.9387L11.2299 15.1475L11.2789 15.3728L11.3392 15.6139L11.4117 15.8699L11.4978 16.14C11.5288 16.2322 11.5623 16.3267 11.5984 16.4232L11.7147 16.7189L11.848 17.0262C12.3214 18.0687 13.0946 19.2901 14.3564 20.5519C15.6182 21.8137 16.8397 22.587 17.8822 23.0604L18.1894 23.1936L18.4851 23.3099C18.5816 23.346 18.6761 23.3795 18.7684 23.4105L19.0384 23.4966L19.2944 23.5691L19.5355 23.6294L19.7609 23.6784L19.9697 23.7174L20.1611 23.7474L20.3343 23.7697L20.4884 23.7852L20.7363 23.8009C21.6905 23.8359 22.6638 23.0571 23.0845 22.2589C22.5474 21.6287 21.8804 21.1115 21.1444 20.5906L20.5805 20.1974L20.4365 20.3475L20.1307 20.6819L19.9682 20.8529C19.5258 21.3032 19.0101 21.6861 18.3914 21.4359L18.2206 21.3643L18.0124 21.271C17.9749 21.2535 17.936 21.2352 17.8958 21.2158L17.6408 21.0882L17.3605 20.9369C16.7782 20.6098 16.0741 20.1351 15.4236 19.4847C14.7732 18.8343 14.2986 18.1302 13.9715 17.5478L13.8201 17.2676L13.6925 17.0125L13.544 16.6878L13.4724 16.5169C13.2376 15.9364 13.5603 15.4462 13.9733 15.0222L14.1423 14.8561L14.5631 14.4694L14.7134 14.3253L14.3568 13.8028C13.8265 13.0338 13.3072 12.3386 12.6639 11.8169ZM19.5031 13.165L19.5906 13.1753C20.1399 13.2721 20.6444 13.5404 21.0319 13.9416C21.4193 14.3428 21.6698 14.8564 21.7475 15.4087C21.8055 15.8214 21.5179 16.203 21.1052 16.261C20.722 16.3149 20.3656 16.0708 20.2702 15.7052L20.2529 15.6188C20.2196 15.3821 20.1123 15.162 19.9462 14.99C19.8078 14.8467 19.6346 14.743 19.4445 14.6884L19.3285 14.6616C18.9181 14.5892 18.6441 14.1978 18.7164 13.7874C18.7836 13.4063 19.1259 13.1427 19.5031 13.165ZM19.5093 10.8713C20.1039 10.8713 20.6927 10.9884 21.242 11.2159C21.7914 11.4435 22.2905 11.777 22.711 12.1974C23.1314 12.6179 23.4649 13.117 23.6924 13.6663C23.9199 14.2156 24.0371 14.8044 24.0371 15.399C24.0371 15.8158 23.6992 16.1536 23.2824 16.1536C22.8954 16.1536 22.5765 15.8623 22.5329 15.487L22.5278 15.399C22.5278 15.0026 22.4498 14.6101 22.298 14.2439C22.1464 13.8777 21.924 13.5449 21.6437 13.2646C21.3634 12.9843 21.0307 12.762 20.6644 12.6103C20.3592 12.4839 20.0358 12.4086 19.7071 12.387L19.5093 12.3805C19.0925 12.3805 18.7547 12.0427 18.7547 11.6259C18.7547 11.2091 19.0925 10.8713 19.5093 10.8713Z" fill="#553FA5"/>
</svg>
