<svg width="21" height="20" viewBox="0 0 21 20" fill="none" xmlns="http://www.w3.org/2000/svg">
<path fill-rule="evenodd" clip-rule="evenodd" d="M4.61816 5C4.61816 3.67392 5.14495 2.40215 6.08263 1.46447C7.02031 0.526784 8.29208 0 9.61816 0C10.9442 0 12.216 0.526784 13.1537 1.46447C14.0914 2.40215 14.6182 3.67392 14.6182 5C14.6182 6.32608 14.0914 7.59785 13.1537 8.53553C12.216 9.47322 10.9442 10 9.61816 10C8.29208 10 7.02031 9.47322 6.08263 8.53553C5.14495 7.59785 4.61816 6.32608 4.61816 5ZM9.61816 2C9.2242 2 8.83409 2.0776 8.47011 2.22836C8.10614 2.37913 7.77542 2.6001 7.49684 2.87868C7.21827 3.15726 6.99729 3.48797 6.84653 3.85195C6.69576 4.21593 6.61816 4.60603 6.61816 5C6.61816 5.39397 6.69576 5.78407 6.84653 6.14805C6.99729 6.51203 7.21827 6.84274 7.49684 7.12132C7.77542 7.3999 8.10614 7.62087 8.47011 7.77164C8.83409 7.9224 9.2242 8 9.61816 8C10.4138 8 11.1769 7.68393 11.7395 7.12132C12.3021 6.55871 12.6182 5.79565 12.6182 5C12.6182 4.20435 12.3021 3.44129 11.7395 2.87868C11.1769 2.31607 10.4138 2 9.61816 2ZM3.03116 15.601C2.70816 16.011 2.61816 16.321 2.61816 16.5C2.61816 16.618 2.65316 16.732 2.82316 16.884C3.02016 17.06 3.37316 17.254 3.93316 17.427C5.05316 17.773 6.68916 17.948 8.63916 17.99C8.77049 17.9928 8.89998 18.0214 9.02025 18.0742C9.14052 18.127 9.24921 18.2029 9.34012 18.2977C9.43103 18.3926 9.50237 18.5043 9.55008 18.6267C9.59779 18.7491 9.62092 18.8797 9.61816 19.011C9.61541 19.1423 9.58681 19.2718 9.53401 19.3921C9.4812 19.5124 9.40523 19.621 9.31042 19.712C9.21561 19.8029 9.10383 19.8742 8.98145 19.9219C8.85907 19.9696 8.72849 19.9928 8.59716 19.99C6.60016 19.947 4.73716 19.769 3.34316 19.338C2.64716 19.122 1.98916 18.821 1.49116 18.376C0.965164 17.906 0.618164 17.274 0.618164 16.5C0.618164 15.713 0.976164 14.977 1.46216 14.361C1.95616 13.736 2.63916 13.161 3.44016 12.671C5.04316 11.695 7.22316 11 9.61816 11C10.0652 11 10.5052 11.024 10.9342 11.07C11.1979 11.098 11.4398 11.2296 11.6065 11.4359C11.7732 11.6422 11.8511 11.9062 11.8232 12.17C11.7952 12.4338 11.6636 12.6756 11.4573 12.8423C11.251 13.009 10.9869 13.087 10.7232 13.059C10.3632 13.02 9.99316 13 9.61816 13C7.59516 13 5.77516 13.59 4.48216 14.379C3.83516 14.773 3.34616 15.201 3.03116 15.601ZM19.8312 12.034C19.599 11.8018 19.3234 11.6176 19.02 11.4919C18.7167 11.3662 18.3915 11.3015 18.0632 11.3015C17.7348 11.3015 17.4097 11.3662 17.1063 11.4919C16.8029 11.6176 16.5273 11.8018 16.2952 12.034L12.8772 15.451C12.6477 15.6807 12.4989 15.9786 12.4532 16.3L12.1232 18.608C12.1011 18.7619 12.1152 18.9189 12.1643 19.0664C12.2134 19.2139 12.2963 19.348 12.4062 19.458C12.5162 19.5679 12.6502 19.6507 12.7978 19.6999C12.9453 19.749 13.1022 19.7631 13.2562 19.741L15.5642 19.411C15.8856 19.3653 16.1835 19.2165 16.4132 18.987L19.8302 15.569C20.2988 15.1002 20.5621 14.4644 20.5621 13.8015C20.5621 13.1386 20.2998 12.5028 19.8312 12.034ZM17.7092 13.448C17.8035 13.3569 17.9298 13.3065 18.0609 13.3077C18.192 13.3088 18.3174 13.3614 18.4101 13.4541C18.5028 13.5468 18.5554 13.6722 18.5565 13.8033C18.5576 13.9344 18.5072 14.0607 18.4162 14.155L15.1162 17.455L14.2912 17.573L14.4092 16.748L17.7092 13.448Z" fill="#553FA5"/>
</svg>
