<svg width="32" height="31" viewBox="0 0 32 31" fill="none" xmlns="http://www.w3.org/2000/svg">
<path fill-rule="evenodd" clip-rule="evenodd" d="M12.4527 3.76768C14.3042 2.18988 16.9951 2.13145 18.9086 3.59237L19.1259 3.76768L19.6101 4.18026C19.9632 4.48117 20.3899 4.68004 20.8444 4.75783L21.0737 4.78655L21.7079 4.83714C24.1391 5.03116 26.0869 6.90191 26.3993 9.29718L26.4264 9.55577L26.477 10.1899C26.5139 10.6523 26.6751 11.0947 26.9415 11.4711L27.0833 11.6535L27.4959 12.1377C29.0736 13.9891 29.1321 16.68 27.6712 18.5936L27.4959 18.8108L27.0833 19.295C26.7824 19.6481 26.5835 20.0748 26.5057 20.5293L26.477 20.7586L26.4264 21.3928C26.2324 23.824 24.3617 25.772 21.9664 26.0842L21.7079 26.1114L21.0737 26.162C20.6113 26.1988 20.1689 26.36 19.7926 26.6264L19.6101 26.7683L19.1259 27.1808C17.2745 28.7587 14.5837 28.8171 12.67 27.3561L12.4527 27.1808L11.9686 26.7683C11.6155 26.4673 11.1888 26.2684 10.7343 26.1907L10.5049 26.162L9.87082 26.1114C7.43956 25.9174 5.49167 24.0466 5.17936 21.6514L5.15221 21.3928L5.1016 20.7586C5.0647 20.2962 4.90355 19.8538 4.63719 19.4775L4.49533 19.295L4.08274 18.8108C2.50495 16.9594 2.44651 14.2686 3.90743 12.3549L4.08274 12.1377L4.49533 11.6535C4.79624 11.3004 4.99509 10.8737 5.07288 10.4192L5.1016 10.1899L5.15221 9.55577C5.34622 7.1245 7.21697 5.1766 9.61223 4.86429L9.87082 4.83714L10.5049 4.78655C10.9674 4.74964 11.4098 4.58849 11.7861 4.32213L11.9686 4.18026L12.4527 3.76768ZM19.0044 16.7604C17.939 16.7604 17.0753 17.6241 17.0753 18.6894C17.0753 19.7548 17.939 20.6185 19.0044 20.6185C20.0697 20.6185 20.9334 19.7548 20.9334 18.6894C20.9334 17.6241 20.0697 16.7604 19.0044 16.7604ZM18.738 10.7069L11.0219 18.4231C10.5196 18.9253 10.5196 19.7396 11.0219 20.2418C11.5241 20.744 12.3384 20.744 12.8406 20.2418L20.5567 12.5256C21.0589 12.0234 21.0589 11.2091 20.5567 10.7069C20.0545 10.2047 19.2402 10.2047 18.738 10.7069ZM12.5742 10.3302C11.5089 10.3302 10.6452 11.1939 10.6452 12.2593C10.6452 13.3246 11.5089 14.1883 12.5742 14.1883C13.6396 14.1883 14.5033 13.3246 14.5033 12.2593C14.5033 11.1939 13.6396 10.3302 12.5742 10.3302Z" fill="#553FA5"/>
</svg>
