<svg width="14" height="15" viewBox="0 0 14 15" fill="none" xmlns="http://www.w3.org/2000/svg">
<path fill-rule="evenodd" clip-rule="evenodd" d="M0.996031 11.0794C1.34215 10.4088 2.07323 9.95994 2.95856 10.0706C3.80834 10.1768 4.77062 10.3368 5.73811 10.5787C7.31068 10.9719 8.66482 11.7689 9.5968 12.4368L9.87684 12.6428C9.9211 12.6762 9.96412 12.7091 10.0059 12.7414L10.2412 12.9275L10.4448 13.0958L10.6878 13.3064C11.2782 13.8326 10.8768 14.6913 10.2086 14.7542L10.1303 14.7578H4.1141C3.10993 14.7578 2.15718 14.3267 1.49488 13.5794L1.38107 13.4443L1.24141 13.2697C0.699651 12.5925 0.654158 11.7417 0.996031 11.0794ZM2.78492 11.4598C2.50541 11.4248 2.32796 11.5513 2.24009 11.7215C2.15821 11.8802 2.14522 12.0998 2.27789 12.3148L2.33462 12.3951L2.47428 12.5697C2.84434 13.0322 3.39101 13.3153 3.97799 13.3534L4.1141 13.3578H8.4686C7.66332 12.8169 6.59498 12.236 5.39858 11.9369C4.49919 11.712 3.59456 11.561 2.78492 11.4598ZM11.8684 0.757812C12.3026 0.757812 12.6202 0.994266 12.821 1.25042C13.0118 1.49379 13.1354 1.79663 13.2217 2.0881C13.3963 2.67777 13.4788 3.43696 13.5099 4.19387C13.5361 4.83197 13.527 5.50751 13.4939 6.13731L13.4648 6.59979C13.4149 7.27675 13.3385 7.86951 13.2518 8.25964C12.8787 9.93845 12.2258 10.953 11.4959 11.5058C10.797 12.035 9.98641 12.1494 9.45532 11.8839C9.22383 11.7682 8.99885 11.5604 8.81314 11.3445C8.61504 11.1141 8.41512 10.82 8.25195 10.4784C7.9261 9.79635 7.72527 8.87361 8.05434 7.88647C8.25798 7.27557 8.65041 6.89475 8.99614 6.60947L9.21921 6.43033C9.6131 6.11673 9.94077 5.84792 10.1924 5.34477C10.2573 5.21478 10.3048 4.95231 10.3155 4.50823L10.3181 4.29633L10.3125 3.77434C10.309 3.56387 10.3052 3.34209 10.3074 3.12714C10.3121 2.67259 10.3412 2.13394 10.5179 1.69419C10.6115 1.46147 10.7611 1.21745 11.0055 1.03311C11.2577 0.842863 11.5558 0.757812 11.8684 0.757812ZM11.8003 2.26234C11.7422 2.43916 11.7116 2.72544 11.7073 3.14146L11.7069 3.33883L11.7135 3.82095C11.7174 4.05536 11.7209 4.30263 11.7151 4.54198C11.7042 4.99129 11.6619 5.53616 11.4445 5.97086C11.1395 6.58093 10.749 6.97649 10.401 7.27313L10.1982 7.44017L10.0912 7.52562C9.67484 7.85714 9.48311 8.02717 9.38245 8.32915C9.19821 8.88208 9.29922 9.42276 9.51517 9.87496C9.6229 10.1004 9.7538 10.2911 9.87469 10.4317C9.93139 10.4977 9.97882 10.5445 10.0139 10.5762L10.0669 10.6205L10.1333 10.618C10.2263 10.6103 10.4086 10.573 10.6506 10.3897C11.0342 10.0992 11.5581 9.42717 11.8851 7.95598C11.9149 7.82193 11.9442 7.65076 11.9715 7.45119L12.0108 7.13162C12.017 7.07517 12.0231 7.01722 12.029 6.9579L12.0618 6.5867L12.0889 6.18926C12.0929 6.12119 12.0966 6.0523 12.1 5.98273L12.1165 5.55818C12.129 5.1276 12.1288 4.68218 12.1111 4.25136C12.0816 3.53251 12.0048 2.9093 11.8793 2.4855C11.8519 2.39291 11.8249 2.31948 11.8003 2.26234Z" fill="#553FA5"/>
</svg>
