<svg width="32" height="13" viewBox="0 0 32 13" fill="none" xmlns="http://www.w3.org/2000/svg">
<path d="M24.3098 11.6838L24.3544 11.5944C24.5039 11.6689 24.6019 11.7086 24.7149 11.7314C24.8299 11.7545 24.9654 11.761 25.1917 11.7611C25.4148 11.7579 25.5526 11.7499 25.6701 11.7266C25.7854 11.7037 25.8853 11.6651 26.0306 11.5942C26.2438 11.4871 26.4671 11.3075 26.6582 11.0969C26.8495 10.8859 27.0028 10.65 27.0811 10.4345L27.0811 10.4343C27.4426 9.44476 26.986 8.30168 26.0368 7.82406C25.6067 7.61428 24.9948 7.57852 24.5611 7.73363C23.3895 8.15767 22.835 9.43806 23.3378 10.5408C23.5584 11.0142 23.8967 11.3643 24.3547 11.5945L24.3098 11.6838ZM24.3098 11.6838C24.6143 11.8357 24.7386 11.8611 25.1924 11.8611L26.0812 7.73446C25.6274 7.51294 24.9873 7.47496 24.5273 7.63952C23.3029 8.08256 22.7186 9.42434 23.247 10.5826C23.4769 11.0762 23.8312 11.4433 24.3098 11.6838ZM0.318454 8.39074H0.318453L0.3184 8.39023C0.259811 7.81873 0.238127 7.47107 0.305277 7.20012C0.374634 6.92026 0.536006 6.73093 0.800981 6.46745C0.801018 6.46741 0.801055 6.46738 0.801091 6.46734L1.16317 6.10449V5.32938C1.16317 4.86171 1.18285 4.54713 1.25613 4.30799C1.33183 4.06097 1.46272 3.90004 1.66524 3.73362C1.84594 3.58041 2.02049 3.48883 2.30677 3.43744C2.58578 3.38735 2.97379 3.37495 3.5815 3.37495H4.63842L5.77882 2.77879C7.65038 1.79739 9.39892 1.03337 10.3365 0.783422C10.7505 0.671463 11.0791 0.659746 13.3396 0.659746L13.3402 0.659744C14.5873 0.656587 15.2276 0.654963 15.6293 0.6741C16.0371 0.693526 16.2046 0.734741 16.5039 0.814943C18.6299 1.36264 20.892 2.46979 22.5995 3.79455C22.5996 3.79459 22.5996 3.79463 22.5997 3.79467L22.877 4.00786H23.7255C26.1526 4.00786 28.3387 4.64456 29.8647 5.81943C30.1634 6.04671 30.4034 6.2632 30.5816 6.4659C30.7589 6.66752 30.8795 6.86064 30.9319 7.04168C30.9618 7.1423 30.9812 7.30663 30.9932 7.49367C31.0054 7.68388 31.0105 7.90666 31.009 8.12915C31.0074 8.35166 30.9992 8.57514 30.9846 8.76677C30.9702 8.95589 30.9491 9.12161 30.9196 9.22415L30.9195 9.22432C30.8024 9.62854 30.5264 9.9939 30.2297 10.1235C30.1413 10.1626 30.0067 10.1854 29.826 10.1997C29.6418 10.2142 29.3979 10.2205 29.0832 10.2205H28.2595L28.211 10.4089C28.1764 10.5749 28.0416 10.9054 27.9241 11.151L27.9238 11.1516C27.339 12.3559 26.0028 13.0431 24.6907 12.8141C23.4834 12.6112 22.514 11.7218 22.1994 10.5451L22.1993 10.5449L22.1134 10.2205H16.0247H9.93599L9.85004 10.5449L9.84999 10.5451C9.34921 12.4214 7.27501 13.3899 5.52124 12.5526C4.74794 12.1851 4.04996 11.3119 3.86919 10.4901L3.86911 10.4898L3.81737 10.2503L2.59084 10.2205L2.59068 10.2205C1.98095 10.2048 1.64742 10.1952 1.43917 10.1716C1.3336 10.1597 1.25539 10.1437 1.18696 10.1196C1.11802 10.0954 1.06341 10.0644 1.00523 10.0282L1.00522 10.0282L1.00402 10.0275C0.786796 9.88794 0.638522 9.72703 0.533524 9.47008C0.431354 9.22004 0.37132 8.88157 0.318454 8.39074ZM13.853 2.88648L13.8528 2.88611L13.2898 1.7395H12.0779H10.8208L10.1535 1.97426C10.1535 1.97427 10.1534 1.97427 10.1534 1.97428C9.73677 2.122 9.21712 2.33301 8.80487 2.51573C8.59861 2.60716 8.42075 2.69083 8.29674 2.75547C8.2604 2.77441 8.22956 2.79127 8.20445 2.80585C8.24126 2.83955 8.29044 2.88304 8.34955 2.93405C8.48603 3.05183 8.67312 3.20771 8.87743 3.37163L8.87753 3.37171L9.58971 3.94457H12.0468H14.378L13.853 2.88648ZM20.9175 3.94457L20.879 3.91871L20.8784 3.91824C19.7143 3.12175 17.9162 2.31581 16.2779 1.8625C15.9419 1.77089 15.6473 1.7395 15.0799 1.7395H14.4837L15.014 2.79722L15.5892 3.94457H18.3865H20.9175ZM8.10585 4.14787L8.1055 4.14758C7.81702 3.91384 7.54894 3.7024 7.34938 3.5496C7.2495 3.47312 7.16736 3.41177 7.10864 3.36978C7.08495 3.35283 7.06574 3.33952 7.05107 3.32982C7.03339 3.33694 7.00973 3.34743 6.97966 3.36164C6.91551 3.39195 6.82672 3.43704 6.71337 3.49691C6.487 3.6165 6.16639 3.79313 5.75659 4.02391C5.75647 4.02397 5.75635 4.02404 5.75623 4.02411L5.07325 4.41611L5.05125 4.42874L5.02588 4.42935L3.71444 4.461L3.7143 4.461C3.62881 4.46294 3.54816 4.46463 3.47202 4.46623C3.17377 4.47249 2.94491 4.47729 2.76711 4.48995C2.53989 4.50613 2.41882 4.53442 2.3498 4.57883C2.29259 4.61564 2.25978 4.67149 2.24412 4.79787C2.23128 4.90149 2.23194 5.03406 2.23282 5.21374C2.23306 5.26334 2.23332 5.31653 2.23332 5.37369C2.23332 5.87937 2.21211 6.21793 2.1301 6.48027C2.04583 6.74985 1.89976 6.93222 1.67101 7.13237C1.57981 7.21287 1.49346 7.29621 1.42815 7.36501C1.39539 7.39952 1.36878 7.42947 1.34977 7.45299C1.3372 7.46853 1.33065 7.47805 1.32765 7.48251C1.32756 7.48342 1.32748 7.48443 1.32739 7.48555C1.32663 7.49549 1.3261 7.50968 1.32596 7.52839C1.32568 7.56562 1.32693 7.61591 1.32957 7.67629C1.33484 7.79678 1.34541 7.95323 1.35895 8.11705C1.38616 8.44643 1.42456 8.79606 1.45424 8.94161C1.46678 8.9987 1.48612 9.03419 1.51616 9.06117C1.5484 9.09013 1.60281 9.11812 1.70192 9.13998C1.9035 9.18444 2.24381 9.19465 2.82771 9.18511C2.82774 9.18511 2.82778 9.18511 2.82781 9.18511L3.81748 9.16753L3.86911 8.92854L3.86919 8.92817C4.04996 8.1064 4.74797 7.23314 5.52129 6.86565L5.52201 6.86532C5.74756 6.76032 6.14184 6.63718 6.40678 6.59763C7.94369 6.35557 9.44562 7.34391 9.85004 8.8734C9.85004 8.87342 9.85005 8.87344 9.85005 8.87346L9.93599 9.19776H16.0309H22.1278L22.1484 9.09995L22.1486 9.0993C22.6798 6.65501 25.5497 5.71149 27.3132 7.42863C27.7116 7.81474 28.088 8.47025 28.2108 9.00218C28.2109 9.00251 28.211 9.00283 28.211 9.00316L28.2599 9.19776H28.9464L28.9963 9.19776C29.2421 9.19782 29.4208 9.19787 29.5552 9.18386C29.699 9.16886 29.7687 9.13946 29.8099 9.09773C29.8519 9.05527 29.8824 8.98192 29.9004 8.83195C29.9171 8.69245 29.9212 8.50668 29.9268 8.25217L29.9279 8.20058L29.928 8.19991L29.9517 7.38544L29.7795 7.19367L29.7795 7.19369L29.778 7.19195C29.448 6.80707 28.8951 6.4139 28.2375 6.07827C27.5814 5.74341 26.8285 5.46969 26.1046 5.31975C24.9735 5.08814 24.7574 5.08131 16.9442 5.04964L9.22466 5.01799L9.18972 5.01785L9.16247 4.99598L8.10585 4.14787ZM7.42499 7.71633L7.42495 7.71632C6.66331 7.48785 5.95634 7.69466 5.36443 8.34003L5.3643 8.34017C4.6552 9.11038 4.66436 10.2925 5.38371 11.098C5.60423 11.3409 5.81252 11.5034 6.04263 11.6069C6.2727 11.7103 6.53145 11.7579 6.85747 11.7611C7.08389 11.761 7.21944 11.7545 7.33452 11.7314C7.44747 11.7087 7.54539 11.6689 7.69484 11.5944C8.43328 11.2245 8.88266 10.5113 8.88266 9.72181C8.88266 9.46874 8.83977 9.16508 8.78908 9.02136C8.56944 8.41731 8.0275 7.89678 7.42499 7.71633Z" fill="#553FA5" stroke="#553FA5" stroke-width="0.2"/>
<path d="M6.85682 8.19146C8.15034 8.18487 8.83864 9.69755 8.00293 10.6909C7.7046 11.0487 7.32904 11.2265 6.87099 11.2332L6.87099 11.2332H6.86951C6.67136 11.2332 6.49895 11.2084 6.33592 11.1479C6.17298 11.0874 6.02461 10.9932 5.87199 10.8609C5.04449 10.1539 5.2653 8.73559 6.2571 8.295L6.2571 8.295L6.25829 8.29448C6.32808 8.26456 6.43036 8.23924 6.5349 8.22137C6.64072 8.20327 6.75672 8.19148 6.85682 8.19146ZM6.85682 8.19146C6.85691 8.19146 6.85699 8.19146 6.85708 8.19146V8.29146L6.85656 8.19146C6.85664 8.19146 6.85673 8.19146 6.85682 8.19146ZM7.17795 9.43132L7.17777 9.4311C7.04059 9.26505 6.85621 9.23403 6.70737 9.29141C6.55782 9.34907 6.43499 9.49982 6.43499 9.72184C6.43499 10.1163 6.92691 10.2938 7.17748 9.98763L7.17747 9.98762L7.17795 9.98705C7.27365 9.87188 7.3087 9.78492 7.3087 9.70918C7.3087 9.63345 7.27365 9.54649 7.17795 9.43132Z" fill="#553FA5" stroke="#553FA5" stroke-width="0.2"/>
<path d="M25.492 9.3974L25.492 9.39738C25.3176 9.20965 25.0469 9.21599 24.8722 9.43031C24.8339 9.47771 24.7976 9.53586 24.7713 9.59084C24.7434 9.64932 24.733 9.69113 24.733 9.70907C24.733 9.79705 24.7865 9.90779 24.8776 10.0006C24.9689 10.0935 25.0768 10.147 25.1613 10.147C25.5601 10.147 25.761 9.68687 25.492 9.3974ZM24.0466 10.691C23.4029 9.92704 23.6528 8.72902 24.5601 8.31443C25.0873 8.06994 25.8029 8.18348 26.2127 8.58015C26.6844 9.03353 26.8249 9.82113 26.5371 10.3871C26.0393 11.3801 24.7526 11.5385 24.0466 10.691Z" fill="#553FA5" stroke="#553FA5" stroke-width="0.2"/>
</svg>
