<svg width="23" height="22" viewBox="0 0 23 22" fill="none" xmlns="http://www.w3.org/2000/svg">
<path fill-rule="evenodd" clip-rule="evenodd" d="M11.6055 8.71582C10.3628 8.71582 9.35547 9.72318 9.35547 10.9658C9.35547 12.2085 10.3628 13.2158 11.6055 13.2158C12.8481 13.2158 13.8555 12.2085 13.8555 10.9658C13.8555 9.72318 12.8481 8.71582 11.6055 8.71582ZM7.85547 10.9658C7.85547 8.89475 9.5344 7.21582 11.6055 7.21582C13.6765 7.21582 15.3555 8.89475 15.3555 10.9658C15.3555 13.0369 13.6765 14.7158 11.6055 14.7158C9.5344 14.7158 7.85547 13.0369 7.85547 10.9658Z" fill="#7C8BA0"/>
<path fill-rule="evenodd" clip-rule="evenodd" d="M9.20894 2.73612C8.94127 2.29018 8.37756 2.15145 7.95894 2.40051L7.94803 2.407L6.21798 3.3969C5.67061 3.70969 5.48176 4.41884 5.79487 4.96075L5.14547 5.33595L5.79435 4.95985C6.32941 5.88298 6.47326 6.89477 5.99529 7.72418C5.51739 8.55347 4.57026 8.93595 3.50547 8.93595C2.87225 8.93595 2.35547 9.4576 2.35547 10.086V11.846C2.35547 12.4743 2.87225 12.996 3.50547 12.996C4.57026 12.996 5.51739 13.3784 5.99529 14.2077C6.4732 15.037 6.32945 16.0487 5.79456 16.9717C5.48189 17.5135 5.67038 18.2221 6.21757 18.5348L7.95899 19.5313C8.37761 19.7804 8.94124 19.6417 9.20892 19.1958L9.3164 19.0102C9.85127 18.0874 10.6575 17.4585 11.6142 17.4585C12.5717 17.4585 13.3754 18.0878 13.9054 19.0117C13.9057 19.0121 13.9059 19.0125 13.9061 19.013L14.012 19.1958C14.2797 19.6417 14.8434 19.7805 15.262 19.5314L15.2729 19.5249L17.003 18.535C17.5489 18.223 17.7406 17.5237 17.4252 16.9697C16.8913 16.0472 16.7481 15.0364 17.2256 14.2077C17.7035 13.3784 18.6507 12.996 19.7155 12.996C20.3487 12.996 20.8655 12.4743 20.8655 11.846V10.086C20.8655 9.45273 20.3438 8.93595 19.7155 8.93595C18.6507 8.93595 17.7035 8.55347 17.2256 7.72418C16.7478 6.89493 16.8915 5.88338 17.4263 4.96039C17.7391 4.41853 17.5506 3.70985 17.0034 3.39714L15.2619 2.4006C14.8433 2.15155 14.2797 2.29018 14.012 2.73613L13.9045 2.92173C13.3697 3.84454 12.5634 4.47345 11.6067 4.47345C10.6494 4.47345 9.84568 3.84419 9.31568 2.92049C9.31538 2.91998 9.31509 2.91946 9.3148 2.91895L9.20894 2.73612ZM7.19795 1.10787C8.35738 0.422504 9.82804 0.84298 10.5 1.97248L10.5046 1.98015L10.6145 2.17018L10.6161 2.17296C10.9861 2.81841 11.3721 2.97345 11.6067 2.97345C11.8425 2.97345 12.2313 2.8171 12.6064 2.17017C12.6063 2.17028 12.6065 2.17007 12.6064 2.17017L12.7209 1.97246C13.3929 0.842947 14.8636 0.4225 16.023 1.10788L17.7476 2.09477C19.0202 2.82199 19.4518 4.45307 18.7249 5.71116L18.7243 5.71206C18.3494 6.35892 18.4083 6.77214 18.5253 6.97523C18.6424 7.17844 18.9703 7.43595 19.7155 7.43595C21.1671 7.43595 22.3655 8.61917 22.3655 10.086V11.846C22.3655 13.2976 21.1822 14.496 19.7155 14.496C18.9703 14.496 18.6424 14.7535 18.5253 14.9567C18.4083 15.1598 18.3494 15.573 18.7243 16.2198L18.7267 16.2238C19.4499 17.4895 19.0212 19.1091 17.748 19.8369C17.7478 19.837 17.7481 19.8368 17.748 19.8369L16.0229 20.8241C14.8635 21.5094 13.3929 21.0889 12.7209 19.9594L12.7164 19.9518L12.6064 19.7617L12.6048 19.759C12.2348 19.1135 11.8488 18.9585 11.6142 18.9585C11.3785 18.9585 10.9896 19.1148 10.6145 19.7617C10.6145 19.7618 10.6146 19.7616 10.6145 19.7617L10.5001 19.9595C9.8281 21.0889 8.35745 21.5094 7.19804 20.8241L5.47336 19.8371C5.47323 19.8371 5.4735 19.8372 5.47336 19.8371C4.20105 19.1098 3.76925 17.4787 4.49607 16.2207L4.49659 16.2198C4.87152 15.573 4.81268 15.1598 4.69565 14.9567C4.57854 14.7535 4.25068 14.496 3.50547 14.496C2.03869 14.496 0.855469 13.2976 0.855469 11.846V10.086C0.855469 8.63431 2.03869 7.43595 3.50547 7.43595C4.25068 7.43595 4.57854 7.17844 4.69565 6.97523C4.81268 6.77214 4.87152 6.35892 4.49659 5.71206L4.49607 5.71116C3.76925 4.4532 4.20065 2.82233 5.47296 2.095L7.19795 1.10787Z" fill="#7C8BA0"/>
</svg>
