<svg width="22" height="22" viewBox="0 0 22 22" fill="none" xmlns="http://www.w3.org/2000/svg">
<path d="M8.93198 1.65576H7.76889H7.23992L6.07677 2.02575L4.86081 2.66019L4.438 3.98195L4.86081 5.03936V6.94269V7.25991L4.438 7.84149L2.90454 8.26445L1.63566 8.58167L1.15998 9.16325L0.789795 10.2207L1.15998 12.4941L2.11173 13.2343L3.2749 13.6044L4.438 14.2388L4.86081 15.2433V16.4065L4.438 17.4639L4.86081 18.257L5.70685 19.6316L6.92279 19.9488L8.19167 20.4246L8.93198 19.6316L9.98927 18.8385L10.9409 18.257H11.6811L12.4742 18.8385L13.2672 19.9488L14.2189 20.4246L15.6464 19.9488L17.3911 18.8385L17.9198 17.834L17.3911 15.6134V14.7675L18.1313 13.6044H20.1404L20.6691 13.2343V12.4941C20.7924 12.3531 21.092 11.9442 21.3035 11.4367C21.5679 10.8022 21.3035 10.5379 21.3035 10.2207C21.3035 9.96688 20.8806 9.40998 20.6691 9.16325L20.1404 8.58167L18.8186 8.26445L17.9198 7.84149L17.3911 6.94269V6.0439V5.03936V3.98195V2.97741L16.6509 2.2901L15.3292 1.65576H14.2189L12.95 2.02575L12.0512 2.66019L11.6811 3.40038H10.4122L9.56631 2.66019L8.93198 1.65576Z" fill="#553FA5"/>
<path fill-rule="evenodd" clip-rule="evenodd" d="M8.70894 2.81034C8.44127 2.36439 7.87756 2.22567 7.45894 2.47473L7.44803 2.48122L5.71798 3.47112C5.17061 3.78391 4.98176 4.49306 5.29487 5.03496L4.64547 5.41017L5.29435 5.03407C5.82941 5.9572 5.97326 6.96899 5.49529 7.7984C5.01739 8.62769 4.07026 9.01017 3.00547 9.01017C2.37225 9.01017 1.85547 9.53182 1.85547 10.1602V11.9202C1.85547 12.5485 2.37225 13.0702 3.00547 13.0702C4.07026 13.0702 5.01739 13.4527 5.49529 14.2819C5.9732 15.1112 5.82945 16.1229 5.29456 17.0459C4.98189 17.5878 5.17038 18.2963 5.71757 18.609L7.45899 19.6055C7.87761 19.8546 8.44124 19.716 8.70892 19.27L8.8164 19.0844C9.35127 18.1616 10.1575 17.5327 11.1142 17.5327C12.0717 17.5327 12.8754 18.1621 13.4054 19.0859C13.4057 19.0863 13.4059 19.0868 13.4061 19.0872L13.512 19.27C13.7797 19.7159 14.3434 19.8547 14.762 19.6056L14.7729 19.5991L16.503 18.6092C17.0489 18.2973 17.2406 17.5979 16.9252 17.044C16.3913 16.1215 16.2481 15.1107 16.7256 14.2819C17.2035 13.4527 18.1507 13.0702 19.2155 13.0702C19.8487 13.0702 20.3655 12.5485 20.3655 11.9202V10.1602C20.3655 9.52695 19.8438 9.01017 19.2155 9.01017C18.1507 9.01017 17.2035 8.62769 16.7256 7.7984C16.2478 6.96915 16.3915 5.9576 16.9263 5.03461C17.2391 4.49275 17.0506 3.78407 16.5034 3.47135L14.7619 2.47482C14.3433 2.22576 13.7797 2.3644 13.512 2.81035L13.4045 2.99595C12.8697 3.91876 12.0634 4.54767 11.1067 4.54767C10.1494 4.54767 9.34568 3.91841 8.81568 2.99471C8.81538 2.9942 8.81509 2.99368 8.8148 2.99317L8.70894 2.81034ZM6.69795 1.18209C7.85738 0.496723 9.32804 0.917199 10 2.0467L10.0046 2.05437L10.1145 2.2444L10.1161 2.24718C10.4861 2.89263 10.8721 3.04767 11.1067 3.04767C11.3425 3.04767 11.7313 2.89131 12.1064 2.24439C12.1063 2.2445 12.1065 2.24428 12.1064 2.24439L12.2209 2.04668C12.8929 0.917166 14.3636 0.496719 15.523 1.1821L17.2476 2.16899C18.5202 2.89621 18.9518 4.52729 18.2249 5.78538L18.2243 5.78627C17.8494 6.43314 17.9083 6.84636 18.0253 7.04945C18.1424 7.25265 18.4703 7.51017 19.2155 7.51017C20.6671 7.51017 21.8655 8.69339 21.8655 10.1602V11.9202C21.8655 13.3718 20.6822 14.5702 19.2155 14.5702C18.4703 14.5702 18.1424 14.8277 18.0253 15.0309C17.9083 15.234 17.8494 15.6472 18.2243 16.2941L18.2267 16.2981C18.9499 17.5637 18.5212 19.1833 17.248 19.9111C17.2478 19.9112 17.2481 19.911 17.248 19.9111L15.5229 20.8983C14.3635 21.5836 12.8929 21.1631 12.2209 20.0336L12.2164 20.026L12.1064 19.836L12.1048 19.8332C11.7348 19.1877 11.3488 19.0327 11.1142 19.0327C10.8785 19.0327 10.4896 19.189 10.1145 19.8359C10.1145 19.8361 10.1146 19.8358 10.1145 19.8359L10.0001 20.0337C9.3281 21.1631 7.85745 21.5836 6.69804 20.8983L4.97336 19.9114C4.97323 19.9113 4.9735 19.9114 4.97336 19.9114C3.70105 19.184 3.26925 17.5529 3.99607 16.295L3.99659 16.2941C4.37152 15.6472 4.31268 15.234 4.19565 15.0309C4.07854 14.8277 3.75068 14.5702 3.00547 14.5702C1.53869 14.5702 0.355469 13.3718 0.355469 11.9202V10.1602C0.355469 8.70853 1.53869 7.51017 3.00547 7.51017C3.75068 7.51017 4.07854 7.25265 4.19565 7.04945C4.31268 6.84636 4.37152 6.43314 3.99659 5.78627L3.99607 5.78538C3.26925 4.52742 3.70065 2.89655 4.97296 2.16922L6.69795 1.18209Z" fill="#553FA5"/>
<path fill-rule="evenodd" clip-rule="evenodd" d="M11.1055 8.79004C9.86283 8.79004 8.85547 9.7974 8.85547 11.04C8.85547 12.2827 9.86283 13.29 11.1055 13.29C12.3481 13.29 13.3555 12.2827 13.3555 11.04C13.3555 9.7974 12.3481 8.79004 11.1055 8.79004ZM7.35547 11.04C7.35547 8.96897 9.0344 7.29004 11.1055 7.29004C13.1765 7.29004 14.8555 8.96897 14.8555 11.04C14.8555 13.1111 13.1765 14.79 11.1055 14.79C9.0344 14.79 7.35547 13.1111 7.35547 11.04Z" fill="white"/>
</svg>
