<svg width="57" height="56" viewBox="0 0 57 56" fill="none" xmlns="http://www.w3.org/2000/svg">
<circle cx="28.828" cy="28" r="28" fill="#CABEF4"/>
<path d="M28.328 14.6667C20.9813 14.6667 14.9946 20.6534 14.9946 28.0001C14.9946 35.3467 20.9813 41.3334 28.328 41.3334C35.6746 41.3334 41.6613 35.3467 41.6613 28.0001C41.6613 20.6534 35.6746 14.6667 28.328 14.6667ZM34.7013 24.9334L27.1413 32.4934C26.9546 32.6801 26.7013 32.7867 26.4346 32.7867C26.168 32.7867 25.9146 32.6801 25.728 32.4934L21.9546 28.7201C21.568 28.3334 21.568 27.6934 21.9546 27.3067C22.3413 26.9201 22.9813 26.9201 23.368 27.3067L26.4346 30.3734L33.288 23.5201C33.6746 23.1334 34.3146 23.1334 34.7013 23.5201C35.088 23.9067 35.088 24.5334 34.7013 24.9334Z" fill="#553FA5"/>
</svg>
