<svg width="20" height="23" viewBox="0 0 20 23" fill="none" xmlns="http://www.w3.org/2000/svg">
<path fill-rule="evenodd" clip-rule="evenodd" d="M5.28529 0.776367C2.73982 0.776367 0.675293 2.85342 0.675293 5.38637V19.4764C0.675293 20.5421 1.06362 21.4838 1.88719 21.9689C2.71017 22.4536 3.72277 22.3378 4.65705 21.8234L4.65941 21.822L9.54059 19.1114C9.66233 19.0435 9.86882 18.9889 10.114 18.9889C10.36 18.9889 10.561 19.0438 10.6745 19.1084L15.5612 21.822C16.4945 22.3416 17.5084 22.4623 18.3334 21.9764C19.1583 21.4906 19.5453 20.5451 19.5453 19.4764L19.5453 5.38637L19.5453 5.38283C19.5334 2.85333 17.4714 0.776367 14.9253 0.776367H5.28529ZM2.17529 5.38637C2.17529 3.67932 3.57077 2.27637 5.28529 2.27637H14.9253C16.6386 2.27637 18.0364 3.67856 18.0453 5.38837V19.4764C18.0453 20.2177 17.7873 20.5572 17.5722 20.6839C17.3574 20.8103 16.9359 20.8707 16.2894 20.5107L12.4347 18.37L11.4124 17.8023C11.0167 17.5784 10.5443 17.4889 10.114 17.4889C9.68194 17.4889 9.20815 17.5794 8.80999 17.8013L3.93353 20.5094L3.93235 20.51C3.2873 20.8649 2.86528 20.8041 2.6484 20.6764C2.43196 20.5489 2.17529 20.2106 2.17529 19.4764V7.04254V5.38637ZM13.7256 8.5567C14.0185 8.2638 14.0185 7.78893 13.7256 7.49604C13.4327 7.20314 12.9579 7.20314 12.665 7.49604L9.19529 10.9657L8.22562 9.99604C7.93273 9.70314 7.45786 9.70314 7.16496 9.99604C6.87207 10.2889 6.87207 10.7638 7.16496 11.0567L8.66496 12.5567C8.95786 12.8496 9.43273 12.8496 9.72562 12.5567L13.7256 8.5567Z" fill="#7C8BA0"/>
</svg>
