<svg width="31" height="30" viewBox="0 0 31 30" fill="none" xmlns="http://www.w3.org/2000/svg">
<circle cx="15.3979" cy="15" r="15" fill="#EFF8EB"/>
<g clip-path="url(#clip0_3641_4457)">
<path fill-rule="evenodd" clip-rule="evenodd" d="M20.3347 10.0347C19.0245 8.72333 17.2827 8.00058 15.4271 8C11.6033 8 8.49124 11.1115 8.48949 14.937C8.4889 16.1597 8.80857 17.3532 9.41582 18.4055L8.43115 22L12.1085 21.0352C13.1217 21.5882 14.2627 21.8792 15.4236 21.8798H15.4265C19.2497 21.8798 22.3623 18.7677 22.3641 14.9422C22.3652 13.089 21.6442 11.3454 20.3347 10.0347ZM15.4271 20.7079H15.4247C14.3899 20.7079 13.3755 20.4297 12.49 19.9041L12.2794 19.7793L10.0972 20.3515L10.6799 18.2235L10.5428 18.0053C9.96532 17.0872 9.66082 16.0261 9.6614 14.937C9.66257 11.7578 12.2497 9.17133 15.43 9.17133C16.97 9.17133 18.4178 9.77217 19.5063 10.8618C20.5948 11.9521 21.1939 13.4005 21.1933 14.9411C21.1916 18.1214 18.6051 20.7079 15.4271 20.7079ZM18.5899 16.3895C18.4167 16.3026 17.5644 15.8832 17.4052 15.8254C17.2465 15.7677 17.131 15.7385 17.0149 15.9117C16.8988 16.085 16.5675 16.4758 16.466 16.5919C16.3651 16.7074 16.2636 16.722 16.0903 16.6351C15.9171 16.5482 15.3582 16.3656 14.6962 15.7747C14.1811 15.315 13.8328 14.7474 13.7319 14.5736C13.631 14.3997 13.7214 14.3064 13.8077 14.2201C13.8859 14.1425 13.981 14.0177 14.0679 13.9162C14.1554 13.8158 14.184 13.7435 14.2423 13.6274C14.3001 13.5119 14.2715 13.4104 14.2277 13.3235C14.184 13.2372 13.8375 12.3837 13.6934 12.0367C13.5528 11.6983 13.4099 11.7444 13.3032 11.7392C13.2022 11.7339 13.0867 11.7333 12.9707 11.7333C12.8552 11.7333 12.6673 11.7765 12.5087 11.9503C12.35 12.1242 11.902 12.5436 11.902 13.3964C11.902 14.2498 12.5232 15.0741 12.6096 15.1896C12.6959 15.3051 13.8317 17.0562 15.5706 17.807C15.9842 17.9855 16.3073 18.0922 16.5587 18.1722C16.9741 18.304 17.3521 18.2853 17.6507 18.241C17.9838 18.1914 18.6762 17.8216 18.8209 17.4167C18.9656 17.0119 18.9656 16.6642 18.9218 16.5925C18.8787 16.5196 18.7632 16.4764 18.5899 16.3895Z" fill="#2DA205"/>
</g>
<defs>
<clipPath id="clip0_3641_4457">
<rect width="14" height="14" fill="white" transform="translate(8.39795 8)"/>
</clipPath>
</defs>
</svg>
